<svg width="17" height="17" viewBox="0 0 17 17" fill="none" xmlns="http://www.w3.org/2000/svg">
<path d="M12.7911 5.141C12.7917 4.34405 12.5864 3.56045 12.1951 2.86616C11.8038 2.17188 11.2398 1.59045 10.5578 1.17825C9.87569 0.76604 9.09869 0.537035 8.30209 0.513429C7.50549 0.489822 6.71629 0.672416 6.01101 1.04351C5.30573 1.4146 4.70828 1.96161 4.27657 2.63151C3.84486 3.30141 3.59354 4.07147 3.54697 4.86706C3.5004 5.66266 3.66015 6.45679 4.01075 7.17248C4.36135 7.88817 4.89089 8.50115 5.54806 8.952C3.97653 9.49798 2.61386 10.5195 1.64911 11.8749C0.684357 13.2303 0.165341 14.8523 0.164062 16.516H1.41406C1.41618 14.7264 2.12802 13.0108 3.39343 11.7454C4.65884 10.48 6.3745 9.76812 8.16406 9.766C9.39055 9.76494 10.5665 9.27739 11.434 8.41032C12.3014 7.54325 12.7895 6.36749 12.7911 5.141ZM8.16406 8.516C7.49655 8.516 6.84403 8.31806 6.28901 7.94721C5.734 7.57636 5.30141 7.04926 5.04597 6.43256C4.79052 5.81586 4.72369 5.13726 4.85391 4.48257C4.98414 3.82788 5.30557 3.22652 5.77758 2.75451C6.24958 2.28251 6.85095 1.96107 7.50563 1.83085C8.16032 1.70062 8.83892 1.76746 9.45562 2.02291C10.0723 2.27835 10.5994 2.71093 10.9703 3.26595C11.3411 3.82097 11.5391 4.47349 11.5391 5.141C11.538 6.03578 11.1821 6.89361 10.5494 7.52632C9.91667 8.15902 9.05884 8.51494 8.16406 8.516Z" fill="white"/>
<path d="M13.5703 12.642V10.017H12.3203V12.642H9.69531V13.892H12.3203V16.517H13.5703V13.892H16.1953V12.642H13.5703Z" fill="white"/>
</svg>
