<svg width="21" height="21" viewBox="0 0 21 21" fill="none" xmlns="http://www.w3.org/2000/svg">
<path d="M17.6901 5.024L17.2761 5.438C16.9373 5.76136 16.4855 5.93935 16.0172 5.93391C15.5489 5.92847 15.1013 5.74003 14.7702 5.40888C14.439 5.07773 14.2506 4.63016 14.2451 4.16187C14.2397 3.69359 14.4177 3.24176 14.7411 2.903L15.1551 2.489L12.6821 0.0149994L0.164062 12.533L2.63806 15.007L3.05206 14.593C3.39082 14.2696 3.84265 14.0916 4.31093 14.0971C4.77922 14.1025 5.22679 14.291 5.55794 14.6221C5.88909 14.9533 6.07753 15.4008 6.08298 15.8691C6.08842 16.3374 5.91043 16.7892 5.58706 17.128L5.17306 17.542L7.64606 20.015L20.1641 7.497L17.6901 5.024ZM6.78906 17.501C7.16724 16.9306 7.33652 16.247 7.26822 15.566C7.19992 14.8851 6.89824 14.2487 6.41431 13.7648C5.93038 13.2808 5.294 12.9791 4.61304 12.9108C3.93208 12.8425 3.24846 13.0118 2.67806 13.39L1.82106 12.533L12.6811 1.673L13.5381 2.53C13.1599 3.1004 12.9906 3.78402 13.0589 4.46498C13.1272 5.14594 13.4289 5.78232 13.9128 6.26625C14.3967 6.75017 15.0331 7.05186 15.7141 7.12016C16.395 7.18846 17.0787 7.01917 17.6491 6.641L18.5061 7.498L7.64606 18.357L6.78906 17.501Z" fill="white"/>
<path d="M11.8444 7.50527L11.0156 8.334L11.8479 9.16626L12.6766 8.33754L11.8444 7.50527Z" fill="white"/>
<path d="M10.1803 5.84028L9.35156 6.66901L10.1838 7.50127L11.0126 6.67254L10.1803 5.84028Z" fill="white"/>
<path d="M13.5084 9.16927L12.6797 9.998L13.512 10.8303L14.3407 10.0015L13.5084 9.16927Z" fill="white"/>
</svg>
