<svg width="21" height="18" viewBox="0 0 21 18" fill="none" xmlns="http://www.w3.org/2000/svg">
<path d="M20.1814 15.9626H19.7165L19.1923 13.8674C19.1574 13.7276 19.0767 13.6035 18.963 13.5148C18.8494 13.4262 18.7094 13.3781 18.5653 13.3782H16.3023V12.4083H18.2428C18.4099 12.4019 18.5681 12.3311 18.6841 12.2106C18.8001 12.0901 18.8649 11.9294 18.8649 11.7622C18.8649 11.595 18.8001 11.4343 18.6841 11.3138C18.5681 11.1934 18.4099 11.1225 18.2428 11.1161V10.7929C18.2406 8.84859 17.5088 6.97589 16.1921 5.54487C14.8754 4.11385 13.0696 3.22864 11.1315 3.06416V2.06791H12.1018C12.1887 2.07123 12.2755 2.05697 12.3568 2.026C12.4381 1.99503 12.5123 1.94797 12.575 1.88765C12.6377 1.82732 12.6876 1.75499 12.7217 1.67494C12.7557 1.5949 12.7733 1.50881 12.7733 1.42182C12.7733 1.33484 12.7557 1.24875 12.7217 1.1687C12.6876 1.08866 12.6377 1.01629 12.575 0.95597C12.5123 0.895647 12.4381 0.848591 12.3568 0.817618C12.2755 0.786644 12.1887 0.772389 12.1018 0.775709H8.86956C8.7826 0.772389 8.69587 0.786644 8.61455 0.817618C8.53324 0.848591 8.45901 0.895647 8.39631 0.95597C8.33362 1.01629 8.28374 1.08866 8.24968 1.1687C8.21561 1.24875 8.19805 1.33484 8.19805 1.42182C8.19805 1.50881 8.21561 1.5949 8.24968 1.67494C8.28374 1.75499 8.33362 1.82732 8.39631 1.88765C8.45901 1.94797 8.53324 1.99503 8.61455 2.026C8.69587 2.05697 8.7826 2.07123 8.86956 2.06791H9.83979V3.06416C7.90175 3.22864 6.09594 4.11385 4.77924 5.54487C3.46255 6.97589 2.73078 8.84859 2.72854 10.7929V11.1161C2.56139 11.1225 2.40321 11.1934 2.28721 11.3138C2.17121 11.4343 2.10641 11.595 2.10641 11.7622C2.10641 11.9294 2.17121 12.0901 2.28721 12.2106C2.40321 12.3311 2.56139 12.4019 2.72854 12.4083H4.66523V13.3782H2.4023C2.25817 13.3781 2.11815 13.4262 2.00453 13.5148C1.89091 13.6035 1.81021 13.7276 1.77528 13.8674L1.25104 15.9626H0.786191C0.619041 15.969 0.460868 16.0398 0.344868 16.1603C0.228868 16.2808 0.164063 16.4415 0.164062 16.6087C0.164063 16.7759 0.228868 16.9366 0.344868 17.0571C0.460868 17.1775 0.619041 17.2484 0.786191 17.2548H20.1814C20.3485 17.2484 20.5067 17.1775 20.6227 17.0571C20.7387 16.9366 20.8035 16.7759 20.8035 16.6087C20.8035 16.4415 20.7387 16.2808 20.6227 16.1603C20.5067 16.0398 20.3485 15.969 20.1814 15.9626ZM4.01841 10.7929C4.01841 9.07879 4.69958 7.43493 5.91207 6.22291C7.12456 5.01089 8.76906 4.32996 10.4838 4.32996C12.1985 4.32996 13.843 5.01089 15.0555 6.22291C16.268 7.43493 16.9492 9.07879 16.9492 10.7929V11.1161H4.01841V10.7929ZM5.95792 12.4083H15.0096V13.3782H5.95792V12.4083ZM2.58334 15.9626L2.90674 14.6704H18.0599L18.3833 15.9626H2.58334Z" fill="white"/>
</svg>
