<svg width="19" height="18" viewBox="0 0 19 18" fill="none" xmlns="http://www.w3.org/2000/svg">
<path d="M0.165122 12.1743C0.1652 12.2634 0.187896 12.3511 0.231085 12.4291C0.274274 12.5071 0.336544 12.5728 0.412067 12.6202L8.87018 17.919C8.95396 17.9714 9.0508 17.9992 9.14962 17.9992C9.24845 17.9992 9.34528 17.9714 9.42906 17.919L17.8872 12.6202C17.963 12.5728 18.0255 12.507 18.0689 12.4288C18.1122 12.3506 18.135 12.2627 18.135 12.1733C18.135 12.0839 18.1122 11.996 18.0689 11.9178C18.0255 11.8396 17.963 11.7737 17.8872 11.7264L16.0616 10.6006L17.8902 9.4629C17.9673 9.41587 18.0311 9.34979 18.0753 9.271C18.1196 9.19221 18.1428 9.10337 18.1428 9.013C18.1428 8.92264 18.1196 8.83379 18.0753 8.755C18.0311 8.67622 17.9673 8.61013 17.8902 8.5631L16.0616 7.44235L17.8902 6.3046C17.9658 6.2572 18.0281 6.19137 18.0713 6.11329C18.1145 6.03521 18.1372 5.94744 18.1372 5.8582C18.1372 5.76897 18.1145 5.68119 18.0713 5.60311C18.0281 5.52503 17.9658 5.45921 17.8902 5.4118L9.42806 0.110983C9.34428 0.0585705 9.24745 0.030777 9.14862 0.030777C9.0498 0.030777 8.95296 0.0585705 8.86918 0.110983L0.411067 5.4098C0.335462 5.45721 0.273135 5.52303 0.229931 5.60111C0.186727 5.67919 0.164062 5.76697 0.164062 5.8562C0.164062 5.94544 0.186727 6.03321 0.229931 6.11129C0.273135 6.18938 0.335462 6.2552 0.411067 6.3026L2.22766 7.43135L0.412067 8.5691C0.336241 8.61645 0.273711 8.68232 0.23036 8.7605C0.187009 8.83868 0.164263 8.9266 0.164263 9.016C0.164263 9.1054 0.187009 9.19332 0.23036 9.2715C0.273711 9.34968 0.336241 9.41555 0.412067 9.4629L2.22766 10.5927L0.412067 11.7304C0.33683 11.7776 0.27474 11.843 0.231567 11.9206C0.188394 11.9982 0.165537 12.0855 0.165122 12.1743ZM9.15012 1.17675L16.6145 5.8537L9.14912 10.5017L1.68478 5.8557L9.15012 1.17675ZM3.22344 8.05322L8.87118 11.5684C8.95463 11.6202 9.0509 11.6477 9.14912 11.6477C9.24735 11.6477 9.34361 11.6202 9.42706 11.5684L15.0618 8.06321L16.6105 9.018L9.14912 13.66L1.68578 9.015L3.22344 8.05322ZM3.22344 11.2115L8.87118 14.7297C8.95463 14.7815 9.0509 14.809 9.14912 14.809C9.24735 14.809 9.34361 14.7815 9.42706 14.7297L15.0618 11.2215L16.6125 12.1773L9.14912 16.8533L1.68278 12.1753L3.22344 11.2115Z" fill="white"/>
</svg>
