<svg width="21" height="23" viewBox="0 0 21 23" fill="none" xmlns="http://www.w3.org/2000/svg">
<mask id="mask0_1099_35" style="mask-type:luminance" maskUnits="userSpaceOnUse" x="0" y="0" width="21" height="23">
<path d="M20.9162 0H0.148438V22.03H20.9162V0Z" fill="white"/>
</mask>
<g mask="url(#mask0_1099_35)">
<path d="M20.856 9.41159L20.7781 2.74613C20.7755 2.5877 20.7186 2.43494 20.6169 2.31343C20.5153 2.19191 20.3749 2.109 20.2194 2.07857C16.9766 2.09669 13.7686 1.40926 10.8179 0.0639523C10.7275 0.0222706 10.6291 0.000686646 10.5296 0.000686646C10.43 0.000686646 10.3317 0.0222706 10.2413 0.0639523C7.30981 1.41019 4.1173 2.09264 0.891649 2.06259C0.70904 2.06259 0.533909 2.13513 0.404785 2.26425C0.27566 2.39338 0.203125 2.56851 0.203125 2.75112V9.41758C0.205847 12.364 1.21778 15.2205 3.07042 17.5115C4.92306 19.8025 7.50459 21.3898 10.3852 22.009C10.4803 22.0294 10.5788 22.0294 10.674 22.009C13.5565 21.3894 16.1396 19.8003 17.9925 17.5068C19.8453 15.2134 20.856 12.354 20.856 9.40558V9.41159ZM10.5301 20.6359C7.99329 20.0471 5.72952 18.6192 4.10524 16.5836C2.48096 14.548 1.59126 12.0238 1.58018 9.41958V3.43765C4.66607 3.37243 7.70826 2.69477 10.5301 1.44401C13.3304 2.68491 16.3479 3.36169 19.41 3.43565L19.4799 9.42358C19.4682 12.0273 18.5782 14.5508 16.9539 16.5858C15.3297 18.6208 13.0663 20.0482 10.5301 20.6369V20.6359Z" fill="white"/>
</g>
<path d="M13.9717 8.95011H13.2831V7.91777C13.2901 7.55172 13.224 7.18797 13.0888 6.84776C12.9535 6.50755 12.7518 6.19771 12.4954 5.93637C12.239 5.67504 11.933 5.46745 11.5955 5.32573C11.2579 5.18402 10.8955 5.11102 10.5293 5.11102C10.1632 5.11102 9.8008 5.18402 9.46323 5.32573C9.12566 5.46745 8.81973 5.67504 8.56333 5.93637C8.30692 6.19771 8.10519 6.50755 7.96993 6.84776C7.83467 7.18797 7.76859 7.55172 7.77557 7.91777V8.95011H7.087C6.99658 8.95011 6.90704 8.96793 6.82349 9.00254C6.73995 9.03714 6.66405 9.08786 6.60011 9.1518C6.53617 9.21574 6.48545 9.29166 6.45085 9.3752C6.41625 9.45874 6.39844 9.54828 6.39844 9.6387V15.1462C6.39844 15.2367 6.41625 15.3262 6.45085 15.4097C6.48545 15.4933 6.53617 15.5692 6.60011 15.6331C6.66405 15.6971 6.73995 15.7478 6.82349 15.7824C6.90704 15.817 6.99658 15.8348 7.087 15.8348H13.9717C14.0621 15.8348 14.1516 15.817 14.2352 15.7824C14.3187 15.7478 14.3947 15.6971 14.4586 15.6331C14.5225 15.5692 14.5732 15.4933 14.6078 15.4097C14.6425 15.3262 14.6603 15.2367 14.6603 15.1462V9.6387C14.6603 9.54828 14.6425 9.45874 14.6078 9.3752C14.5732 9.29166 14.5225 9.21574 14.4586 9.1518C14.3947 9.08786 14.3187 9.03714 14.2352 9.00254C14.1516 8.96793 14.0621 8.95011 13.9717 8.95011ZM9.15271 7.91777C9.15271 7.55253 9.2978 7.20224 9.55607 6.94398C9.81433 6.68572 10.1646 6.54064 10.5299 6.54064C10.8951 6.54064 11.2454 6.68572 11.5036 6.94398C11.7619 7.20224 11.907 7.55253 11.907 7.91777V8.95011H9.15271V7.91777ZM13.2831 14.4587H7.77557V10.3283H13.2831V14.4587Z" fill="white"/>
<path d="M10.5323 11.3593C10.4419 11.3593 10.3523 11.3771 10.2688 11.4117C10.1853 11.4463 10.1094 11.497 10.0454 11.5609C9.9815 11.6249 9.93078 11.7008 9.89618 11.7843C9.86157 11.8679 9.84375 11.9574 9.84375 12.0478V12.7364C9.84375 12.919 9.9163 13.0942 10.0454 13.2233C10.1746 13.3524 10.3497 13.425 10.5323 13.425C10.7149 13.425 10.8901 13.3524 11.0192 13.2233C11.1484 13.0942 11.2209 12.919 11.2209 12.7364V12.0478C11.2209 11.9574 11.2031 11.8679 11.1685 11.7843C11.1339 11.7008 11.0832 11.6249 11.0192 11.5609C10.9553 11.497 10.8794 11.4463 10.7958 11.4117C10.7123 11.3771 10.6227 11.3593 10.5323 11.3593Z" fill="white"/>
</svg>
