<svg width="21" height="20" viewBox="0 0 21 20" fill="none" xmlns="http://www.w3.org/2000/svg">
<path d="M17.2647 3.25187C15.6999 1.68505 13.6403 0.7093 11.4367 0.490874C9.23319 0.272449 7.02207 0.824866 5.18017 2.054C3.33826 3.28314 1.97955 5.11292 1.33556 7.23157C0.691573 9.35021 0.802152 11.6266 1.64846 13.6729C2.49477 15.7191 4.02443 17.4086 5.9768 18.4534C7.92916 19.4982 10.1834 19.8337 12.3554 19.4028C14.5274 18.9718 16.4828 17.801 17.8883 16.0899C19.2939 14.3788 20.0626 12.2333 20.0635 10.0189C20.0674 8.76195 19.822 7.51669 19.3416 6.35515C18.8612 5.19362 18.1553 4.13886 17.2647 3.25187ZM17.1847 15.0537C16.6172 14.6696 16.0176 14.3352 15.3925 14.0541C15.6752 12.9299 15.8354 11.7784 15.8703 10.6196H18.85C18.7361 12.2284 18.1576 13.7694 17.1847 15.0557V15.0537ZM2.14534 10.6176H5.12503C5.16004 11.7763 5.32024 12.9279 5.60282 14.0521C4.97779 14.3332 4.37816 14.6676 3.81061 15.0517C2.83772 13.7654 2.25921 12.2244 2.14534 10.6156V10.6176ZM3.80961 4.9851C4.37715 5.36923 4.97678 5.70366 5.60182 5.98466C5.31913 7.10891 5.15893 8.26045 5.12403 9.41916H2.14434C2.25803 7.81056 2.83618 6.26953 3.80861 4.9831L3.80961 4.9851ZM14.405 3.39381C14.1996 3.00501 13.963 2.63362 13.6973 2.2833C14.7024 2.70283 15.6163 3.31391 16.3881 4.0825C15.9564 4.36627 15.5047 4.61849 15.0367 4.83717C14.8615 4.34294 14.6504 3.8622 14.405 3.39881V3.39381ZM13.9212 5.27797C11.6967 6.01723 9.2927 6.01723 7.06818 5.27797C7.83284 3.09993 9.09729 1.64558 10.4947 1.64558C11.8921 1.64558 13.1565 3.10093 13.9212 5.27797ZM6.31851 9.42116C6.35329 8.41037 6.49027 7.40569 6.72733 6.42247C9.17433 7.22572 11.814 7.22572 14.261 6.42247C14.4981 7.40569 14.6351 8.41037 14.6698 9.42116H6.31851ZM14.6698 10.6206C14.635 11.6314 14.498 12.6361 14.261 13.6193C11.8141 12.8158 9.17428 12.8158 6.72733 13.6193C6.49032 12.6361 6.35335 11.6314 6.31851 10.6206H14.6698ZM6.58239 3.39681C6.33707 3.86024 6.12593 4.34097 5.95067 4.83517C5.48264 4.61645 5.031 4.36423 4.59927 4.0805C5.37102 3.31191 6.28493 2.70083 7.29008 2.2813C7.02438 2.63162 6.7877 3.00301 6.58239 3.39181V3.39681ZM5.95067 15.2106C6.12564 15.7048 6.33644 16.1855 6.58139 16.649C6.7867 17.0378 7.02338 17.4092 7.28908 17.7595C6.28443 17.3413 5.37056 16.7319 4.59826 15.9653C5.02995 15.6815 5.4826 15.4293 5.95067 15.2106ZM7.06618 14.7648C9.2907 14.0256 11.6947 14.0256 13.9192 14.7648C13.1545 16.9429 11.8901 18.3972 10.4927 18.3972C9.09529 18.3972 7.83084 16.9429 7.06618 14.7648ZM14.404 16.649C14.6493 16.1856 14.8605 15.7048 15.0357 15.2106C15.5038 15.4293 15.9554 15.6815 16.3871 15.9653C15.6148 16.7319 14.7009 17.3413 13.6963 17.7595C13.962 17.4092 14.1986 17.0378 14.404 16.649ZM15.8653 9.42516C15.8303 8.26645 15.6701 7.11493 15.3875 5.99067C16.0126 5.70967 16.6122 5.37524 17.1797 4.99111C18.1522 6.27754 18.7303 7.81855 18.844 9.42715L15.8653 9.42516Z" fill="white"/>
</svg>
