<svg width="18" height="18" viewBox="0 0 18 18" fill="none" xmlns="http://www.w3.org/2000/svg">
<path d="M10.5945 17.9953H7.29657C7.16404 17.9953 7.03693 17.9427 6.94322 17.849C6.84951 17.7553 6.79688 17.6282 6.79688 17.4957V11.0179C6.79688 10.8854 6.84951 10.7583 6.94322 10.6646C7.03693 10.5709 7.16404 10.5183 7.29657 10.5183H10.5945C10.727 10.5183 10.8541 10.5709 10.9479 10.6646C11.0416 10.7583 11.0942 10.8854 11.0942 11.0179V17.4957C11.0942 17.6282 11.0416 17.7553 10.9479 17.849C10.8541 17.9427 10.727 17.9953 10.5945 17.9953ZM7.79626 16.9961H10.0948V11.5185H7.79626V16.9961Z" fill="white"/>
<path d="M17.1548 17.9953H13.8278C13.6953 17.9953 13.5682 17.9427 13.4745 17.849C13.3808 17.7553 13.3281 17.6282 13.3281 17.4957V7.09105C13.3281 6.95854 13.3808 6.83148 13.4745 6.73778C13.5682 6.64409 13.6953 6.59145 13.8278 6.59145H17.1548C17.2873 6.59145 17.4144 6.64409 17.5081 6.73778C17.6018 6.83148 17.6545 6.95854 17.6545 7.09105V17.4957C17.6545 17.6282 17.6018 17.7553 17.5081 17.849C17.4144 17.9427 17.2873 17.9953 17.1548 17.9953ZM14.3285 16.9961H16.6551V7.59165H14.3275L14.3285 16.9961Z" fill="white"/>
<path d="M4.06881 17.9953H0.741878C0.609352 17.9953 0.482253 17.9427 0.388543 17.849C0.294833 17.7553 0.242188 17.6282 0.242188 17.4957V13.444C0.242188 13.3114 0.294833 13.1844 0.388543 13.0907C0.482253 12.997 0.609352 12.9444 0.741878 12.9444H4.06881C4.20134 12.9444 4.32844 12.997 4.42215 13.0907C4.51586 13.1844 4.5685 13.3114 4.5685 13.444V17.4957C4.5685 17.6282 4.51586 17.7553 4.42215 17.849C4.32844 17.9427 4.20134 17.9953 4.06881 17.9953ZM1.24257 16.9961H3.56912V13.9446H1.24157L1.24257 16.9961Z" fill="white"/>
<path d="M0.56806 7.69053C0.496157 7.69349 0.424593 7.67915 0.35938 7.64873C0.294167 7.6183 0.237209 7.57267 0.193292 7.51567C0.104994 7.41905 0.0581466 7.29164 0.0628187 7.16084C0.0674909 7.03005 0.123311 6.90631 0.218278 6.81623L4.8714 2.36479C4.95896 2.28358 5.07272 2.2364 5.19207 2.23182C5.31142 2.22724 5.42846 2.26555 5.52199 2.33981L10.0482 5.88997L16.827 0.588214C16.8795 0.548849 16.9392 0.520206 17.0028 0.503923C17.0664 0.487641 17.1325 0.484041 17.1975 0.493319C17.2624 0.502598 17.3249 0.524576 17.3814 0.558003C17.4379 0.59143 17.4872 0.635646 17.5266 0.688133C17.6088 0.791046 17.6471 0.922286 17.6331 1.05328C17.619 1.18428 17.5538 1.30443 17.4516 1.38758L10.348 6.91515C10.2593 6.98635 10.149 7.02515 10.0352 7.02515C9.92145 7.02515 9.8111 6.98635 9.72239 6.91515L5.25116 3.38897L0.918841 7.53766C0.873284 7.58493 0.818859 7.62276 0.758669 7.64899C0.69848 7.67523 0.633709 7.68934 0.56806 7.69053Z" fill="white"/>
<path d="M17.0061 5.56427H16.981C16.8505 5.5518 16.7293 5.49097 16.6413 5.39373C16.5532 5.29648 16.5048 5.16984 16.5054 5.03869L16.8052 1.31167L12.7527 1.03689C12.6201 1.02695 12.497 0.964783 12.4103 0.864063C12.3236 0.763342 12.2805 0.632324 12.2905 0.499822C12.3004 0.367319 12.3626 0.244187 12.4633 0.15752C12.564 0.0708541 12.6951 0.0277521 12.8276 0.0376898L17.3808 0.362427C17.4446 0.365354 17.5069 0.382594 17.5631 0.412863C17.6194 0.443131 17.668 0.485656 17.7056 0.53729C17.7532 0.581125 17.7894 0.635848 17.8112 0.696762C17.8329 0.757676 17.8396 0.82296 17.8305 0.887009L17.5057 5.11362C17.4935 5.23747 17.4355 5.3523 17.3431 5.43565C17.2507 5.519 17.1305 5.56487 17.0061 5.56427Z" fill="white"/>
</svg>
