<svg width="32" height="32" viewBox="0 0 32 32" fill="none" xmlns="http://www.w3.org/2000/svg">
<path d="M21.3346 5.33268C21.3346 3.86602 22.5346 2.66602 24.0013 2.66602C25.468 2.66602 26.668 3.86602 26.668 5.33268C26.668 6.79935 25.468 7.99935 24.0013 7.99935C22.5346 7.99935 21.3346 6.79935 21.3346 5.33268ZM27.708 10.106C26.5388 9.59586 25.2769 9.33259 24.0013 9.33268C23.108 9.33268 22.2546 9.46602 21.4413 9.70602C22.2146 10.4393 22.668 11.466 22.668 12.5727V13.3327H29.3346V12.5727C29.3346 11.4927 28.6946 10.5327 27.708 10.106ZM8.0013 7.99935C9.46797 7.99935 10.668 6.79935 10.668 5.33268C10.668 3.86602 9.46797 2.66602 8.0013 2.66602C6.53464 2.66602 5.33464 3.86602 5.33464 5.33268C5.33464 6.79935 6.53464 7.99935 8.0013 7.99935ZM10.5613 9.70602C9.74797 9.46602 8.89464 9.33268 8.0013 9.33268C6.6813 9.33268 5.42797 9.61268 4.29464 10.106C3.81159 10.3125 3.39987 10.6564 3.11066 11.0949C2.82145 11.5335 2.66751 12.0474 2.66797 12.5727V13.3327H9.33464V12.5727C9.33464 11.466 9.78797 10.4393 10.5613 9.70602ZM13.3346 5.33268C13.3346 3.86602 14.5346 2.66602 16.0013 2.66602C17.468 2.66602 18.668 3.86602 18.668 5.33268C18.668 6.79935 17.468 7.99935 16.0013 7.99935C14.5346 7.99935 13.3346 6.79935 13.3346 5.33268ZM21.3346 13.3327H10.668V12.5727C10.668 11.4927 11.308 10.5327 12.2946 10.106C13.4638 9.59576 14.7257 9.33239 16.0013 9.33239C17.2769 9.33239 18.5388 9.59576 19.708 10.106C20.191 10.3125 20.6027 10.6564 20.8919 11.0949C21.1812 11.5335 21.3351 12.0474 21.3346 12.5727V13.3327ZM20.0013 21.3327C20.0013 19.866 21.2013 18.666 22.668 18.666C24.1346 18.666 25.3346 19.866 25.3346 21.3327C25.3346 22.7993 24.1346 23.9993 22.668 23.9993C21.2013 23.9993 20.0013 22.7993 20.0013 21.3327ZM28.0013 29.3327H17.3346V28.5727C17.3346 27.4927 17.9746 26.5327 18.9613 26.106C20.1304 25.5958 21.3923 25.3324 22.668 25.3324C23.9436 25.3324 25.2055 25.5958 26.3746 26.106C26.8577 26.3125 27.2694 26.6564 27.5586 27.0949C27.8478 27.5335 28.0018 28.0474 28.0013 28.5727V29.3327ZM6.66797 21.3327C6.66797 19.866 7.86797 18.666 9.33464 18.666C10.8013 18.666 12.0013 19.866 12.0013 21.3327C12.0013 22.7993 10.8013 23.9993 9.33464 23.9993C7.86797 23.9993 6.66797 22.7993 6.66797 21.3327ZM14.668 29.3327H4.0013V28.5727C4.0013 27.4927 4.6413 26.5327 5.62797 26.106C6.79711 25.5958 8.059 25.3324 9.33464 25.3324C10.6103 25.3324 11.8722 25.5958 13.0413 26.106C13.5244 26.3125 13.9361 26.6564 14.2253 27.0949C14.5145 27.5335 14.6684 28.0474 14.668 28.5727V29.3327ZM18.388 17.3327H17.0013V15.666C17.0013 15.1193 16.548 14.666 16.0013 14.666C15.4546 14.666 15.0013 15.1193 15.0013 15.666V17.3327H13.6146C13.0146 17.3327 12.7213 18.0527 13.148 18.466L15.5346 20.8527C15.8013 21.1193 16.2146 21.1193 16.4813 20.8527L18.868 18.466C18.9601 18.372 19.0224 18.2529 19.0469 18.1235C19.0714 17.9942 19.0571 17.8605 19.0058 17.7393C18.9544 17.6181 18.8684 17.5148 18.7584 17.4425C18.6485 17.3701 18.5196 17.3319 18.388 17.3327Z" fill="white"/>
</svg>
