<svg width="51" height="59" viewBox="0 0 51 59" fill="none" xmlns="http://www.w3.org/2000/svg">
<g clip-path="url(#clip0_3964_15477)">
<path d="M44.1192 30.8589C43.2311 30.7109 42.3877 30.5196 41.5343 30.438C35.8188 29.9007 30.5813 32.7455 27.9237 37.8278C27.7285 38.2004 27.5135 38.3119 27.1117 38.3069C25.6067 38.2836 24.1001 38.2936 22.5935 38.2986C21.2788 38.3036 20.3642 39.1188 20.3559 40.2799C20.3493 41.4345 21.2754 42.2763 22.5753 42.2829C23.8322 42.2896 25.0874 42.2829 26.4369 42.2829C26.0169 45.7732 26.68 49.0455 28.2164 52.2446H27.4639C21.8311 52.2446 16.1983 52.2446 10.5672 52.2446C5.37759 52.2446 1.20177 48.5231 0.578296 43.341C0.538605 43.0133 0.548528 42.6772 0.548528 42.3461C0.548528 31.6791 0.545221 21.0104 0.548528 10.3433C0.550182 4.89501 4.9691 0.446523 10.3786 0.443196C18.3433 0.438205 26.3063 0.438205 34.2709 0.443196C39.6887 0.446523 44.1142 4.88503 44.1192 10.325C44.1258 16.9661 44.1192 23.6073 44.1192 30.2501C44.1192 30.4563 44.1192 30.661 44.1192 30.8606V30.8589ZM29.2632 10.4049C26.9744 10.4049 24.6856 10.3899 22.3967 10.4115C21.2308 10.4215 20.3559 11.3032 20.3559 12.3962C20.3559 13.4809 21.2391 14.3792 22.3984 14.3826C26.976 14.3975 31.5537 14.3925 36.1331 14.3859C36.7599 14.3859 37.3073 14.153 37.7042 13.6506C38.1904 13.035 38.3243 12.348 37.9936 11.616C37.6215 10.7925 36.95 10.4099 36.0702 10.4065C33.8012 10.3982 31.5339 10.4032 29.2649 10.4049H29.2632ZM29.2467 24.3509C26.9777 24.3509 24.7104 24.3393 22.4414 24.3559C21.2374 24.3642 20.3427 25.2459 20.3543 26.3589C20.3659 27.4469 21.249 28.3269 22.4132 28.3303C26.9711 28.3436 31.5273 28.3386 36.0851 28.3336C36.735 28.3336 37.3023 28.1073 37.7124 27.585C38.1953 26.9661 38.321 26.279 37.9837 25.5487C37.6033 24.7269 36.9302 24.3559 36.052 24.3526C33.783 24.3459 31.5157 24.3509 29.2467 24.3509ZM10.9839 25.8432C10.6697 25.4988 10.3075 25.0812 9.92219 24.682C9.14326 23.8784 7.93103 23.8285 7.14218 24.5539C6.33513 25.2942 6.27229 26.4803 7.02476 27.3404C7.85661 28.2887 8.70005 29.2269 9.56498 30.1436C10.4034 31.032 11.5495 31.0752 12.4161 30.2118C14.232 28.4035 16.0181 26.5635 17.8025 24.7236C18.2374 24.2744 18.4458 23.7104 18.3334 23.0733C18.1977 22.298 17.7694 21.7457 17.0186 21.4895C16.2413 21.225 15.5566 21.423 14.9745 21.9853C13.6647 23.2463 12.3599 24.5123 10.9839 25.8432ZM10.9823 11.8921C10.6697 11.5494 10.3158 11.1485 9.94535 10.7609C9.14988 9.92909 7.9178 9.87419 7.12068 10.6261C6.32686 11.3764 6.28055 12.5509 7.0413 13.4143C7.84669 14.331 8.66532 15.2343 9.49552 16.1277C10.4018 17.1026 11.5429 17.1458 12.4806 16.2042C14.2617 14.4175 16.0197 12.6108 17.7777 10.8008C18.2308 10.3333 18.4524 9.76106 18.3267 9.09728C18.1812 8.32371 17.7479 7.78137 16.9921 7.53349C16.2082 7.27563 15.5335 7.49357 14.953 8.0542C13.6449 9.31522 12.3384 10.5796 10.9806 11.8905L10.9823 11.8921ZM10.979 39.7859C10.6466 39.4215 10.2844 38.999 9.89408 38.603C9.11515 37.8128 7.88804 37.7862 7.11241 38.5265C6.34174 39.2635 6.28055 40.433 7.00822 41.2681C7.83677 42.2197 8.68185 43.1563 9.54513 44.0746C10.4068 44.9913 11.5512 45.0279 12.4426 44.1362C14.2402 42.3378 16.0131 40.5145 17.7843 38.6912C18.2209 38.242 18.4392 37.6831 18.3367 37.0459C18.211 36.2707 17.7893 35.7084 17.0417 35.4455C16.243 35.1644 15.5467 35.379 14.9464 35.9596C13.6399 37.2222 12.3318 38.4816 10.979 39.7875V39.7859Z" fill="url(#paint0_linear_3964_15477)"/>
<path d="M50.0808 44.1696C50.0097 48.4118 48.3923 51.7323 45.6404 54.5471C44.3323 55.8864 42.867 57.0209 41.2314 57.9293C40.5947 58.2836 39.9216 58.3818 39.2833 58.0174C34.9966 55.5719 31.7701 52.2347 30.5744 47.2655C29.4746 42.6939 31.0739 38.3586 34.6956 35.948C40.732 31.9321 48.8703 35.5804 49.9502 42.7921C50.0296 43.3228 50.0527 43.8618 50.0825 44.1679L50.0808 44.1696ZM44.1173 44.2943C44.1322 42.1499 42.356 40.33 40.2094 40.2917C38.0611 40.2534 36.2155 42.0767 36.2006 44.2527C36.1857 46.4204 38.0131 48.2637 40.1697 48.2554C42.3064 48.2471 44.1024 46.4437 44.1173 44.2927V44.2943Z" fill="url(#paint1_linear_3964_15477)"/>
</g>
<defs>
<linearGradient id="paint0_linear_3964_15477" x1="22.4701" y1="0.157903" x2="22.2931" y2="52.2445" gradientUnits="userSpaceOnUse">
<stop stop-color="#7EB3D6"/>
<stop offset="1" stop-color="#40789D"/>
</linearGradient>
<linearGradient id="paint1_linear_3964_15477" x1="40.2191" y1="34.1568" x2="40.136" y2="58.2473" gradientUnits="userSpaceOnUse">
<stop stop-color="#7EB3D6"/>
<stop offset="1" stop-color="#40789D"/>
</linearGradient>
<clipPath id="clip0_3964_15477">
<rect width="49.5359" height="57.8087" fill="white" transform="translate(0.544922 0.439941)"/>
</clipPath>
</defs>
</svg>
