<svg width="55" height="55" viewBox="0 0 55 55" fill="none" xmlns="http://www.w3.org/2000/svg">
<g clip-path="url(#clip0_3964_15520)">
<path d="M32.8846 54.4579H22.8079C22.3997 54.4579 22.01 54.2917 21.7316 54.0145C21.4532 53.7374 21.2862 53.3495 21.2862 52.9431V33.453C21.2862 33.0466 21.4532 32.6771 21.7316 32.3815C22.01 32.1044 22.3997 31.9381 22.8079 31.9381H32.8846C33.2929 31.9381 33.6826 32.1044 33.9609 32.3815C34.2393 32.6586 34.4063 33.0466 34.4063 33.453V52.9431C34.4063 53.3495 34.2393 53.719 33.9609 54.0145C33.6826 54.2917 33.2929 54.4579 32.8846 54.4579Z" fill="url(#paint0_linear_3964_15520)"/>
<path d="M52.908 54.4579H42.7386C42.3303 54.4579 41.9406 54.2916 41.6622 54.0145C41.3839 53.7374 41.2169 53.3494 41.2169 52.943V21.6665C41.2169 21.2601 41.3839 20.8906 41.6622 20.595C41.9406 20.3179 42.3303 20.1517 42.7386 20.1517H52.908C53.3163 20.1517 53.706 20.3179 53.9843 20.595C54.2627 20.8722 54.4297 21.2601 54.4297 21.6665V52.9615C54.4297 53.3679 54.2627 53.7374 53.9843 54.033C53.706 54.3101 53.3163 54.4764 52.908 54.4764V54.4579Z" fill="url(#paint1_linear_3964_15520)"/>
<path d="M12.9354 54.4579H2.76594C2.35768 54.4579 1.96797 54.2917 1.68961 54.0146C1.41125 53.7374 1.24423 53.3495 1.24423 52.9431V40.7502C1.24423 40.3438 1.41125 39.9743 1.68961 39.6787C1.96797 39.4016 2.35768 39.2354 2.76594 39.2354H12.9354C13.3437 39.2354 13.7334 39.4016 14.0117 39.6787C14.2901 39.9558 14.4571 40.3438 14.4571 40.7502V52.9431C14.4571 53.3495 14.2901 53.719 14.0117 54.0146C13.7334 54.2917 13.3437 54.4579 12.9354 54.4579Z" fill="url(#paint2_linear_3964_15520)"/>
<path d="M2.22776 23.4585C2.00507 23.4585 1.78238 23.4216 1.59681 23.3292C1.39268 23.2368 1.22566 23.1075 1.09576 22.9228C0.817399 22.6272 0.687498 22.2577 0.706055 21.8513C0.706055 21.4633 0.891629 21.0939 1.18855 20.8168L15.385 7.44158C15.6448 7.20142 15.9974 7.05362 16.3685 7.03515C16.7396 7.03515 17.0922 7.12752 17.3706 7.36768L31.1959 18.0457L51.9059 2.10259C52.0729 1.99175 52.24 1.89938 52.4441 1.84396C52.6297 1.78853 52.8338 1.78853 53.0379 1.80701C53.2421 1.84396 53.4276 1.89938 53.5946 2.01022C53.7617 2.10259 53.9101 2.25038 54.04 2.39818C54.2998 2.71223 54.4112 3.10019 54.3741 3.48814C54.3369 3.8761 54.1328 4.24558 53.8173 4.48574L32.1052 21.1123C31.8268 21.334 31.4928 21.4449 31.1402 21.4449C30.7876 21.4449 30.4536 21.334 30.1938 21.1123L16.5355 10.5083L3.30409 22.9967C3.15563 23.1445 3.00717 23.2553 2.8216 23.3292C2.63602 23.4031 2.43189 23.4585 2.24632 23.4585H2.22776Z" fill="url(#paint3_linear_3964_15520)"/>
<path d="M52.4627 17.0664H52.3884C51.9802 17.0295 51.6276 16.8447 51.3492 16.5492C51.0894 16.2536 50.9409 15.8841 50.9409 15.4777L51.8503 4.26394L39.4725 3.43261C39.0642 3.39567 38.6931 3.21093 38.4333 2.91534C38.1735 2.61976 38.0436 2.21333 38.0621 1.82538C38.0992 1.41895 38.2848 1.04947 38.5817 0.790833C38.8972 0.532197 39.2869 0.402879 39.6952 0.421353L53.6132 1.40048C53.8173 1.40048 54.0029 1.4559 54.1699 1.54827C54.337 1.64064 54.4854 1.76996 54.5968 1.91775C54.7452 2.04707 54.8566 2.21333 54.9122 2.39807C54.9865 2.58281 55.005 2.78603 54.9679 2.97076L53.9844 15.6809C53.9472 16.0504 53.7617 16.4014 53.4833 16.6415C53.205 16.9002 52.8338 17.0295 52.4627 17.0295V17.0664Z" fill="url(#paint4_linear_3964_15520)"/>
</g>
<defs>
<linearGradient id="paint0_linear_3964_15520" x1="27.8871" y1="31.8157" x2="27.776" y2="54.4576" gradientUnits="userSpaceOnUse">
<stop stop-color="#7EB3D6"/>
<stop offset="1" stop-color="#40789D"/>
</linearGradient>
<linearGradient id="paint1_linear_3964_15520" x1="47.8644" y1="19.9651" x2="47.6081" y2="54.4748" gradientUnits="userSpaceOnUse">
<stop stop-color="#7EB3D6"/>
<stop offset="1" stop-color="#40789D"/>
</linearGradient>
<linearGradient id="paint2_linear_3964_15520" x1="7.89175" y1="39.1526" x2="7.84135" y2="54.4579" gradientUnits="userSpaceOnUse">
<stop stop-color="#7EB3D6"/>
<stop offset="1" stop-color="#40789D"/>
</linearGradient>
<linearGradient id="paint3_linear_3964_15520" x1="27.7096" y1="1.67823" x2="27.6844" y2="23.4587" gradientUnits="userSpaceOnUse">
<stop stop-color="#7EB3D6"/>
<stop offset="1" stop-color="#40789D"/>
</linearGradient>
<linearGradient id="paint4_linear_3964_15520" x1="46.576" y1="0.329145" x2="46.529" y2="17.0664" gradientUnits="userSpaceOnUse">
<stop stop-color="#7EB3D6"/>
<stop offset="1" stop-color="#40789D"/>
</linearGradient>
<clipPath id="clip0_3964_15520">
<rect width="54.299" height="54.018" fill="white" transform="translate(0.6875 0.439941)"/>
</clipPath>
</defs>
</svg>
