<svg width="19" height="16" viewBox="0 0 19 16" fill="none" xmlns="http://www.w3.org/2000/svg">
<path d="M18.7454 8.34499L12.0285 15.4665C11.9071 15.6283 11.7048 15.6688 11.543 15.6688C11.3811 15.6688 11.2193 15.6283 11.0979 15.5069C10.8147 15.2642 10.8147 14.8595 11.0574 14.6167L16.7222 8.5473H1.46772C1.10355 8.5473 0.820312 8.26407 0.820312 7.94036C0.820312 7.61666 1.10355 7.25249 1.46772 7.25249H16.7222L11.0574 1.22354C10.8147 0.980753 10.8147 0.576127 11.0979 0.333353C11.3811 0.0905765 11.7858 0.0905764 12.0285 0.373816L18.7454 7.49527C18.9881 7.73805 18.9881 8.10221 18.7454 8.34499Z" fill="#747B88"/>
</svg>
