<svg width="1519" height="94" viewBox="0 0 1519 94" fill="none" xmlns="http://www.w3.org/2000/svg">
<rect y="2" width="1519" height="12" fill="#6096B9"/>
<path fill-rule="evenodd" clip-rule="evenodd" d="M184 12C201.657 16.3617 214.778 32.6266 214.778 52.017C214.778 74.7478 232.81 93.1835 255.041 93.1835H1184.2C1206.44 93.1835 1224.47 74.7478 1224.47 52.017C1224.47 32.6266 1237.59 16.3617 1255.25 12H184Z" fill="#6096B9"/>
<path d="M380.544 65.928V77H379.088V68.744L375.408 77H374.384L370.688 68.728V77H369.232V65.928H370.8L374.896 75.08L378.992 65.928H380.544ZM383.765 66.808C383.488 66.808 383.253 66.712 383.061 66.52C382.869 66.328 382.773 66.0933 382.773 65.816C382.773 65.5387 382.869 65.304 383.061 65.112C383.253 64.92 383.488 64.824 383.765 64.824C384.032 64.824 384.256 64.92 384.437 65.112C384.629 65.304 384.725 65.5387 384.725 65.816C384.725 66.0933 384.629 66.328 384.437 66.52C384.256 66.712 384.032 66.808 383.765 66.808ZM384.469 68.232V77H383.013V68.232H384.469ZM390.055 77.144C389.383 77.144 388.78 77.032 388.247 76.808C387.713 76.5733 387.292 76.2533 386.983 75.848C386.673 75.432 386.503 74.9573 386.471 74.424H387.975C388.017 74.8613 388.22 75.2187 388.583 75.496C388.956 75.7733 389.441 75.912 390.039 75.912C390.593 75.912 391.031 75.7893 391.351 75.544C391.671 75.2987 391.831 74.9893 391.831 74.616C391.831 74.232 391.66 73.9493 391.319 73.768C390.977 73.576 390.449 73.3893 389.735 73.208C389.084 73.0373 388.551 72.8667 388.135 72.696C387.729 72.5147 387.377 72.2533 387.079 71.912C386.791 71.56 386.647 71.1013 386.647 70.536C386.647 70.088 386.78 69.6773 387.047 69.304C387.313 68.9307 387.692 68.6373 388.183 68.424C388.673 68.2 389.233 68.088 389.863 68.088C390.833 68.088 391.617 68.3333 392.215 68.824C392.812 69.3147 393.132 69.9867 393.175 70.84H391.719C391.687 70.3813 391.5 70.0133 391.159 69.736C390.828 69.4587 390.38 69.32 389.815 69.32C389.292 69.32 388.876 69.432 388.567 69.656C388.257 69.88 388.103 70.1733 388.103 70.536C388.103 70.824 388.193 71.064 388.375 71.256C388.567 71.4373 388.801 71.5867 389.079 71.704C389.367 71.8107 389.761 71.9333 390.263 72.072C390.892 72.2427 391.404 72.4133 391.799 72.584C392.193 72.744 392.529 72.9893 392.807 73.32C393.095 73.6507 393.244 74.0827 393.255 74.616C393.255 75.096 393.121 75.528 392.855 75.912C392.588 76.296 392.209 76.6 391.719 76.824C391.239 77.0373 390.684 77.144 390.055 77.144ZM401.032 67.032V70.76H405.096V71.96H401.032V75.8H405.576V77H399.576V65.832H405.576V67.032H401.032ZM411.043 75.656L413.763 68.232H415.315L411.875 77H410.179L406.739 68.232H408.307L411.043 75.656ZM424.748 72.28C424.748 72.5573 424.732 72.8507 424.7 73.16H417.692C417.745 74.024 418.038 74.7013 418.572 75.192C419.116 75.672 419.772 75.912 420.54 75.912C421.169 75.912 421.692 75.768 422.108 75.48C422.534 75.1813 422.833 74.7867 423.004 74.296H424.572C424.337 75.1387 423.868 75.8267 423.164 76.36C422.46 76.8827 421.585 77.144 420.54 77.144C419.708 77.144 418.961 76.9573 418.3 76.584C417.649 76.2107 417.137 75.6827 416.764 75C416.39 74.3067 416.204 73.5067 416.204 72.6C416.204 71.6933 416.385 70.8987 416.748 70.216C417.11 69.5333 417.617 69.0107 418.268 68.648C418.929 68.2747 419.686 68.088 420.54 68.088C421.372 68.088 422.108 68.2693 422.748 68.632C423.388 68.9947 423.878 69.496 424.22 70.136C424.572 70.7653 424.748 71.48 424.748 72.28ZM423.244 71.976C423.244 71.4213 423.121 70.9467 422.876 70.552C422.63 70.1467 422.294 69.8427 421.868 69.64C421.452 69.4267 420.988 69.32 420.476 69.32C419.74 69.32 419.11 69.5547 418.588 70.024C418.076 70.4933 417.782 71.144 417.708 71.976H423.244ZM430.942 68.072C432.008 68.072 432.872 68.3973 433.534 69.048C434.195 69.688 434.526 70.616 434.526 71.832V77H433.086V72.04C433.086 71.1653 432.867 70.4987 432.43 70.04C431.992 69.5707 431.395 69.336 430.638 69.336C429.87 69.336 429.256 69.576 428.798 70.056C428.35 70.536 428.126 71.2347 428.126 72.152V77H426.67V68.232H428.126V69.48C428.414 69.032 428.803 68.6853 429.294 68.44C429.795 68.1947 430.344 68.072 430.942 68.072ZM438.68 69.432V74.6C438.68 75.0267 438.771 75.3307 438.952 75.512C439.133 75.6827 439.448 75.768 439.896 75.768H440.968V77H439.656C438.845 77 438.237 76.8133 437.832 76.44C437.427 76.0667 437.224 75.4533 437.224 74.6V69.432H436.088V68.232H437.224V66.024H438.68V68.232H440.968V69.432H438.68ZM446.556 77.144C445.735 77.144 444.988 76.9573 444.316 76.584C443.655 76.2107 443.132 75.6827 442.748 75C442.375 74.3067 442.188 73.5067 442.188 72.6C442.188 71.704 442.38 70.9147 442.764 70.232C443.159 69.5387 443.692 69.0107 444.364 68.648C445.036 68.2747 445.788 68.088 446.62 68.088C447.452 68.088 448.204 68.2747 448.876 68.648C449.548 69.0107 450.076 69.5333 450.46 70.216C450.855 70.8987 451.052 71.6933 451.052 72.6C451.052 73.5067 450.849 74.3067 450.444 75C450.049 75.6827 449.511 76.2107 448.828 76.584C448.145 76.9573 447.388 77.144 446.556 77.144ZM446.556 75.864C447.079 75.864 447.569 75.7413 448.028 75.496C448.487 75.2507 448.855 74.8827 449.132 74.392C449.42 73.9013 449.564 73.304 449.564 72.6C449.564 71.896 449.425 71.2987 449.148 70.808C448.871 70.3173 448.508 69.9547 448.06 69.72C447.612 69.4747 447.127 69.352 446.604 69.352C446.071 69.352 445.58 69.4747 445.132 69.72C444.695 69.9547 444.343 70.3173 444.076 70.808C443.809 71.2987 443.676 71.896 443.676 72.6C443.676 73.3147 443.804 73.9173 444.06 74.408C444.327 74.8987 444.679 75.2667 445.116 75.512C445.553 75.7467 446.033 75.864 446.556 75.864ZM456.07 77.144C455.398 77.144 454.796 77.032 454.262 76.808C453.729 76.5733 453.308 76.2533 452.998 75.848C452.689 75.432 452.518 74.9573 452.486 74.424H453.99C454.033 74.8613 454.236 75.2187 454.598 75.496C454.972 75.7733 455.457 75.912 456.054 75.912C456.609 75.912 457.046 75.7893 457.366 75.544C457.686 75.2987 457.846 74.9893 457.846 74.616C457.846 74.232 457.676 73.9493 457.334 73.768C456.993 73.576 456.465 73.3893 455.75 73.208C455.1 73.0373 454.566 72.8667 454.15 72.696C453.745 72.5147 453.393 72.2533 453.094 71.912C452.806 71.56 452.662 71.1013 452.662 70.536C452.662 70.088 452.796 69.6773 453.062 69.304C453.329 68.9307 453.708 68.6373 454.198 68.424C454.689 68.2 455.249 68.088 455.878 68.088C456.849 68.088 457.633 68.3333 458.23 68.824C458.828 69.3147 459.148 69.9867 459.19 70.84H457.734C457.702 70.3813 457.516 70.0133 457.174 69.736C456.844 69.4587 456.396 69.32 455.83 69.32C455.308 69.32 454.892 69.432 454.582 69.656C454.273 69.88 454.118 70.1733 454.118 70.536C454.118 70.824 454.209 71.064 454.39 71.256C454.582 71.4373 454.817 71.5867 455.094 71.704C455.382 71.8107 455.777 71.9333 456.278 72.072C456.908 72.2427 457.42 72.4133 457.814 72.584C458.209 72.744 458.545 72.9893 458.822 73.32C459.11 73.6507 459.26 74.0827 459.27 74.616C459.27 75.096 459.137 75.528 458.87 75.912C458.604 76.296 458.225 76.6 457.734 76.824C457.254 77.0373 456.7 77.144 456.07 77.144Z" fill="white"/>
<path d="M410.525 43.4021L411.094 45.5199C411.196 45.9018 410.909 46.2771 410.513 46.2771H407.706C407.311 46.2771 407.023 45.9019 407.126 45.5199L407.695 43.4021H410.525Z" fill="white"/>
<path d="M409.11 43.4021C413.796 43.4021 417.595 38.9748 417.595 33.5135C417.595 28.0522 413.796 23.625 409.11 23.625C404.424 23.625 400.625 28.0522 400.625 33.5135C400.625 38.9748 404.424 43.4021 409.11 43.4021Z" fill="white"/>
<path d="M424.305 46.1011L424.874 48.2189C424.977 48.6008 424.689 48.9761 424.293 48.9761H421.487C421.091 48.9761 420.803 48.6008 420.906 48.2189L421.475 46.1011H424.305Z" fill="white"/>
<path d="M430.546 30.5104C430.378 30.2092 429.997 30.1018 429.696 30.2705C429.394 30.4391 429.287 30.82 429.456 31.1212C430.302 32.6334 430.75 34.3941 430.75 36.2128C430.75 41.3208 427.224 45.4764 422.89 45.4764C418.556 45.4764 415.03 41.3208 415.03 36.2128C415.03 31.1049 418.556 26.9493 422.89 26.9493C423.861 26.9493 424.809 27.1559 425.708 27.5632C426.022 27.7057 426.392 27.5664 426.535 27.2521C426.678 26.9377 426.538 26.5673 426.224 26.4248C425.162 25.9434 424.041 25.6993 422.89 25.6993C420.637 25.6993 418.573 26.6484 416.981 28.2176C416.271 26.8129 415.288 25.6134 414.1 24.7147C412.618 23.5929 410.892 23 409.11 23C406.658 23 404.359 24.106 402.636 26.1143C400.936 28.0952 400 30.723 400 33.5135C400 36.3041 400.936 38.9318 402.636 40.9128C403.843 42.3193 405.332 43.2825 406.959 43.7339L406.522 45.3578C406.422 45.729 406.499 46.117 406.733 46.4221C406.967 46.7271 407.322 46.9021 407.706 46.9021H408.694C408.885 47.4886 408.838 48.1351 408.554 48.6917C408.03 49.7151 408.03 50.937 408.554 51.9604C408.895 52.6272 408.895 53.4234 408.554 54.0902C408.396 54.3976 408.518 54.7741 408.825 54.9314C408.916 54.978 409.014 55.0001 409.109 55.0001C409.337 55.0001 409.556 54.8758 409.666 54.6597C410.19 53.6363 410.19 52.4144 409.666 51.391C409.325 50.7242 409.325 49.928 409.666 49.2611C410.041 48.5279 410.146 47.6931 409.984 46.9021H410.513C410.898 46.9021 411.252 46.7272 411.486 46.4221C411.72 46.117 411.797 45.7291 411.698 45.3578L411.261 43.7349C412.646 43.3513 413.93 42.5969 415.025 41.5128C416.258 43.94 418.31 45.7485 420.74 46.4298L420.302 48.0571C420.203 48.4283 420.28 48.8163 420.514 49.1214C420.748 49.4264 421.102 49.6014 421.487 49.6014H422.474C422.665 50.1879 422.618 50.8344 422.334 51.391C421.81 52.4144 421.81 53.6363 422.334 54.6597C422.444 54.8758 422.663 55.0001 422.891 55.0001C422.986 55.0001 423.084 54.978 423.175 54.9314C423.482 54.7741 423.604 54.3976 423.446 54.0902C423.105 53.4234 423.105 52.6272 423.446 51.9604C423.822 51.2272 423.927 50.3923 423.764 49.6014H424.294C424.678 49.6014 425.033 49.4264 425.267 49.1213C425.501 48.8163 425.578 48.4283 425.478 48.057L425.041 46.4332C426.668 45.9818 428.157 45.0186 429.364 43.6121C431.064 41.6311 432 39.0034 432 36.2128C432 34.1807 431.497 32.2089 430.546 30.5104ZM410.482 45.6521H407.737L408.188 43.9744C408.493 44.0093 408.8 44.0271 409.11 44.0271C409.42 44.0271 409.727 44.0095 410.031 43.9746L410.482 45.6521ZM409.11 42.7771C404.776 42.7771 401.25 38.6215 401.25 33.5136C401.25 28.4056 404.776 24.25 409.11 24.25C412.031 24.25 414.734 26.1954 416.082 29.2357C414.651 31.0933 413.78 33.5378 413.78 36.2128C413.78 37.6495 414.032 39.0197 414.486 40.2682C413.023 41.8888 411.127 42.7771 409.11 42.7771ZM424.262 48.3514H421.518L421.969 46.6729C422.272 46.7083 422.579 46.7264 422.89 46.7264C423.2 46.7264 423.507 46.7086 423.812 46.6736L424.262 48.3514Z" fill="white"/>
<path d="M428.289 29.2094C428.454 29.2094 428.615 29.1425 428.731 29.0262C428.847 28.91 428.914 28.7487 428.914 28.5844C428.914 28.42 428.847 28.2587 428.731 28.1425C428.615 28.0262 428.454 27.9594 428.289 27.9594C428.125 27.9594 427.964 28.0262 427.847 28.1425C427.731 28.2587 427.664 28.4194 427.664 28.5844C427.664 28.7487 427.731 28.91 427.847 29.0262C427.964 29.1425 428.125 29.2094 428.289 29.2094Z" fill="white"/>
<path d="M513.688 65.848V77H512.232V65.848H513.688ZM520.442 68.072C521.508 68.072 522.372 68.3973 523.034 69.048C523.695 69.688 524.026 70.616 524.026 71.832V77H522.586V72.04C522.586 71.1653 522.367 70.4987 521.93 70.04C521.492 69.5707 520.895 69.336 520.138 69.336C519.37 69.336 518.756 69.576 518.298 70.056C517.85 70.536 517.626 71.2347 517.626 72.152V77H516.17V68.232H517.626V69.48C517.914 69.032 518.303 68.6853 518.794 68.44C519.295 68.1947 519.844 68.072 520.442 68.072ZM529.668 75.656L532.388 68.232H533.94L530.5 77H528.804L525.364 68.232H526.932L529.668 75.656ZM536.125 66.808C535.847 66.808 535.613 66.712 535.421 66.52C535.229 66.328 535.133 66.0933 535.133 65.816C535.133 65.5387 535.229 65.304 535.421 65.112C535.613 64.92 535.847 64.824 536.125 64.824C536.391 64.824 536.615 64.92 536.797 65.112C536.989 65.304 537.085 65.5387 537.085 65.816C537.085 66.0933 536.989 66.328 536.797 66.52C536.615 66.712 536.391 66.808 536.125 66.808ZM536.829 68.232V77H535.373V68.232H536.829ZM541.086 69.432V74.6C541.086 75.0267 541.177 75.3307 541.358 75.512C541.539 75.6827 541.854 75.768 542.302 75.768H543.374V77H542.062C541.251 77 540.643 76.8133 540.238 76.44C539.833 76.0667 539.63 75.4533 539.63 74.6V69.432H538.494V68.232H539.63V66.024H541.086V68.232H543.374V69.432H541.086ZM544.594 72.584C544.594 71.688 544.776 70.904 545.138 70.232C545.501 69.5493 545.997 69.0213 546.626 68.648C547.266 68.2747 547.976 68.088 548.754 68.088C549.522 68.088 550.189 68.2533 550.754 68.584C551.32 68.9147 551.741 69.3307 552.018 69.832V68.232H553.49V77H552.018V75.368C551.73 75.88 551.298 76.3067 550.722 76.648C550.157 76.9787 549.496 77.144 548.738 77.144C547.96 77.144 547.256 76.952 546.626 76.568C545.997 76.184 545.501 75.6453 545.138 74.952C544.776 74.2587 544.594 73.4693 544.594 72.584ZM552.018 72.6C552.018 71.9387 551.885 71.3627 551.618 70.872C551.352 70.3813 550.989 70.008 550.53 69.752C550.082 69.4853 549.586 69.352 549.042 69.352C548.498 69.352 548.002 69.48 547.554 69.736C547.106 69.992 546.749 70.3653 546.482 70.856C546.216 71.3467 546.082 71.9227 546.082 72.584C546.082 73.256 546.216 73.8427 546.482 74.344C546.749 74.8347 547.106 75.2133 547.554 75.48C548.002 75.736 548.498 75.864 549.042 75.864C549.586 75.864 550.082 75.736 550.53 75.48C550.989 75.2133 551.352 74.8347 551.618 74.344C551.885 73.8427 552.018 73.2613 552.018 72.6ZM555.407 72.584C555.407 71.688 555.588 70.904 555.951 70.232C556.313 69.5493 556.809 69.0213 557.439 68.648C558.079 68.2747 558.793 68.088 559.583 68.088C560.265 68.088 560.9 68.248 561.487 68.568C562.073 68.8773 562.521 69.288 562.831 69.8V65.16H564.303V77H562.831V75.352C562.543 75.8747 562.116 76.3067 561.551 76.648C560.985 76.9787 560.324 77.144 559.567 77.144C558.788 77.144 558.079 76.952 557.439 76.568C556.809 76.184 556.313 75.6453 555.951 74.952C555.588 74.2587 555.407 73.4693 555.407 72.584ZM562.831 72.6C562.831 71.9387 562.697 71.3627 562.431 70.872C562.164 70.3813 561.801 70.008 561.343 69.752C560.895 69.4853 560.399 69.352 559.855 69.352C559.311 69.352 558.815 69.48 558.367 69.736C557.919 69.992 557.561 70.3653 557.295 70.856C557.028 71.3467 556.895 71.9227 556.895 72.584C556.895 73.256 557.028 73.8427 557.295 74.344C557.561 74.8347 557.919 75.2133 558.367 75.48C558.815 75.736 559.311 75.864 559.855 75.864C560.399 75.864 560.895 75.736 561.343 75.48C561.801 75.2133 562.164 74.8347 562.431 74.344C562.697 73.8427 562.831 73.2613 562.831 72.6ZM570.587 77.144C569.766 77.144 569.019 76.9573 568.347 76.584C567.686 76.2107 567.163 75.6827 566.779 75C566.406 74.3067 566.219 73.5067 566.219 72.6C566.219 71.704 566.411 70.9147 566.795 70.232C567.19 69.5387 567.723 69.0107 568.395 68.648C569.067 68.2747 569.819 68.088 570.651 68.088C571.483 68.088 572.235 68.2747 572.907 68.648C573.579 69.0107 574.107 69.5333 574.491 70.216C574.886 70.8987 575.083 71.6933 575.083 72.6C575.083 73.5067 574.881 74.3067 574.475 75C574.081 75.6827 573.542 76.2107 572.859 76.584C572.177 76.9573 571.419 77.144 570.587 77.144ZM570.587 75.864C571.11 75.864 571.601 75.7413 572.059 75.496C572.518 75.2507 572.886 74.8827 573.163 74.392C573.451 73.9013 573.595 73.304 573.595 72.6C573.595 71.896 573.457 71.2987 573.179 70.808C572.902 70.3173 572.539 69.9547 572.091 69.72C571.643 69.4747 571.158 69.352 570.635 69.352C570.102 69.352 569.611 69.4747 569.163 69.72C568.726 69.9547 568.374 70.3173 568.107 70.808C567.841 71.2987 567.707 71.896 567.707 72.6C567.707 73.3147 567.835 73.9173 568.091 74.408C568.358 74.8987 568.71 75.2667 569.147 75.512C569.585 75.7467 570.065 75.864 570.587 75.864ZM580.102 77.144C579.43 77.144 578.827 77.032 578.294 76.808C577.76 76.5733 577.339 76.2533 577.03 75.848C576.72 75.432 576.55 74.9573 576.518 74.424H578.022C578.064 74.8613 578.267 75.2187 578.63 75.496C579.003 75.7733 579.488 75.912 580.086 75.912C580.64 75.912 581.078 75.7893 581.398 75.544C581.718 75.2987 581.878 74.9893 581.878 74.616C581.878 74.232 581.707 73.9493 581.366 73.768C581.024 73.576 580.496 73.3893 579.782 73.208C579.131 73.0373 578.598 72.8667 578.182 72.696C577.776 72.5147 577.424 72.2533 577.126 71.912C576.838 71.56 576.694 71.1013 576.694 70.536C576.694 70.088 576.827 69.6773 577.094 69.304C577.36 68.9307 577.739 68.6373 578.23 68.424C578.72 68.2 579.28 68.088 579.91 68.088C580.88 68.088 581.664 68.3333 582.262 68.824C582.859 69.3147 583.179 69.9867 583.222 70.84H581.766C581.734 70.3813 581.547 70.0133 581.206 69.736C580.875 69.4587 580.427 69.32 579.862 69.32C579.339 69.32 578.923 69.432 578.614 69.656C578.304 69.88 578.15 70.1733 578.15 70.536C578.15 70.824 578.24 71.064 578.422 71.256C578.614 71.4373 578.848 71.5867 579.126 71.704C579.414 71.8107 579.808 71.9333 580.31 72.072C580.939 72.2427 581.451 72.4133 581.846 72.584C582.24 72.744 582.576 72.9893 582.854 73.32C583.142 73.6507 583.291 74.0827 583.302 74.616C583.302 75.096 583.168 75.528 582.902 75.912C582.635 76.296 582.256 76.6 581.766 76.824C581.286 77.0373 580.731 77.144 580.102 77.144Z" fill="white"/>
<path d="M549.875 38C550.87 38 551.823 38.3951 552.527 39.0984C553.23 39.8016 553.625 40.7554 553.625 41.75V44.5625C553.625 48.4137 549.71 51.125 543.312 51.125C536.915 51.125 533 48.4137 533 44.5625V41.75C533 40.7554 533.395 39.8016 534.098 39.0984C534.802 38.3951 535.755 38 536.75 38H549.875ZM559.25 38C560.245 38 561.198 38.3951 561.902 39.0984C562.605 39.8016 563 40.7554 563 41.75V42.6875C563 46.6044 560.06 49.25 554.562 49.25C554.298 49.25 554.038 49.2444 553.786 49.2312C554.797 48.0556 555.395 46.6325 555.487 45.0106L555.5 44.5625V41.75C555.5 40.4525 555.061 39.2563 554.323 38.3056L554.066 38H559.25ZM543.312 23C544.174 23 545.028 23.1697 545.824 23.4995C546.62 23.8293 547.344 24.3127 547.953 24.9221C548.562 25.5315 549.046 26.2549 549.375 27.0511C549.705 27.8473 549.875 28.7007 549.875 29.5625C549.875 30.4243 549.705 31.2777 549.375 32.0739C549.046 32.8701 548.562 33.5935 547.953 34.2029C547.344 34.8123 546.62 35.2957 545.824 35.6255C545.028 35.9553 544.174 36.125 543.312 36.125C541.572 36.125 539.903 35.4336 538.672 34.2029C537.441 32.9722 536.75 31.303 536.75 29.5625C536.75 27.822 537.441 26.1528 538.672 24.9221C539.903 23.6914 541.572 23 543.312 23ZM556.438 26.75C557.681 26.75 558.873 27.2439 559.752 28.1229C560.631 29.002 561.125 30.1943 561.125 31.4375C561.125 32.6807 560.631 33.873 559.752 34.7521C558.873 35.6311 557.681 36.125 556.438 36.125C555.194 36.125 554.002 35.6311 553.123 34.7521C552.244 33.873 551.75 32.6807 551.75 31.4375C551.75 30.1943 552.244 29.002 553.123 28.1229C554.002 27.2439 555.194 26.75 556.438 26.75Z" fill="white"/>
<path d="M647.544 65.3338V76.4058H646.088V68.1498L642.408 76.4058H641.384L637.688 68.1338V76.4058H636.232V65.3338H637.8L641.896 74.4858L645.992 65.3338H647.544ZM658.013 71.6858C658.013 71.9631 657.997 72.2564 657.965 72.5658H650.957C651.011 73.4298 651.304 74.1071 651.837 74.5978C652.381 75.0778 653.037 75.3178 653.805 75.3178C654.435 75.3178 654.957 75.1738 655.373 74.8858C655.8 74.5871 656.099 74.1924 656.269 73.7018H657.837C657.603 74.5444 657.133 75.2324 656.429 75.7658C655.725 76.2884 654.851 76.5498 653.805 76.5498C652.973 76.5498 652.227 76.3631 651.565 75.9898C650.915 75.6164 650.403 75.0884 650.029 74.4058C649.656 73.7124 649.469 72.9124 649.469 72.0058C649.469 71.0991 649.651 70.3044 650.013 69.6218C650.376 68.9391 650.883 68.4164 651.533 68.0538C652.195 67.6804 652.952 67.4938 653.805 67.4938C654.637 67.4938 655.373 67.6751 656.013 68.0378C656.653 68.4004 657.144 68.9018 657.485 69.5418C657.837 70.1711 658.013 70.8858 658.013 71.6858ZM656.509 71.3818C656.509 70.8271 656.387 70.3524 656.141 69.9578C655.896 69.5524 655.56 69.2484 655.133 69.0458C654.717 68.8324 654.253 68.7258 653.741 68.7258C653.005 68.7258 652.376 68.9604 651.853 69.4298C651.341 69.8991 651.048 70.5498 650.973 71.3818H656.509ZM663.039 76.5498C662.367 76.5498 661.764 76.4378 661.231 76.2138C660.698 75.9791 660.276 75.6591 659.967 75.2538C659.658 74.8378 659.487 74.3631 659.455 73.8298H660.959C661.002 74.2671 661.204 74.6244 661.567 74.9018C661.94 75.1791 662.426 75.3178 663.023 75.3178C663.578 75.3178 664.015 75.1951 664.335 74.9498C664.655 74.7044 664.815 74.3951 664.815 74.0218C664.815 73.6378 664.644 73.3551 664.303 73.1738C663.962 72.9818 663.434 72.7951 662.719 72.6138C662.068 72.4431 661.535 72.2724 661.119 72.1018C660.714 71.9204 660.362 71.6591 660.063 71.3178C659.775 70.9658 659.631 70.5071 659.631 69.9418C659.631 69.4938 659.764 69.0831 660.031 68.7098C660.298 68.3364 660.676 68.0431 661.167 67.8298C661.658 67.6058 662.218 67.4938 662.847 67.4938C663.818 67.4938 664.602 67.7391 665.199 68.2298C665.796 68.7204 666.116 69.3924 666.159 70.2458H664.703C664.671 69.7871 664.484 69.4191 664.143 69.1418C663.812 68.8644 663.364 68.7258 662.799 68.7258C662.276 68.7258 661.86 68.8378 661.551 69.0618C661.242 69.2858 661.087 69.5791 661.087 69.9418C661.087 70.2298 661.178 70.4698 661.359 70.6618C661.551 70.8431 661.786 70.9924 662.063 71.1098C662.351 71.2164 662.746 71.3391 663.247 71.4778C663.876 71.6484 664.388 71.8191 664.783 71.9898C665.178 72.1498 665.514 72.3951 665.791 72.7258C666.079 73.0564 666.228 73.4884 666.239 74.0218C666.239 74.5018 666.106 74.9338 665.839 75.3178C665.572 75.7018 665.194 76.0058 664.703 76.2298C664.223 76.4431 663.668 76.5498 663.039 76.5498ZM667.751 71.9898C667.751 71.0938 667.932 70.3098 668.295 69.6378C668.657 68.9551 669.153 68.4271 669.783 68.0538C670.423 67.6804 671.132 67.4938 671.911 67.4938C672.679 67.4938 673.345 67.6591 673.911 67.9898C674.476 68.3204 674.897 68.7364 675.175 69.2378V67.6378H676.647V76.4058H675.175V74.7738C674.887 75.2858 674.455 75.7124 673.879 76.0538C673.313 76.3844 672.652 76.5498 671.895 76.5498C671.116 76.5498 670.412 76.3578 669.783 75.9738C669.153 75.5898 668.657 75.0511 668.295 74.3578C667.932 73.6644 667.751 72.8751 667.751 71.9898ZM675.175 72.0058C675.175 71.3444 675.041 70.7684 674.775 70.2778C674.508 69.7871 674.145 69.4138 673.687 69.1578C673.239 68.8911 672.743 68.7578 672.199 68.7578C671.655 68.7578 671.159 68.8858 670.711 69.1418C670.263 69.3978 669.905 69.7711 669.639 70.2618C669.372 70.7524 669.239 71.3284 669.239 71.9898C669.239 72.6618 669.372 73.2484 669.639 73.7498C669.905 74.2404 670.263 74.6191 670.711 74.8858C671.159 75.1418 671.655 75.2698 672.199 75.2698C672.743 75.2698 673.239 75.1418 673.687 74.8858C674.145 74.6191 674.508 74.2404 674.775 73.7498C675.041 73.2484 675.175 72.6671 675.175 72.0058ZM682.211 76.5498C681.539 76.5498 680.936 76.4378 680.403 76.2138C679.87 75.9791 679.448 75.6591 679.139 75.2538C678.83 74.8378 678.659 74.3631 678.627 73.8298H680.131C680.174 74.2671 680.376 74.6244 680.739 74.9018C681.112 75.1791 681.598 75.3178 682.195 75.3178C682.75 75.3178 683.187 75.1951 683.507 74.9498C683.827 74.7044 683.987 74.3951 683.987 74.0218C683.987 73.6378 683.816 73.3551 683.475 73.1738C683.134 72.9818 682.606 72.7951 681.891 72.6138C681.24 72.4431 680.707 72.2724 680.291 72.1018C679.886 71.9204 679.534 71.6591 679.235 71.3178C678.947 70.9658 678.803 70.5071 678.803 69.9418C678.803 69.4938 678.936 69.0831 679.203 68.7098C679.47 68.3364 679.848 68.0431 680.339 67.8298C680.83 67.6058 681.39 67.4938 682.019 67.4938C682.99 67.4938 683.774 67.7391 684.371 68.2298C684.968 68.7204 685.288 69.3924 685.331 70.2458H683.875C683.843 69.7871 683.656 69.4191 683.315 69.1418C682.984 68.8644 682.536 68.7258 681.971 68.7258C681.448 68.7258 681.032 68.8378 680.723 69.0618C680.414 69.2858 680.259 69.5791 680.259 69.9418C680.259 70.2298 680.35 70.4698 680.531 70.6618C680.723 70.8431 680.958 70.9924 681.235 71.1098C681.523 71.2164 681.918 71.3391 682.419 71.4778C683.048 71.6484 683.56 71.8191 683.955 71.9898C684.35 72.1498 684.686 72.3951 684.963 72.7258C685.251 73.0564 685.4 73.4884 685.411 74.0218C685.411 74.5018 685.278 74.9338 685.011 75.3178C684.744 75.7018 684.366 76.0058 683.875 76.2298C683.395 76.4431 682.84 76.5498 682.211 76.5498Z" fill="white"/>
<path d="M670.267 39.4037C669.996 34.2101 665.675 30.1909 660.678 30.4818C655.48 30.7856 651.504 35.0024 651.736 39.9629C651.979 45.1584 656.261 49.1831 661.284 48.9333C666.498 48.6724 670.526 44.3978 670.267 39.4037Z" fill="white"/>
<path d="M647.435 35.7818C648.174 36.2988 648.956 36.7504 649.774 37.1315C649.982 37.2303 650.523 37.0551 650.643 36.8482C651.592 35.3214 652.489 33.7592 653.368 32.1877C653.475 32.0013 653.477 31.5259 653.368 31.4588C652.125 30.7132 650.985 29.7345 649.682 29.645C647.997 29.6282 646.655 30.5957 646.181 31.9938C645.946 32.675 645.942 33.414 646.168 34.0979C646.395 34.7819 646.84 35.3733 647.435 35.7818Z" fill="white"/>
<path d="M674.384 43.4844C673.735 43.0612 673.027 42.7238 672.37 42.3118C671.885 42.008 671.58 42.1254 671.308 42.5896C670.428 44.1232 669.539 45.6518 668.64 47.1755C668.384 47.6117 668.436 47.9211 668.895 48.1672C669.632 48.5699 670.333 49.0452 671.091 49.4032C673.405 50.4974 676.015 48.8681 676 46.1651C675.966 45.123 675.416 44.1574 674.384 43.4844Z" fill="white"/>
<path d="M650.654 42.5671C650.525 42.3584 649.993 42.1794 649.785 42.2763C648.967 42.658 648.184 43.1083 647.443 43.6223C646.847 44.0302 646.4 44.6204 646.171 45.3036C645.942 45.9868 645.943 46.7257 646.174 47.4084C646.636 48.8028 647.967 49.7647 649.718 49.7591C650.991 49.7032 652.12 48.6965 653.365 47.9621C653.479 47.895 653.481 47.4252 653.365 47.2313C652.496 45.6598 651.601 44.0958 650.654 42.5671Z" fill="white"/>
<path d="M671.295 36.8093C671.522 37.2007 671.778 37.4505 672.267 37.1541C673.016 36.703 673.798 36.319 674.513 35.8287C675.502 35.1557 675.996 34.1826 675.996 33.3456C675.97 30.4897 673.308 28.9052 671.016 30.033C670.292 30.389 669.616 30.842 668.908 31.2335C668.462 31.4777 668.367 31.7741 668.631 32.2215C669.528 33.7446 670.409 35.2788 671.295 36.8093Z" fill="white"/>
<path d="M658.433 29.38C659.273 29.3651 660.118 29.38 660.958 29.38C661.831 29.38 662.703 29.367 663.58 29.38C664.16 29.3912 664.445 29.1712 664.42 28.5598C664.388 27.7526 664.437 26.9436 664.386 26.1364C664.326 25.2848 663.944 24.4876 663.316 23.9056C662.689 23.3236 661.864 23 661.006 23C660.149 23 659.323 23.3236 658.696 23.9056C658.069 24.4876 657.686 25.2848 657.626 26.1364C657.575 26.9417 657.626 27.7507 657.59 28.5598C657.562 29.1787 657.856 29.3912 658.433 29.38Z" fill="white"/>
<path d="M663.572 50.0333C662.732 50.0501 661.887 50.0333 661.047 50.0333V50.0221C660.174 50.0221 659.302 50.0352 658.425 50.0221C657.843 50.0109 657.56 50.2346 657.585 50.8461C657.617 51.6514 657.57 52.4623 657.62 53.2695C657.681 54.1211 658.063 54.9182 658.69 55.5003C659.318 56.0823 660.143 56.4059 661.001 56.4059C661.858 56.4059 662.684 56.0823 663.311 55.5003C663.938 54.9182 664.321 54.1211 664.381 53.2695C664.431 52.4642 664.381 51.6551 664.415 50.8461C664.443 50.2309 664.149 50.0203 663.572 50.0333Z" fill="white"/>
<path d="M739.688 75.816H743.592V77H738.232V65.848H739.688V75.816ZM745.89 66.808C745.613 66.808 745.378 66.712 745.186 66.52C744.994 66.328 744.898 66.0933 744.898 65.816C744.898 65.5387 744.994 65.304 745.186 65.112C745.378 64.92 745.613 64.824 745.89 64.824C746.157 64.824 746.381 64.92 746.562 65.112C746.754 65.304 746.85 65.5387 746.85 65.816C746.85 66.0933 746.754 66.328 746.562 66.52C746.381 66.712 746.157 66.808 745.89 66.808ZM746.594 68.232V77H745.138V68.232H746.594ZM752.18 77.144C751.508 77.144 750.905 77.032 750.372 76.808C749.838 76.5733 749.417 76.2533 749.108 75.848C748.798 75.432 748.628 74.9573 748.596 74.424H750.1C750.142 74.8613 750.345 75.2187 750.708 75.496C751.081 75.7733 751.566 75.912 752.164 75.912C752.718 75.912 753.156 75.7893 753.476 75.544C753.796 75.2987 753.956 74.9893 753.956 74.616C753.956 74.232 753.785 73.9493 753.444 73.768C753.102 73.576 752.574 73.3893 751.86 73.208C751.209 73.0373 750.676 72.8667 750.26 72.696C749.854 72.5147 749.502 72.2533 749.204 71.912C748.916 71.56 748.772 71.1013 748.772 70.536C748.772 70.088 748.905 69.6773 749.172 69.304C749.438 68.9307 749.817 68.6373 750.308 68.424C750.798 68.2 751.358 68.088 751.988 68.088C752.958 68.088 753.742 68.3333 754.34 68.824C754.937 69.3147 755.257 69.9867 755.3 70.84H753.844C753.812 70.3813 753.625 70.0133 753.284 69.736C752.953 69.4587 752.505 69.32 751.94 69.32C751.417 69.32 751.001 69.432 750.692 69.656C750.382 69.88 750.228 70.1733 750.228 70.536C750.228 70.824 750.318 71.064 750.5 71.256C750.692 71.4373 750.926 71.5867 751.204 71.704C751.492 71.8107 751.886 71.9333 752.388 72.072C753.017 72.2427 753.529 72.4133 753.924 72.584C754.318 72.744 754.654 72.9893 754.932 73.32C755.22 73.6507 755.369 74.0827 755.38 74.616C755.38 75.096 755.246 75.528 754.98 75.912C754.713 76.296 754.334 76.6 753.844 76.824C753.364 77.0373 752.809 77.144 752.18 77.144ZM759.211 69.432V74.6C759.211 75.0267 759.302 75.3307 759.483 75.512C759.664 75.6827 759.979 75.768 760.427 75.768H761.499V77H760.187C759.376 77 758.768 76.8133 758.363 76.44C757.958 76.0667 757.755 75.4533 757.755 74.6V69.432H756.619V68.232H757.755V66.024H759.211V68.232H761.499V69.432H759.211ZM762.719 72.584C762.719 71.688 762.901 70.904 763.263 70.232C763.626 69.5493 764.122 69.0213 764.751 68.648C765.391 68.2747 766.101 68.088 766.879 68.088C767.647 68.088 768.314 68.2533 768.879 68.584C769.445 68.9147 769.866 69.3307 770.143 69.832V68.232H771.615V77H770.143V75.368C769.855 75.88 769.423 76.3067 768.847 76.648C768.282 76.9787 767.621 77.144 766.863 77.144C766.085 77.144 765.381 76.952 764.751 76.568C764.122 76.184 763.626 75.6453 763.263 74.952C762.901 74.2587 762.719 73.4693 762.719 72.584ZM770.143 72.6C770.143 71.9387 770.01 71.3627 769.743 70.872C769.477 70.3813 769.114 70.008 768.655 69.752C768.207 69.4853 767.711 69.352 767.167 69.352C766.623 69.352 766.127 69.48 765.679 69.736C765.231 69.992 764.874 70.3653 764.607 70.856C764.341 71.3467 764.207 71.9227 764.207 72.584C764.207 73.256 764.341 73.8427 764.607 74.344C764.874 74.8347 765.231 75.2133 765.679 75.48C766.127 75.736 766.623 75.864 767.167 75.864C767.711 75.864 768.207 75.736 768.655 75.48C769.114 75.2133 769.477 74.8347 769.743 74.344C770.01 73.8427 770.143 73.2613 770.143 72.6Z" fill="white"/>
<path d="M741.875 37.9639V49.2139C741.875 50.2489 742.717 51.0889 743.75 51.0889H753.125V37.9639H741.875Z" fill="white"/>
<path d="M768.125 30.4639H762.193C762.618 30.1733 762.984 29.8845 763.239 29.6258C764.752 28.1052 764.752 25.6302 763.239 24.1095C761.769 22.6283 759.208 22.632 757.739 24.1095C756.926 24.9252 754.769 28.2458 755.068 30.4639H754.933C755.229 28.2458 753.073 24.9252 752.261 24.1095C750.791 22.632 748.229 22.632 746.761 24.1095C745.25 25.6302 745.25 28.1052 746.759 29.6258C747.016 29.8845 747.382 30.1733 747.807 30.4639H741.875C740.842 30.4639 740 31.3058 740 32.3389V35.1514C740 35.6689 740.42 36.0889 740.938 36.0889H753.125V32.3389H756.875V36.0889H769.062C769.58 36.0889 770 35.6689 770 35.1514V32.3389C770 31.3058 769.16 30.4639 768.125 30.4639ZM753.014 30.402C753.014 30.402 752.936 30.4639 752.668 30.4639C751.372 30.4639 748.899 29.1177 748.091 28.3039C747.305 27.5127 747.305 26.2227 748.091 25.4314C748.471 25.0489 748.976 24.8389 749.512 24.8389C750.046 24.8389 750.551 25.0489 750.931 25.4314C752.195 26.7027 753.451 29.9502 753.014 30.402ZM757.331 30.4639C757.064 30.4639 756.986 30.4039 756.986 30.402C756.549 29.9502 757.805 26.7027 759.069 25.4314C759.824 24.6683 761.146 24.6645 761.909 25.4314C762.697 26.2227 762.697 27.5127 761.909 28.3039C761.101 29.1177 758.628 30.4639 757.331 30.4639Z" fill="white"/>
<path d="M756.875 37.9639V51.0889H766.25C767.285 51.0889 768.125 50.2489 768.125 49.2139V37.9639H756.875Z" fill="white"/>
<path d="M831.976 70.192C831.976 70.7573 831.843 71.2907 831.576 71.792C831.309 72.2933 830.883 72.704 830.296 73.024C829.709 73.3333 828.957 73.488 828.04 73.488H826.024V78H824.2V66.88H828.04C828.893 66.88 829.613 67.0293 830.2 67.328C830.797 67.616 831.24 68.0107 831.528 68.512C831.827 69.0133 831.976 69.5733 831.976 70.192ZM828.04 72C828.733 72 829.251 71.8453 829.592 71.536C829.933 71.216 830.104 70.768 830.104 70.192C830.104 68.976 829.416 68.368 828.04 68.368H826.024V72H828.04ZM835.54 70.464C835.806 70.016 836.158 69.6693 836.596 69.424C837.044 69.168 837.572 69.04 838.18 69.04V70.928H837.716C837.001 70.928 836.457 71.1093 836.084 71.472C835.721 71.8347 835.54 72.464 835.54 73.36V78H833.716V69.184H835.54V70.464ZM847.936 73.376C847.936 73.7067 847.915 74.0053 847.872 74.272H841.136C841.19 74.976 841.451 75.5413 841.92 75.968C842.39 76.3947 842.966 76.608 843.648 76.608C844.63 76.608 845.323 76.1973 845.728 75.376H847.696C847.43 76.1867 846.944 76.8533 846.24 77.376C845.547 77.888 844.683 78.144 843.648 78.144C842.806 78.144 842.048 77.9573 841.376 77.584C840.715 77.2 840.192 76.6667 839.808 75.984C839.435 75.2907 839.248 74.4907 839.248 73.584C839.248 72.6773 839.43 71.8827 839.792 71.2C840.166 70.5067 840.683 69.9733 841.344 69.6C842.016 69.2267 842.784 69.04 843.648 69.04C844.48 69.04 845.222 69.2213 845.872 69.584C846.523 69.9467 847.03 70.4587 847.392 71.12C847.755 71.7707 847.936 72.5227 847.936 73.376ZM846.032 72.8C846.022 72.128 845.782 71.5893 845.312 71.184C844.843 70.7787 844.262 70.576 843.568 70.576C842.939 70.576 842.4 70.7787 841.952 71.184C841.504 71.5787 841.238 72.1173 841.152 72.8H846.032ZM852.931 78.144C852.238 78.144 851.614 78.0213 851.059 77.776C850.515 77.52 850.083 77.1787 849.763 76.752C849.443 76.3147 849.273 75.8293 849.251 75.296H851.139C851.171 75.6693 851.347 75.984 851.667 76.24C851.998 76.4853 852.409 76.608 852.899 76.608C853.411 76.608 853.806 76.512 854.083 76.32C854.371 76.1173 854.515 75.8613 854.515 75.552C854.515 75.2213 854.355 74.976 854.035 74.816C853.726 74.656 853.23 74.48 852.547 74.288C851.886 74.1067 851.347 73.9307 850.931 73.76C850.515 73.5893 850.153 73.328 849.843 72.976C849.545 72.624 849.395 72.16 849.395 71.584C849.395 71.1147 849.534 70.688 849.811 70.304C850.089 69.9093 850.483 69.6 850.995 69.376C851.518 69.152 852.115 69.04 852.787 69.04C853.79 69.04 854.595 69.296 855.203 69.808C855.822 70.3093 856.153 70.9973 856.195 71.872H854.371C854.339 71.4773 854.179 71.1627 853.891 70.928C853.603 70.6933 853.214 70.576 852.723 70.576C852.243 70.576 851.875 70.6667 851.619 70.848C851.363 71.0293 851.235 71.2693 851.235 71.568C851.235 71.8027 851.321 72 851.491 72.16C851.662 72.32 851.87 72.448 852.115 72.544C852.361 72.6293 852.723 72.7413 853.203 72.88C853.843 73.0507 854.366 73.2267 854.771 73.408C855.187 73.5787 855.545 73.8347 855.843 74.176C856.142 74.5173 856.297 74.9707 856.307 75.536C856.307 76.0373 856.169 76.4853 855.891 76.88C855.614 77.2747 855.219 77.584 854.707 77.808C854.206 78.032 853.614 78.144 852.931 78.144ZM866.262 69.184V78H864.438V76.96C864.15 77.3227 863.771 77.6107 863.302 77.824C862.843 78.0267 862.353 78.128 861.83 78.128C861.137 78.128 860.513 77.984 859.958 77.696C859.414 77.408 858.982 76.9813 858.662 76.416C858.353 75.8507 858.198 75.168 858.198 74.368V69.184H860.006V74.096C860.006 74.8853 860.203 75.4933 860.598 75.92C860.993 76.336 861.531 76.544 862.214 76.544C862.897 76.544 863.435 76.336 863.83 75.92C864.235 75.4933 864.438 74.8853 864.438 74.096V69.184H866.262ZM870.493 70.48C870.802 70.0747 871.223 69.7333 871.757 69.456C872.29 69.1787 872.893 69.04 873.565 69.04C874.333 69.04 875.031 69.232 875.661 69.616C876.301 69.9893 876.802 70.5173 877.165 71.2C877.527 71.8827 877.709 72.6667 877.709 73.552C877.709 74.4373 877.527 75.232 877.165 75.936C876.802 76.6293 876.301 77.1733 875.661 77.568C875.031 77.952 874.333 78.144 873.565 78.144C872.893 78.144 872.295 78.0107 871.773 77.744C871.25 77.4667 870.823 77.1253 870.493 76.72V82.192H868.669V69.184H870.493V70.48ZM875.853 73.552C875.853 72.944 875.725 72.4213 875.469 71.984C875.223 71.536 874.893 71.2 874.477 70.976C874.071 70.7413 873.634 70.624 873.165 70.624C872.706 70.624 872.269 70.7413 871.853 70.976C871.447 71.2107 871.117 71.552 870.861 72C870.615 72.448 870.493 72.976 870.493 73.584C870.493 74.192 870.615 74.7253 870.861 75.184C871.117 75.632 871.447 75.9733 871.853 76.208C872.269 76.4427 872.706 76.56 873.165 76.56C873.634 76.56 874.071 76.4427 874.477 76.208C874.893 75.9627 875.223 75.6107 875.469 75.152C875.725 74.6933 875.853 74.16 875.853 73.552ZM887.497 69.184V78H885.673V76.96C885.385 77.3227 885.006 77.6107 884.537 77.824C884.078 78.0267 883.587 78.128 883.065 78.128C882.371 78.128 881.747 77.984 881.193 77.696C880.649 77.408 880.217 76.9813 879.897 76.416C879.587 75.8507 879.433 75.168 879.433 74.368V69.184H881.241V74.096C881.241 74.8853 881.438 75.4933 881.833 75.92C882.227 76.336 882.766 76.544 883.449 76.544C884.131 76.544 884.67 76.336 885.065 75.92C885.47 75.4933 885.673 74.8853 885.673 74.096V69.184H887.497ZM897.983 73.376C897.983 73.7067 897.962 74.0053 897.919 74.272H891.183C891.236 74.976 891.498 75.5413 891.967 75.968C892.436 76.3947 893.012 76.608 893.695 76.608C894.676 76.608 895.37 76.1973 895.775 75.376H897.743C897.476 76.1867 896.991 76.8533 896.287 77.376C895.594 77.888 894.73 78.144 893.695 78.144C892.852 78.144 892.095 77.9573 891.423 77.584C890.762 77.2 890.239 76.6667 889.855 75.984C889.482 75.2907 889.295 74.4907 889.295 73.584C889.295 72.6773 889.476 71.8827 889.839 71.2C890.212 70.5067 890.73 69.9733 891.391 69.6C892.063 69.2267 892.831 69.04 893.695 69.04C894.527 69.04 895.268 69.2213 895.919 69.584C896.57 69.9467 897.076 70.4587 897.439 71.12C897.802 71.7707 897.983 72.5227 897.983 73.376ZM896.079 72.8C896.068 72.128 895.828 71.5893 895.359 71.184C894.89 70.7787 894.308 70.576 893.615 70.576C892.986 70.576 892.447 70.7787 891.999 71.184C891.551 71.5787 891.284 72.1173 891.199 72.8H896.079ZM902.978 78.144C902.285 78.144 901.661 78.0213 901.106 77.776C900.562 77.52 900.13 77.1787 899.81 76.752C899.49 76.3147 899.319 75.8293 899.298 75.296H901.186C901.218 75.6693 901.394 75.984 901.714 76.24C902.045 76.4853 902.455 76.608 902.946 76.608C903.458 76.608 903.853 76.512 904.13 76.32C904.418 76.1173 904.562 75.8613 904.562 75.552C904.562 75.2213 904.402 74.976 904.082 74.816C903.773 74.656 903.277 74.48 902.594 74.288C901.933 74.1067 901.394 73.9307 900.978 73.76C900.562 73.5893 900.199 73.328 899.89 72.976C899.591 72.624 899.442 72.16 899.442 71.584C899.442 71.1147 899.581 70.688 899.858 70.304C900.135 69.9093 900.53 69.6 901.042 69.376C901.565 69.152 902.162 69.04 902.834 69.04C903.837 69.04 904.642 69.296 905.25 69.808C905.869 70.3093 906.199 70.9973 906.242 71.872H904.418C904.386 71.4773 904.226 71.1627 903.938 70.928C903.65 70.6933 903.261 70.576 902.77 70.576C902.29 70.576 901.922 70.6667 901.666 70.848C901.41 71.0293 901.282 71.2693 901.282 71.568C901.282 71.8027 901.367 72 901.538 72.16C901.709 72.32 901.917 72.448 902.162 72.544C902.407 72.6293 902.77 72.7413 903.25 72.88C903.89 73.0507 904.413 73.2267 904.818 73.408C905.234 73.5787 905.591 73.8347 905.89 74.176C906.189 74.5173 906.343 74.9707 906.354 75.536C906.354 76.0373 906.215 76.4853 905.938 76.88C905.661 77.2747 905.266 77.584 904.754 77.808C904.253 78.032 903.661 78.144 902.978 78.144ZM910.453 70.672V75.552C910.453 75.8827 910.528 76.1227 910.677 76.272C910.837 76.4107 911.104 76.48 911.477 76.48H912.597V78H911.157C910.336 78 909.706 77.808 909.269 77.424C908.832 77.04 908.613 76.416 908.613 75.552V70.672H907.573V69.184H908.613V66.992H910.453V69.184H912.597V70.672H910.453ZM918.102 78.144C917.27 78.144 916.518 77.9573 915.846 77.584C915.174 77.2 914.646 76.6667 914.262 75.984C913.878 75.2907 913.686 74.4907 913.686 73.584C913.686 72.688 913.883 71.8933 914.278 71.2C914.673 70.5067 915.211 69.9733 915.894 69.6C916.577 69.2267 917.339 69.04 918.182 69.04C919.025 69.04 919.787 69.2267 920.47 69.6C921.153 69.9733 921.691 70.5067 922.086 71.2C922.481 71.8933 922.678 72.688 922.678 73.584C922.678 74.48 922.475 75.2747 922.07 75.968C921.665 76.6613 921.11 77.2 920.406 77.584C919.713 77.9573 918.945 78.144 918.102 78.144ZM918.102 76.56C918.571 76.56 919.009 76.448 919.414 76.224C919.83 76 920.166 75.664 920.422 75.216C920.678 74.768 920.806 74.224 920.806 73.584C920.806 72.944 920.683 72.4053 920.438 71.968C920.193 71.52 919.867 71.184 919.462 70.96C919.057 70.736 918.619 70.624 918.15 70.624C917.681 70.624 917.243 70.736 916.838 70.96C916.443 71.184 916.129 71.52 915.894 71.968C915.659 72.4053 915.542 72.944 915.542 73.584C915.542 74.5333 915.782 75.2693 916.262 75.792C916.753 76.304 917.366 76.56 918.102 76.56Z" fill="white"/>
<g clip-path="url(#clip0_3391_245)">
<path d="M861.637 23C860.183 23 859 24.1828 859 25.6367V36.3594H872.359V23H861.637ZM867.73 30.5586H866.559V31.7305C866.559 32.2159 866.165 32.6094 865.68 32.6094C865.194 32.6094 864.801 32.2159 864.801 31.7305V30.5586H863.629C863.144 30.5586 862.75 30.1651 862.75 29.6797C862.75 29.1943 863.144 28.8008 863.629 28.8008H864.801V27.6289C864.801 27.1435 865.194 26.75 865.68 26.75C866.165 26.75 866.559 27.1435 866.559 27.6289V28.8008H867.73C868.216 28.8008 868.609 29.1943 868.609 29.6797C868.609 30.1651 868.216 30.5586 867.73 30.5586Z" fill="white"/>
<path d="M886.998 36.3594H887.477V25.6367C887.477 24.1828 886.294 23 884.84 23H874.117V36.0424C875.857 34.7337 878.018 33.957 880.357 33.957C882.88 33.957 885.195 34.86 886.998 36.3594ZM877.867 29.6797C877.867 29.1943 878.261 28.8008 878.746 28.8008H882.848C883.333 28.8008 883.727 29.1943 883.727 29.6797C883.727 30.1651 883.333 30.5586 882.848 30.5586H878.746C878.261 30.5586 877.867 30.1651 877.867 29.6797Z" fill="white"/>
<path d="M872.042 38.1172H859V48.8398C859 50.2937 860.183 51.4766 861.637 51.4766H872.359V50.9981C870.86 49.1954 869.957 46.8799 869.957 44.3574C869.957 42.0179 870.734 39.8566 872.042 38.1172ZM867.766 45.6403C868.109 45.9835 868.109 46.54 867.766 46.8832C867.594 47.0548 867.369 47.1406 867.145 47.1406C866.92 47.1406 866.695 47.0548 866.523 46.8832L865.68 46.0398L864.836 46.8832C864.665 47.0548 864.44 47.1406 864.215 47.1406C863.99 47.1406 863.765 47.0548 863.593 46.8832C863.25 46.5399 863.25 45.9835 863.593 45.6402L864.437 44.7969L863.593 43.9535C863.25 43.6102 863.25 43.0538 863.593 42.7105C863.937 42.3673 864.493 42.3673 864.836 42.7105L865.68 43.5539L866.523 42.7105C866.866 42.3673 867.423 42.3673 867.766 42.7105C868.109 43.0538 868.109 43.6102 867.766 43.9535L866.923 44.7969L867.766 45.6403Z" fill="white"/>
<path d="M880.357 35.7148C875.592 35.7148 871.715 39.5919 871.715 44.3574C871.715 49.123 875.592 53 880.357 53C885.123 53 889 49.123 889 44.3574C889 39.5919 885.123 35.7148 880.357 35.7148ZM882.408 46.7012H878.307C877.821 46.7012 877.428 46.3077 877.428 45.8223C877.428 45.3369 877.821 44.9434 878.307 44.9434H882.408C882.894 44.9434 883.287 45.3369 883.287 45.8223C883.287 46.3077 882.894 46.7012 882.408 46.7012ZM882.408 43.7715H878.307C877.821 43.7715 877.428 43.378 877.428 42.8926C877.428 42.4072 877.821 42.0137 878.307 42.0137H882.408C882.894 42.0137 883.287 42.4072 883.287 42.8926C883.287 43.378 882.894 43.7715 882.408 43.7715Z" fill="white"/>
</g>
<path d="M977.024 66.88V78H975.2V66.88H977.024ZM983.867 69.04C984.56 69.04 985.179 69.184 985.723 69.472C986.277 69.76 986.709 70.1867 987.019 70.752C987.328 71.3173 987.483 72 987.483 72.8V78H985.675V73.072C985.675 72.2827 985.477 71.68 985.083 71.264C984.688 70.8373 984.149 70.624 983.467 70.624C982.784 70.624 982.24 70.8373 981.835 71.264C981.44 71.68 981.243 72.2827 981.243 73.072V78H979.419V69.184H981.243V70.192C981.541 69.8293 981.92 69.5467 982.379 69.344C982.848 69.1413 983.344 69.04 983.867 69.04ZM993.217 76.368L995.713 69.184H997.649L994.289 78H992.113L988.769 69.184H990.721L993.217 76.368ZM999.956 68.016C999.625 68.016 999.348 67.904 999.124 67.68C998.9 67.456 998.788 67.1787 998.788 66.848C998.788 66.5173 998.9 66.24 999.124 66.016C999.348 65.792 999.625 65.68 999.956 65.68C1000.28 65.68 1000.55 65.792 1000.77 66.016C1001 66.24 1001.11 66.5173 1001.11 66.848C1001.11 67.1787 1001 67.456 1000.77 67.68C1000.55 67.904 1000.28 68.016 999.956 68.016ZM1000.85 69.184V78H999.028V69.184H1000.85ZM1005.37 70.672V75.552C1005.37 75.8827 1005.45 76.1227 1005.6 76.272C1005.76 76.4107 1006.03 76.48 1006.4 76.48H1007.52V78H1006.08C1005.26 78 1004.63 77.808 1004.19 77.424C1003.75 77.04 1003.53 76.416 1003.53 75.552V70.672H1002.49V69.184H1003.53V66.992H1005.37V69.184H1007.52V70.672H1005.37ZM1008.59 73.552C1008.59 72.6667 1008.77 71.8827 1009.14 71.2C1009.51 70.5173 1010.01 69.9893 1010.64 69.616C1011.28 69.232 1011.98 69.04 1012.75 69.04C1013.45 69.04 1014.05 69.1787 1014.56 69.456C1015.08 69.7227 1015.5 70.0587 1015.81 70.464V69.184H1017.65V78H1015.81V76.688C1015.5 77.104 1015.08 77.4507 1014.54 77.728C1014.01 78.0053 1013.4 78.144 1012.72 78.144C1011.96 78.144 1011.27 77.952 1010.64 77.568C1010.01 77.1733 1009.51 76.6293 1009.14 75.936C1008.77 75.232 1008.59 74.4373 1008.59 73.552ZM1015.81 73.584C1015.81 72.976 1015.68 72.448 1015.42 72C1015.18 71.552 1014.85 71.2107 1014.45 70.976C1014.04 70.7413 1013.61 70.624 1013.14 70.624C1012.67 70.624 1012.23 70.7413 1011.82 70.976C1011.42 71.2 1011.09 71.536 1010.83 71.984C1010.59 72.4213 1010.46 72.944 1010.46 73.552C1010.46 74.16 1010.59 74.6933 1010.83 75.152C1011.09 75.6107 1011.42 75.9627 1011.82 76.208C1012.24 76.4427 1012.68 76.56 1013.14 76.56C1013.61 76.56 1014.04 76.4427 1014.45 76.208C1014.85 75.9733 1015.18 75.632 1015.42 75.184C1015.68 74.7253 1015.81 74.192 1015.81 73.584ZM1019.44 73.584C1019.44 72.6773 1019.62 71.8827 1019.98 71.2C1020.35 70.5067 1020.87 69.9733 1021.52 69.6C1022.17 69.2267 1022.91 69.04 1023.76 69.04C1024.82 69.04 1025.7 69.296 1026.4 69.808C1027.1 70.3093 1027.57 71.0293 1027.82 71.968H1025.85C1025.69 71.5307 1025.44 71.1893 1025.08 70.944C1024.73 70.6987 1024.29 70.576 1023.76 70.576C1023.01 70.576 1022.41 70.8427 1021.96 71.376C1021.53 71.8987 1021.31 72.6347 1021.31 73.584C1021.31 74.5333 1021.53 75.2747 1021.96 75.808C1022.41 76.3413 1023.01 76.608 1023.76 76.608C1024.81 76.608 1025.51 76.144 1025.85 75.216H1027.82C1027.56 76.112 1027.08 76.8267 1026.38 77.36C1025.68 77.8827 1024.8 78.144 1023.76 78.144C1022.91 78.144 1022.17 77.9573 1021.52 77.584C1020.87 77.2 1020.35 76.6667 1019.98 75.984C1019.62 75.2907 1019.44 74.4907 1019.44 73.584ZM1030.57 68.016C1030.23 68.016 1029.96 67.904 1029.73 67.68C1029.51 67.456 1029.4 67.1787 1029.4 66.848C1029.4 66.5173 1029.51 66.24 1029.73 66.016C1029.96 65.792 1030.23 65.68 1030.57 65.68C1030.89 65.68 1031.16 65.792 1031.38 66.016C1031.61 66.24 1031.72 66.5173 1031.72 66.848C1031.72 67.1787 1031.61 67.456 1031.38 67.68C1031.16 67.904 1030.89 68.016 1030.57 68.016ZM1031.46 69.184V78H1029.64V69.184H1031.46ZM1037.68 78.144C1036.85 78.144 1036.1 77.9573 1035.42 77.584C1034.75 77.2 1034.22 76.6667 1033.84 75.984C1033.46 75.2907 1033.26 74.4907 1033.26 73.584C1033.26 72.688 1033.46 71.8933 1033.86 71.2C1034.25 70.5067 1034.79 69.9733 1035.47 69.6C1036.15 69.2267 1036.92 69.04 1037.76 69.04C1038.6 69.04 1039.37 69.2267 1040.05 69.6C1040.73 69.9733 1041.27 70.5067 1041.66 71.2C1042.06 71.8933 1042.26 72.688 1042.26 73.584C1042.26 74.48 1042.05 75.2747 1041.65 75.968C1041.24 76.6613 1040.69 77.2 1039.98 77.584C1039.29 77.9573 1038.52 78.144 1037.68 78.144ZM1037.68 76.56C1038.15 76.56 1038.59 76.448 1038.99 76.224C1039.41 76 1039.74 75.664 1040 75.216C1040.26 74.768 1040.38 74.224 1040.38 73.584C1040.38 72.944 1040.26 72.4053 1040.02 71.968C1039.77 71.52 1039.45 71.184 1039.04 70.96C1038.63 70.736 1038.2 70.624 1037.73 70.624C1037.26 70.624 1036.82 70.736 1036.42 70.96C1036.02 71.184 1035.71 71.52 1035.47 71.968C1035.24 72.4053 1035.12 72.944 1035.12 73.584C1035.12 74.5333 1035.36 75.2693 1035.84 75.792C1036.33 76.304 1036.94 76.56 1037.68 76.56ZM1048.51 69.04C1049.2 69.04 1049.82 69.184 1050.36 69.472C1050.92 69.76 1051.35 70.1867 1051.66 70.752C1051.97 71.3173 1052.12 72 1052.12 72.8V78H1050.32V73.072C1050.32 72.2827 1050.12 71.68 1049.72 71.264C1049.33 70.8373 1048.79 70.624 1048.11 70.624C1047.42 70.624 1046.88 70.8373 1046.48 71.264C1046.08 71.68 1045.88 72.2827 1045.88 73.072V78H1044.06V69.184H1045.88V70.192C1046.18 69.8293 1046.56 69.5467 1047.02 69.344C1047.49 69.1413 1047.98 69.04 1048.51 69.04ZM1062.53 73.376C1062.53 73.7067 1062.51 74.0053 1062.47 74.272H1055.73C1055.78 74.976 1056.04 75.5413 1056.51 75.968C1056.98 76.3947 1057.56 76.608 1058.24 76.608C1059.22 76.608 1059.92 76.1973 1060.32 75.376H1062.29C1062.02 76.1867 1061.54 76.8533 1060.83 77.376C1060.14 77.888 1059.28 78.144 1058.24 78.144C1057.4 78.144 1056.64 77.9573 1055.97 77.584C1055.31 77.2 1054.79 76.6667 1054.4 75.984C1054.03 75.2907 1053.84 74.4907 1053.84 73.584C1053.84 72.6773 1054.02 71.8827 1054.39 71.2C1054.76 70.5067 1055.28 69.9733 1055.94 69.6C1056.61 69.2267 1057.38 69.04 1058.24 69.04C1059.07 69.04 1059.82 69.2213 1060.47 69.584C1061.12 69.9467 1061.62 70.4587 1061.99 71.12C1062.35 71.7707 1062.53 72.5227 1062.53 73.376ZM1060.63 72.8C1060.62 72.128 1060.38 71.5893 1059.91 71.184C1059.44 70.7787 1058.86 70.576 1058.16 70.576C1057.53 70.576 1056.99 70.7787 1056.55 71.184C1056.1 71.5787 1055.83 72.1173 1055.75 72.8H1060.63ZM1067.53 78.144C1066.83 78.144 1066.21 78.0213 1065.65 77.776C1065.11 77.52 1064.68 77.1787 1064.36 76.752C1064.04 76.3147 1063.87 75.8293 1063.85 75.296H1065.73C1065.77 75.6693 1065.94 75.984 1066.26 76.24C1066.59 76.4853 1067 76.608 1067.49 76.608C1068.01 76.608 1068.4 76.512 1068.68 76.32C1068.97 76.1173 1069.11 75.8613 1069.11 75.552C1069.11 75.2213 1068.95 74.976 1068.63 74.816C1068.32 74.656 1067.82 74.48 1067.14 74.288C1066.48 74.1067 1065.94 73.9307 1065.53 73.76C1065.11 73.5893 1064.75 73.328 1064.44 72.976C1064.14 72.624 1063.99 72.16 1063.99 71.584C1063.99 71.1147 1064.13 70.688 1064.41 70.304C1064.68 69.9093 1065.08 69.6 1065.59 69.376C1066.11 69.152 1066.71 69.04 1067.38 69.04C1068.38 69.04 1069.19 69.296 1069.8 69.808C1070.42 70.3093 1070.75 70.9973 1070.79 71.872H1068.97C1068.93 71.4773 1068.77 71.1627 1068.49 70.928C1068.2 70.6933 1067.81 70.576 1067.32 70.576C1066.84 70.576 1066.47 70.6667 1066.21 70.848C1065.96 71.0293 1065.83 71.2693 1065.83 71.568C1065.83 71.8027 1065.91 72 1066.09 72.16C1066.26 72.32 1066.46 72.448 1066.71 72.544C1066.95 72.6293 1067.32 72.7413 1067.8 72.88C1068.44 73.0507 1068.96 73.2267 1069.37 73.408C1069.78 73.5787 1070.14 73.8347 1070.44 74.176C1070.74 74.5173 1070.89 74.9707 1070.9 75.536C1070.9 76.0373 1070.76 76.4853 1070.49 76.88C1070.21 77.2747 1069.81 77.584 1069.3 77.808C1068.8 78.032 1068.21 78.144 1067.53 78.144Z" fill="white"/>
<path d="M1038 34.5563C1037.99 34.4444 1037.96 34.3355 1037.9 34.2381C1037.89 34.2263 1037.79 34.0907 1037.73 34.0454L1035.27 32.2047L1035.27 25.7273C1035.27 24.221 1034.05 23 1032.55 23H1013.45C1011.95 23 1010.73 24.221 1010.73 25.7272V32.2047L1008.27 34.0454C1008.21 34.0908 1008.11 34.2263 1008.1 34.2382C1008.04 34.3355 1008.01 34.4445 1008 34.5563C1008 34.5687 1008 50.2723 1008 50.2723C1008 51.7763 1009.22 52.9995 1010.73 52.9995H1035.27C1036.78 52.9995 1038 51.7764 1038 50.2723C1038 50.2723 1038 34.5686 1038 34.5563ZM1020.27 27.0909C1021.3 27.0909 1022.26 27.4671 1023 28.1436C1023.74 27.4671 1024.7 27.0909 1025.73 27.0909C1027.98 27.0909 1029.82 28.9259 1029.82 31.1817C1029.82 32.275 1029.39 33.3024 1028.62 34.0741L1023.48 39.1656C1023.35 39.2975 1023.17 39.3634 1023 39.3634C1022.83 39.3634 1022.65 39.2975 1022.52 39.1656L1017.38 34.076C1016.61 33.3024 1016.18 32.275 1016.18 31.1817C1016.18 28.9259 1018.02 27.0909 1020.27 27.0909ZM1023.93 44.4269C1023.76 44.5727 1023.42 44.8178 1022.98 44.8178C1022.66 44.8178 1022.34 44.6866 1022.05 44.4269C1019.41 42.0926 1012.09 36.3761 1009.81 34.6L1010.95 33.7426C1010.97 33.758 1010.97 33.7798 1010.99 33.7938C1013.54 35.7793 1019.77 40.6565 1022.54 43.0488C1022.67 43.1593 1022.83 43.2146 1022.99 43.2146C1023.15 43.2146 1023.31 43.1593 1023.43 43.0495C1026.21 40.6578 1032.45 35.78 1035.01 33.7938C1035.03 33.78 1035.03 33.7578 1035.05 33.7423L1036.19 34.5995C1033.9 36.378 1026.55 42.1106 1023.93 44.4269Z" fill="white"/>
<defs>
<clipPath id="clip0_3391_245">
<rect width="30" height="30" fill="white" transform="translate(859 23)"/>
</clipPath>
</defs>
</svg>
