<svg width="60" height="60" viewBox="0 0 60 60" fill="none" xmlns="http://www.w3.org/2000/svg">
<path d="M20.2085 37.8994L21.2589 41.788C21.4483 42.4892 20.9172 43.1783 20.1874 43.1783H15.0066C14.2768 43.1783 13.7457 42.4893 13.9351 41.788L14.9855 37.8994H20.2085Z" fill="url(#paint0_linear_3964_15487)"/>
<path d="M17.6604 38.3134C26.3094 38.3134 33.3208 30.1844 33.3208 20.1567C33.3208 10.129 26.3094 2 17.6604 2C9.0114 2 2 10.129 2 20.1567C2 30.1844 9.0114 38.3134 17.6604 38.3134Z" fill="url(#paint1_linear_3964_15487)"/>
<path d="M45.6401 42.8564L46.6906 46.745C46.88 47.4463 46.3489 48.1353 45.619 48.1353H40.4383C39.7084 48.1353 39.1773 47.4463 39.3667 46.745L40.4172 42.8564H45.6401Z" fill="url(#paint2_linear_3964_15487)"/>
<path d="M57.164 14.2301C56.8528 13.6771 56.1497 13.4798 55.5939 13.7895C55.0381 14.0992 54.8397 14.7985 55.1509 15.3515C56.7139 18.1282 57.54 21.3611 57.54 24.7005C57.54 34.0794 51.0322 41.7097 43.033 41.7097C35.0339 41.7097 28.5261 34.0794 28.5261 24.7005C28.5261 15.3216 35.0339 7.69141 43.033 7.69141C44.8257 7.69141 46.5754 8.07068 48.2334 8.81868C48.8137 9.08021 49.4972 8.82453 49.7604 8.24741C50.0235 7.67018 49.7665 6.99 49.1863 6.72835C47.227 5.84437 45.1566 5.39624 43.033 5.39624C38.8751 5.39624 35.0656 7.13884 32.1274 10.0202C30.8172 7.44089 29.0027 5.23845 26.8102 3.58845C24.0733 1.52865 20.8881 0.439941 17.5992 0.439941C13.0742 0.439941 8.83061 2.47071 5.65015 6.15823C2.51283 9.7955 0.785156 14.6204 0.785156 19.7442C0.785156 24.8681 2.51283 29.693 5.65015 33.3303C7.87766 35.9128 10.6269 37.6814 13.6287 38.5102L12.8233 41.4919C12.6391 42.1735 12.7812 42.8858 13.213 43.4461C13.6447 44.0062 14.2994 44.3275 15.0088 44.3275H16.8313C17.1833 45.4043 17.098 46.5914 16.5723 47.6134C15.6057 49.4925 15.6057 51.7361 16.5723 53.6152C17.2021 54.8395 17.2021 56.3015 16.5723 57.5259C16.2821 58.0902 16.5067 58.7816 17.0739 59.0703C17.2421 59.1559 17.4216 59.1966 17.5984 59.1966C18.0177 59.1966 18.4222 58.9683 18.6262 58.5715C19.5927 56.6924 19.5927 54.4488 18.6262 52.5697C17.9964 51.3454 17.9964 49.8835 18.6262 48.659C19.3186 47.3128 19.5122 45.7799 19.2125 44.3275H20.1896C20.8991 44.3275 21.5537 44.0063 21.9855 43.4461C22.4173 42.886 22.5594 42.1736 22.3752 41.4919L21.5702 38.5121C24.1264 37.8078 26.4951 36.4225 28.5171 34.432C30.7925 38.8887 34.5795 42.2093 39.0643 43.4602L38.2572 46.4482C38.0729 47.1298 38.2151 47.8421 38.6468 48.4024C39.0786 48.9625 39.7332 49.2838 40.4427 49.2838H42.2651C42.617 50.3606 42.5318 51.5477 42.0061 52.5697C41.0396 54.4488 41.0396 56.6924 42.0061 58.5715C42.2103 58.9683 42.6146 59.1966 43.0339 59.1966C43.2108 59.1966 43.3902 59.1559 43.5584 59.0703C44.1256 58.7816 44.3501 58.0902 44.06 57.5259C43.4303 56.3015 43.4303 54.8395 44.06 53.6152C44.7525 52.2689 44.9462 50.736 44.6463 49.2837H45.6235C46.333 49.2837 46.9876 48.9625 47.4194 48.4023C47.8511 47.8421 47.9933 47.1298 47.809 46.4481L47.0036 43.4665C50.0054 42.6376 52.7547 40.8691 54.9822 38.2866C58.1194 34.6493 59.8472 29.8244 59.8472 24.7005C59.8471 20.9693 58.9193 17.3487 57.164 14.2301ZM20.1322 42.0324H15.0661L15.8983 38.9518C16.4597 39.016 17.0272 39.0487 17.5992 39.0487C18.1715 39.0487 18.7389 39.0162 19.3001 38.9523L20.1322 42.0324ZM17.5992 36.7535C9.60003 36.7535 3.09226 29.1232 3.09226 19.7444C3.09226 10.3654 9.60003 2.73511 17.5992 2.73511C22.9901 2.73511 27.979 6.30719 30.467 11.8896C27.8262 15.3003 26.2191 19.7888 26.2191 24.7005C26.2191 27.3385 26.683 29.8542 27.5209 32.1468C24.821 35.1223 21.3215 36.7535 17.5992 36.7535ZM45.5661 46.9886H40.5L41.3325 43.9067C41.8918 43.9716 42.459 44.0048 43.033 44.0048C43.605 44.0048 44.1725 43.9721 44.7339 43.908L45.5661 46.9886Z" fill="url(#paint3_linear_3964_15487)"/>
<path d="M52.9973 11.8401C53.3007 11.8401 53.5983 11.7173 53.8129 11.5039C54.0273 11.2904 54.1509 10.9943 54.1509 10.6925C54.1509 10.3907 54.0274 10.0946 53.8129 9.88117C53.5983 9.66771 53.3007 9.54492 52.9973 9.54492C52.6939 9.54492 52.3963 9.66771 52.1817 9.88117C51.9673 10.0946 51.8438 10.3895 51.8438 10.6925C51.8438 10.9943 51.9672 11.2904 52.1817 11.5039C52.3963 11.7173 52.6939 11.8401 52.9973 11.8401Z" fill="url(#paint4_linear_3964_15487)"/>
<defs>
<linearGradient id="paint0_linear_3964_15487" x1="17.62" y1="37.8707" x2="17.6092" y2="43.1783" gradientUnits="userSpaceOnUse">
<stop stop-color="#7EB3D6"/>
<stop offset="1" stop-color="#40789D"/>
</linearGradient>
<linearGradient id="paint1_linear_3964_15487" x1="17.7578" y1="1.80264" x2="17.6368" y2="38.3134" gradientUnits="userSpaceOnUse">
<stop stop-color="#7EB3D6"/>
<stop offset="1" stop-color="#40789D"/>
</linearGradient>
<linearGradient id="paint2_linear_3964_15487" x1="43.0517" y1="42.8278" x2="43.0408" y2="48.1354" gradientUnits="userSpaceOnUse">
<stop stop-color="#7EB3D6"/>
<stop offset="1" stop-color="#40789D"/>
</linearGradient>
<linearGradient id="paint3_linear_3964_15487" x1="30.4998" y1="0.120612" x2="30.3318" y2="59.1966" gradientUnits="userSpaceOnUse">
<stop stop-color="#7EB3D6"/>
<stop offset="1" stop-color="#40789D"/>
</linearGradient>
<linearGradient id="paint4_linear_3964_15487" x1="53.0045" y1="9.53245" x2="52.9979" y2="11.8401" gradientUnits="userSpaceOnUse">
<stop stop-color="#7EB3D6"/>
<stop offset="1" stop-color="#40789D"/>
</linearGradient>
</defs>
</svg>
