<svg width="16" height="15" viewBox="0 0 16 15" fill="none" xmlns="http://www.w3.org/2000/svg">
<path d="M5.43119 9.56342L5.69797 10.5561C5.74607 10.7351 5.61119 10.9111 5.42583 10.9111H4.11007C3.92471 10.9111 3.78983 10.7352 3.83793 10.5561L4.10471 9.56342H5.43119Z" fill="black"/>
<path d="M4.77415 9.56348C6.97074 9.56348 8.75143 7.4882 8.75143 4.92822C8.75143 2.36824 6.97074 0.292969 4.77415 0.292969C2.57756 0.292969 0.796875 2.36824 0.796875 4.92822C0.796875 7.4882 2.57756 9.56348 4.77415 9.56348Z" fill="black"/>
<path d="M11.8921 10.8286L12.1589 11.8213C12.207 12.0004 12.0721 12.1763 11.8868 12.1763H10.571C10.3856 12.1763 10.2508 12.0004 10.2989 11.8213L10.5657 10.8286H11.8921Z" fill="black"/>
<path d="M14.8186 3.52051C14.7395 3.37933 14.5609 3.32897 14.4198 3.40804C14.2786 3.48708 14.2283 3.66562 14.3073 3.8068C14.7042 4.51566 14.914 5.34098 14.914 6.19352C14.914 8.58786 13.2613 10.5358 11.2297 10.5358C9.19817 10.5358 7.54539 8.58786 7.54539 6.19352C7.54539 3.79915 9.19817 1.85124 11.2297 1.85124C11.685 1.85124 12.1294 1.94806 12.5505 2.13902C12.6978 2.20579 12.8714 2.14051 12.9383 1.99318C13.0051 1.84582 12.9398 1.67217 12.7924 1.60538C12.2948 1.3797 11.769 1.2653 11.2297 1.2653C10.1737 1.2653 9.20622 1.71017 8.46 2.44576C8.12725 1.78728 7.66641 1.22502 7.1096 0.803787C6.4145 0.277939 5.60556 0 4.77027 0C3.62105 0 2.54331 0.518436 1.73556 1.45983C0.938778 2.38839 0.5 3.62015 0.5 4.92822C0.5 6.23629 0.938778 7.46805 1.73556 8.39661C2.30129 9.05591 2.99952 9.50743 3.76188 9.71901L3.55733 10.4802C3.51054 10.6542 3.54663 10.8361 3.65629 10.9791C3.76595 11.1221 3.93221 11.2041 4.11239 11.2041H4.57525C4.66463 11.479 4.64298 11.7821 4.50947 12.043C4.26397 12.5227 4.26397 13.0955 4.50947 13.5752C4.66941 13.8877 4.66941 14.261 4.50947 14.5736C4.43576 14.7176 4.4928 14.8941 4.63686 14.9678C4.67957 14.9897 4.72516 15.0001 4.77007 15.0001C4.87656 15.0001 4.97928 14.9418 5.0311 14.8405C5.27655 14.3608 5.27655 13.788 5.0311 13.3083C4.87114 12.9957 4.87114 12.6225 5.0311 12.3099C5.20694 11.9662 5.2561 11.5749 5.17999 11.2041H5.42816C5.60834 11.2041 5.7746 11.1221 5.88426 10.9791C5.99391 10.8361 6.03001 10.6543 5.98322 10.4802L5.77879 9.71948C6.42798 9.53969 7.02956 9.18604 7.5431 8.67789C8.12098 9.81563 9.08277 10.6634 10.2218 10.9827L10.0168 11.7455C9.96999 11.9195 10.0061 12.1014 10.1157 12.2444C10.2254 12.3874 10.3917 12.4694 10.5718 12.4694H11.0347C11.1241 12.7443 11.1024 13.0474 10.9689 13.3083C10.7234 13.788 10.7234 14.3608 10.9689 14.8405C11.0207 14.9418 11.1234 15.0001 11.2299 15.0001C11.2748 15.0001 11.3204 14.9897 11.3631 14.9678C11.5072 14.8941 11.5642 14.7176 11.4905 14.5736C11.3306 14.261 11.3306 13.8877 11.4905 13.5752C11.6664 13.2315 11.7156 12.8401 11.6394 12.4694H11.8876C12.0678 12.4694 12.234 12.3874 12.3437 12.2444C12.4534 12.1014 12.4895 11.9195 12.4427 11.7455L12.2381 10.9843C13.0005 10.7727 13.6987 10.3212 14.2644 9.66191C15.0612 8.73335 15.5 7.5016 15.5 6.19352C15.5 5.24097 15.2643 4.31665 14.8186 3.52051V3.52051ZM5.41357 10.6182H4.12695L4.33829 9.83175C4.48088 9.84812 4.62499 9.85647 4.77027 9.85647C4.91562 9.85647 5.05973 9.84818 5.20226 9.83186L5.41357 10.6182ZM4.77027 9.27054C2.73872 9.27054 1.08594 7.32259 1.08594 4.92825C1.08594 2.53388 2.73872 0.585936 4.77027 0.585936C6.1394 0.585936 7.40643 1.49786 8.0383 2.923C7.36761 3.79373 6.95948 4.93959 6.95948 6.19352C6.95948 6.86697 7.07728 7.50921 7.29009 8.09447C6.6044 8.85411 5.71562 9.27054 4.77027 9.27054V9.27054ZM11.873 11.8835H10.5864L10.7978 11.0967C10.9399 11.1132 11.0839 11.1217 11.2297 11.1217C11.375 11.1217 11.5191 11.1134 11.6617 11.097L11.873 11.8835Z" fill="black"/>
<path d="M13.7617 2.91065C13.8388 2.91065 13.9144 2.8793 13.9688 2.82481C14.0233 2.77031 14.0547 2.69473 14.0547 2.61768C14.0547 2.54063 14.0233 2.46504 13.9688 2.41055C13.9144 2.35605 13.8388 2.32471 13.7617 2.32471C13.6847 2.32471 13.6091 2.35605 13.5546 2.41055C13.5001 2.46504 13.4688 2.54033 13.4688 2.61768C13.4688 2.69473 13.5001 2.77031 13.5546 2.82481C13.6091 2.8793 13.6847 2.91065 13.7617 2.91065Z" fill="black"/>
</svg>


<svg data-slot="icon" fill="none" stroke-width="1.5" stroke="currentColor" viewBox="0 0 24 24" xmlns="http://www.w3.org/2000/svg" aria-hidden="true">
  <path stroke-linecap="round" stroke-linejoin="round" d="M16.5 6v.75m0 3v.75m0 3v.75m0 3V18m-9-5.25h5.25M7.5 15h3M3.375 5.25c-.621 0-1.125.504-1.125 1.125v3.026a2.999 2.999 0 0 1 0 5.198v3.026c0 .621.504 1.125 1.125 1.125h17.25c.621 0 1.125-.504 1.125-1.125v-3.026a2.999 2.999 0 0 1 0-5.198V6.375c0-.621-.504-1.125-1.125-1.125H3.375Z"></path>
</svg>