<svg width="32" height="32" viewBox="0 0 32 32" fill="none" xmlns="http://www.w3.org/2000/svg">
<path d="M31.898 13.6709L31.778 3.98891C31.774 3.75879 31.6864 3.53689 31.5298 3.36038C31.3733 3.18388 31.1572 3.06344 30.9177 3.01924C25.9239 3.04555 20.9837 2.04703 16.4398 0.092874C16.3006 0.0323287 16.1492 0.000976562 15.9959 0.000976562C15.8426 0.000976562 15.6911 0.0323287 15.5519 0.092874C11.0376 2.04837 6.12135 3.03968 1.15404 2.99603C0.87283 2.99603 0.603138 3.10139 0.404294 3.28895C0.20545 3.47651 0.09375 3.7309 0.09375 3.99616V13.6796C0.0979423 17.9594 1.65626 22.1087 4.50922 25.4366C7.36217 28.7645 11.3376 31.0701 15.7735 31.9695C15.9201 31.9991 16.0716 31.9991 16.2182 31.9695C20.6572 31.0694 24.635 28.7613 27.4883 25.4298C30.3416 22.0984 31.898 17.945 31.898 13.6622V13.6709ZM15.9966 29.975C12.0902 29.1196 8.60407 27.0456 6.10278 24.0888C3.60149 21.1319 2.2314 17.4653 2.21434 13.6825V4.99338C6.96643 4.89866 11.6512 3.91431 15.9966 2.0975C20.309 3.89999 24.9558 4.88305 29.6712 4.99048L29.7789 13.6883C29.7608 17.4704 28.3903 21.136 25.8891 24.0919C23.3878 27.0479 19.9023 29.1213 15.9966 29.9765V29.975Z" fill="white"/>
<path d="M21.303 13.0006H20.2426V11.501C20.2534 10.9693 20.1516 10.441 19.9433 9.94679C19.7351 9.45262 19.4244 9.00255 19.0296 8.62295C18.6347 8.24334 18.1636 7.9418 17.6438 7.73595C17.1239 7.5301 16.5658 7.42407 16.002 7.42407C15.4382 7.42407 14.8801 7.5301 14.3602 7.73595C13.8404 7.9418 13.3693 8.24334 12.9744 8.62295C12.5796 9.00255 12.2689 9.45262 12.0606 9.94679C11.8523 10.441 11.7506 10.9693 11.7613 11.501V13.0006H10.701C10.5617 13.0006 10.4238 13.0265 10.2952 13.0767C10.1665 13.127 10.0497 13.2007 9.95119 13.2936C9.85272 13.3864 9.77462 13.4967 9.72134 13.6181C9.66805 13.7394 9.64062 13.8695 9.64062 14.0008V22.0009C9.64062 22.1322 9.66805 22.2623 9.72134 22.3836C9.77462 22.505 9.85272 22.6153 9.95119 22.7081C10.0497 22.801 10.1665 22.8747 10.2952 22.925C10.4238 22.9752 10.5617 23.0011 10.701 23.0011H21.303C21.4423 23.0011 21.5801 22.9752 21.7088 22.925C21.8374 22.8747 21.9543 22.801 22.0528 22.7081C22.1513 22.6153 22.2294 22.505 22.2826 22.3836C22.3359 22.2623 22.3634 22.1322 22.3634 22.0009V14.0008C22.3634 13.8695 22.3359 13.7394 22.2826 13.6181C22.2294 13.4967 22.1513 13.3864 22.0528 13.2936C21.9543 13.2007 21.8374 13.127 21.7088 13.0767C21.5801 13.0265 21.4423 13.0006 21.303 13.0006ZM13.882 11.501C13.882 10.9705 14.1055 10.4617 14.5032 10.0866C14.9009 9.71142 15.4403 9.50068 16.0028 9.50068C16.5652 9.50068 17.1046 9.71142 17.5023 10.0866C17.9 10.4617 18.1235 10.9705 18.1235 11.501V13.0006H13.882V11.501ZM20.2426 21.0022H11.7613V15.0025H20.2426V21.0022Z" fill="white"/>
<path d="M15.9978 16.5001C15.8586 16.5001 15.7207 16.526 15.5921 16.5762C15.4634 16.6265 15.3465 16.7002 15.2481 16.793C15.1496 16.8859 15.0715 16.9962 15.0182 17.1175C14.9649 17.2389 14.9375 17.369 14.9375 17.5003V18.5005C14.9375 18.7658 15.0492 19.0201 15.2481 19.2077C15.4469 19.3953 15.7166 19.5007 15.9978 19.5007C16.2791 19.5007 16.5488 19.3953 16.7477 19.2077C16.9465 19.0201 17.0582 18.7658 17.0582 18.5005V17.5003C17.0582 17.369 17.0308 17.2389 16.9775 17.1175C16.9242 16.9962 16.8461 16.8859 16.7477 16.793C16.6492 16.7002 16.5323 16.6265 16.4036 16.5762C16.275 16.526 16.1371 16.5001 15.9978 16.5001Z" fill="white"/>
</svg>
