<svg width="32" height="32" viewBox="0 0 32 32" fill="none" xmlns="http://www.w3.org/2000/svg">
<path d="M27.3211 4.69375C24.7052 2.07442 21.262 0.443208 17.5782 0.0780556C13.8944 -0.287097 10.198 0.636405 7.11879 2.69121C4.03959 4.74602 1.76817 7.80496 0.691581 11.3468C-0.385007 14.8887 -0.200147 18.6942 1.21467 22.115C2.62948 25.5359 5.18669 28.3602 8.45056 30.1069C11.7144 31.8536 15.483 32.4145 19.114 31.694C22.7451 30.9735 26.014 29.0162 28.3637 26.1557C30.7133 23.2952 31.9984 19.7084 31.9999 16.0065C32.0065 13.9052 31.5963 11.8235 30.7932 9.88166C29.9901 7.93986 28.81 6.17657 27.3211 4.69375ZM27.1874 24.4234C26.2386 23.7813 25.2362 23.2222 24.1913 22.7524C24.6639 20.873 24.9317 18.9479 24.99 17.0108H29.9713C29.781 19.7002 28.8138 22.2765 27.1874 24.4268V24.4234ZM2.04533 17.0075H7.02661C7.08515 18.9445 7.35296 20.8696 7.82537 22.7491C6.78047 23.2189 5.77804 23.778 4.82924 24.4201C3.2028 22.2698 2.23569 19.6935 2.04533 17.0041V17.0075ZM4.82757 7.59128C5.77635 8.23344 6.77877 8.79252 7.8237 9.26229C7.3511 11.1417 7.08328 13.0668 7.02494 15.0039H2.04366C2.23372 12.3147 3.20023 9.73852 4.8259 7.58794L4.82757 7.59128ZM22.5403 4.93103C22.1971 4.28106 21.8014 3.66018 21.3572 3.07454C23.0376 3.77589 24.5654 4.79746 25.8556 6.08235C25.1339 6.55675 24.3789 6.97839 23.5964 7.34398C23.3035 6.51774 22.9506 5.71407 22.5403 4.93939V4.93103ZM21.7315 8.08089C18.0127 9.31674 13.9939 9.31674 10.2751 8.08089C11.5534 4.43974 13.6672 2.00843 16.0033 2.00843C18.3394 2.00843 20.4532 4.44141 21.7315 8.08089ZM9.0218 15.0073C9.07996 13.3175 9.30895 11.6379 9.70526 9.99421C13.796 11.337 18.2089 11.337 22.2997 9.99421C22.696 11.6379 22.925 13.3175 22.9831 15.0073H9.0218ZM22.9831 17.0125C22.9249 18.7023 22.6959 20.3818 22.2997 22.0255C18.209 20.6822 13.7959 20.6822 9.70526 22.0255C9.30904 20.3818 9.08005 18.7023 9.0218 17.0125H22.9831ZM9.46295 4.93605C9.05283 5.71079 8.69987 6.51446 8.40688 7.34064C7.62444 6.97499 6.86942 6.55334 6.14767 6.07901C7.43784 4.79412 8.96568 3.77255 10.646 3.0712C10.2019 3.65684 9.80618 4.27772 9.46295 4.92769V4.93605ZM8.40688 24.6858C8.69938 25.5119 9.05178 26.3156 9.46128 27.0904C9.80451 27.7403 10.2002 28.3612 10.6444 28.9469C8.96483 28.2477 7.43709 27.2291 6.14599 25.9474C6.86766 25.4729 7.62438 25.0513 8.40688 24.6858ZM10.2717 23.9405C13.9906 22.7047 18.0094 22.7047 21.7282 23.9405C20.4499 27.5817 18.336 30.013 16 30.013C13.6639 30.013 11.5501 27.5817 10.2717 23.9405ZM22.5386 27.0904C22.9488 26.3157 23.3018 25.512 23.5947 24.6858C24.3772 25.0513 25.1323 25.4729 25.8539 25.9474C24.5628 27.2291 23.0351 28.2477 21.3556 28.9469C21.7997 28.3612 22.1954 27.7403 22.5386 27.0904ZM24.9817 15.0139C24.9232 13.0769 24.6554 11.1518 24.1829 9.27234C25.2278 8.80257 26.2303 8.24349 27.1791 7.60132C28.8047 9.75191 29.7712 12.3281 29.9613 15.0173L24.9817 15.0139Z" fill="white"/>
</svg>
