<svg width="32" height="32" viewBox="0 0 32 32" fill="none" xmlns="http://www.w3.org/2000/svg">
<path d="M28.0416 8.0144L27.3792 8.6768C26.8372 9.19418 26.1143 9.47897 25.365 9.47026C24.6158 9.46155 23.8996 9.16004 23.3698 8.6302C22.84 8.10036 22.5384 7.38425 22.5297 6.63499C22.521 5.88574 22.8058 5.16281 23.3232 4.6208L23.9856 3.9584L20.0288 0L0 20.0288L3.9584 23.9872L4.6208 23.3248C5.16281 22.8074 5.88574 22.5226 6.63499 22.5313C7.38425 22.54 8.10036 22.8416 8.6302 23.3714C9.16004 23.9012 9.46155 24.6174 9.47026 25.3666C9.47897 26.1159 9.19418 26.8388 8.6768 27.3808L8.0144 28.0432L11.9712 32L32 11.9712L28.0416 8.0144ZM10.6 27.9776C11.2051 27.065 11.4759 25.9712 11.3667 24.8816C11.2574 23.7921 10.7747 22.7739 10.0004 21.9996C9.22612 21.2253 8.2079 20.7426 7.11837 20.6333C6.02883 20.5241 4.93503 20.7949 4.0224 21.4L2.6512 20.0288L20.0272 2.6528L21.3984 4.024C20.7933 4.93663 20.5225 6.03043 20.6317 7.11997C20.741 8.2095 21.2237 9.22772 21.998 10.002C22.7723 10.7763 23.7905 11.259 24.88 11.3683C25.9696 11.4775 27.0634 11.2067 27.976 10.6016L29.3472 11.9728L11.9712 29.3472L10.6 27.9776Z" fill="white"/>
<path d="M18.6853 11.9845L17.3594 13.3104L18.691 14.642L20.017 13.3161L18.6853 11.9845Z" fill="white"/>
<path d="M16.0213 9.32046L14.6953 10.6464L16.0269 11.978L17.3529 10.6521L16.0213 9.32046Z" fill="white"/>
<path d="M21.3494 14.6468L20.0234 15.9728L21.3551 17.3044L22.681 15.9784L21.3494 14.6468Z" fill="white"/>
</svg>
