<svg width="32" height="32" viewBox="0 0 32 32" fill="none" xmlns="http://www.w3.org/2000/svg">
<path d="M0.00188515 21.6264C0.00202452 21.7852 0.0424204 21.9413 0.119292 22.0802C0.196163 22.219 0.306996 22.3361 0.441417 22.4205L15.4958 31.8572C15.6449 31.9505 15.8173 32 15.9932 32C16.1691 32 16.3414 31.9505 16.4905 31.8572L31.5449 22.4205C31.6799 22.3362 31.7912 22.2189 31.8684 22.0796C31.9455 21.9404 31.986 21.7838 31.986 21.6246C31.986 21.4654 31.9455 21.3088 31.8684 21.1696C31.7912 21.0304 31.6799 20.9131 31.5449 20.8287L28.2956 18.8239L31.5503 16.7977C31.6876 16.7139 31.8011 16.5962 31.8799 16.4559C31.9586 16.3156 32 16.1574 32 15.9964C32 15.8355 31.9586 15.6773 31.8799 15.537C31.8011 15.3967 31.6876 15.279 31.5503 15.1952L28.2956 13.1993L31.5503 11.1731C31.6849 11.0886 31.7958 10.9714 31.8727 10.8324C31.9496 10.6933 31.9899 10.537 31.9899 10.3781C31.9899 10.2191 31.9496 10.0628 31.8727 9.92377C31.7958 9.78472 31.6849 9.66749 31.5503 9.58307L16.4888 0.142839C16.3396 0.0494975 16.1673 0 15.9914 0C15.8155 0 15.6432 0.0494975 15.494 0.142839L0.439637 9.57951C0.305069 9.66392 0.194135 9.78116 0.117238 9.92021C0.0403403 10.0593 0 10.2156 0 10.3745C0 10.5334 0.0403403 10.6897 0.117238 10.8288C0.194135 10.9678 0.305069 11.0851 0.439637 11.1695L3.67295 13.1797L0.441417 15.2059C0.306457 15.2902 0.195161 15.4075 0.118001 15.5468C0.0408422 15.686 0.000357537 15.8426 0.000357537 16.0018C0.000357537 16.161 0.0408422 16.3176 0.118001 16.4568C0.195161 16.596 0.306457 16.7133 0.441417 16.7977L3.67295 18.8096L0.441417 20.8358C0.307505 20.9199 0.196993 21.0364 0.12015 21.1746C0.0433064 21.3128 0.00262491 21.4682 0.00188515 21.6264ZM15.9941 2.04086L29.2797 10.37L15.9923 18.6476L2.70669 10.3736L15.9941 2.04086ZM5.44531 14.2872L15.4976 20.5474C15.6461 20.6397 15.8175 20.6886 15.9923 20.6886C16.1671 20.6886 16.3385 20.6397 16.487 20.5474L26.5161 14.305L29.2726 16.0053L15.9923 24.2722L2.70847 16L5.44531 14.2872ZM5.44531 19.9118L15.4976 26.1774C15.6461 26.2696 15.8175 26.3185 15.9923 26.3185C16.1671 26.3185 16.3385 26.2696 16.487 26.1774L26.5161 19.9296L29.2761 21.6317L15.9923 29.9591L2.70314 21.6282L5.44531 19.9118Z" fill="white"/>
</svg>
