<svg width="32" height="32" viewBox="0 0 32 32" fill="none" xmlns="http://www.w3.org/2000/svg">
<path d="M18.9794 31.9917H13.0405C12.8018 31.9917 12.5729 31.8979 12.4042 31.7311C12.2354 31.5642 12.1406 31.338 12.1406 31.102V19.5667C12.1406 19.3307 12.2354 19.1044 12.4042 18.9376C12.5729 18.7707 12.8018 18.677 13.0405 18.677H18.9794C19.218 18.677 19.4469 18.7707 19.6157 18.9376C19.7844 19.1044 19.8792 19.3307 19.8792 19.5667V31.102C19.8792 31.338 19.7844 31.5642 19.6157 31.7311C19.4469 31.8979 19.218 31.9917 18.9794 31.9917ZM13.9403 30.2124H18.0795V20.4581H13.9403V30.2124Z" fill="white"/>
<path d="M30.7816 31.9917H24.7905C24.5518 31.9917 24.3229 31.8979 24.1542 31.7311C23.9854 31.5643 23.8906 31.338 23.8906 31.102V12.5739C23.8906 12.338 23.9854 12.1117 24.1542 11.9449C24.3229 11.778 24.5518 11.6843 24.7905 11.6843H30.7816C31.0202 11.6843 31.2491 11.778 31.4179 11.9449C31.5866 12.1117 31.6814 12.338 31.6814 12.5739V31.102C31.6814 31.338 31.5866 31.5643 31.4179 31.7311C31.2491 31.8979 31.0202 31.9917 30.7816 31.9917ZM25.6921 30.2123H29.8818V13.4654H25.6903L25.6921 30.2123Z" fill="white"/>
<path d="M7.21907 31.9917H1.22796C0.98931 31.9917 0.760433 31.898 0.59168 31.7311C0.422928 31.5643 0.328125 31.3379 0.328125 31.102V23.8869C0.328125 23.6509 0.422928 23.4246 0.59168 23.2578C0.760433 23.0909 0.98931 22.9972 1.22796 22.9972H7.21907C7.45772 22.9972 7.6866 23.0909 7.85535 23.2578C8.0241 23.4246 8.1189 23.6509 8.1189 23.8869V31.102C8.1189 31.3379 8.0241 31.5643 7.85535 31.7311C7.6866 31.898 7.45772 31.9917 7.21907 31.9917ZM2.1296 30.2123H6.31923V24.7783H2.1278L2.1296 30.2123Z" fill="white"/>
<path d="M0.910407 13.6415C0.780924 13.6467 0.652053 13.6212 0.534619 13.567C0.417184 13.5128 0.314615 13.4316 0.235529 13.3301C0.076523 13.158 -0.0078396 12.9311 0.000573948 12.6982C0.00898749 12.4653 0.109508 12.245 0.280523 12.0845L8.6598 4.15766C8.81748 4.01304 9.02234 3.92903 9.23726 3.92087C9.45218 3.91271 9.66296 3.98093 9.83139 4.11318L17.9821 10.4351L30.1893 0.994029C30.2838 0.92393 30.3914 0.872924 30.5059 0.843929C30.6203 0.814933 30.7395 0.808523 30.8565 0.825046C30.9734 0.841568 31.086 0.880706 31.1877 0.940231C31.2893 0.999756 31.3782 1.07849 31.4491 1.17196C31.5972 1.35522 31.6662 1.58893 31.6409 1.82219C31.6156 2.05546 31.4981 2.26942 31.3141 2.41749L18.522 12.2607C18.3623 12.3875 18.1636 12.4566 17.9587 12.4566C17.7539 12.4566 17.5552 12.3875 17.3954 12.2607L9.34367 5.98147L1.54209 13.3692C1.46005 13.4534 1.36204 13.5208 1.25365 13.5675C1.14526 13.6142 1.02863 13.6393 0.910407 13.6415Z" fill="white"/>
<path d="M30.5099 9.8551H30.4649C30.2297 9.8329 30.0115 9.72458 29.853 9.55141C29.6945 9.37824 29.6072 9.15272 29.6083 8.91917L30.1482 2.28231L22.8505 1.79299C22.6118 1.7753 22.3901 1.66459 22.234 1.48523C22.0779 1.30587 22.0003 1.07256 22.0182 0.836609C22.0361 0.600657 22.148 0.381389 22.3294 0.227058C22.5108 0.0727275 22.7468 -0.00402623 22.9855 0.0136702L31.1848 0.591944C31.2997 0.597156 31.4119 0.627857 31.5131 0.681758C31.6144 0.735658 31.702 0.811384 31.7697 0.903331C31.8553 0.981391 31.9206 1.07884 31.9597 1.18731C31.9989 1.29578 32.0109 1.41204 31.9946 1.52609L31.4098 9.05262C31.3878 9.27315 31.2834 9.47765 31.1169 9.62607C30.9505 9.77449 30.7341 9.85616 30.5099 9.8551Z" fill="white"/>
</svg>
