<svg width="32" height="32" viewBox="0 0 32 32" fill="none" xmlns="http://www.w3.org/2000/svg">
<path d="M31.0354 29.4908H30.3147L29.5019 25.4223C29.4478 25.1509 29.3227 24.9099 29.1465 24.7378C28.9703 24.5656 28.7532 24.4722 28.5298 24.4724H25.0213V22.5892H28.0298C28.289 22.5768 28.5342 22.4392 28.7141 22.2052C28.8939 21.9713 28.9944 21.6592 28.9944 21.3345C28.9944 21.0098 28.8939 20.6978 28.7141 20.4639C28.5342 20.23 28.289 20.0924 28.0298 20.08V19.4522C28.0263 15.6769 26.8918 12.0404 24.8503 9.26168C22.8089 6.48293 20.0091 4.76402 17.0043 4.44464V2.51011H18.5086C18.6434 2.51656 18.7779 2.48888 18.904 2.42873C19.03 2.36859 19.1451 2.27722 19.2423 2.16008C19.3395 2.04294 19.4169 1.90248 19.4697 1.74705C19.5225 1.59162 19.5497 1.42445 19.5497 1.25554C19.5497 1.08663 19.5225 0.919464 19.4697 0.764035C19.4169 0.608606 19.3395 0.468082 19.2423 0.350946C19.1451 0.23381 19.03 0.142437 18.904 0.0822929C18.7779 0.0221483 18.6434 -0.00553283 18.5086 0.000915037H13.4973C13.3624 -0.00553283 13.228 0.0221483 13.1019 0.0822929C12.9758 0.142437 12.8607 0.23381 12.7635 0.350946C12.6663 0.468082 12.589 0.608606 12.5362 0.764035C12.4834 0.919464 12.4561 1.08663 12.4561 1.25554C12.4561 1.42445 12.4834 1.59162 12.5362 1.74705C12.589 1.90248 12.6663 2.04294 12.7635 2.16008C12.8607 2.27722 12.9758 2.36859 13.1019 2.42873C13.228 2.48888 13.3624 2.51656 13.4973 2.51011H15.0015V4.44464C11.9967 4.76402 9.19696 6.48293 7.15552 9.26168C5.11407 12.0404 3.97951 15.6769 3.97605 19.4522V20.08C3.71689 20.0924 3.47164 20.23 3.29179 20.4639C3.11194 20.6978 3.01148 21.0098 3.01148 21.3345C3.01148 21.6592 3.11194 21.9713 3.29179 22.2052C3.47164 22.4392 3.71689 22.5768 3.97605 22.5892H6.97875V24.4724H3.47024C3.24677 24.4722 3.02968 24.5656 2.85352 24.7378C2.67735 24.9099 2.55224 25.1509 2.49808 25.4223L1.68528 29.4908H0.964567C0.705412 29.5032 0.460176 29.6408 0.280326 29.8747C0.100476 30.1087 0 30.4207 0 30.7454C0 31.0701 0.100476 31.3821 0.280326 31.6161C0.460176 31.85 0.705412 31.9876 0.964567 32H31.0354C31.2946 31.9876 31.5398 31.85 31.7197 31.6161C31.8995 31.3821 32 31.0701 32 30.7454C32 30.4207 31.8995 30.1087 31.7197 29.8747C31.5398 29.6408 31.2946 29.5032 31.0354 29.4908ZM5.97589 19.4522C5.97589 16.1239 7.032 12.9318 8.91189 10.5783C10.7918 8.22479 13.3414 6.90256 16 6.90256C18.6586 6.90256 21.2082 8.22479 23.0881 10.5783C24.968 12.9318 26.0241 16.1239 26.0241 19.4522V20.08H5.97589V19.4522ZM8.98298 22.5892H23.017V24.4724H8.98298V22.5892ZM3.75092 29.4908L4.25234 26.9816H27.7462L28.2476 29.4908H3.75092Z" fill="white"/>
</svg>
