<svg width="35" height="35" viewBox="0 0 35 35" fill="none" xmlns="http://www.w3.org/2000/svg">
<path d="M26.9376 9.86879C26.9389 8.16863 26.501 6.49695 25.6663 5.01581C24.8315 3.53466 23.6283 2.29429 22.1732 1.41492C20.7181 0.535545 19.0605 0.0470005 17.3611 -0.00335934C15.6617 -0.0537192 13.9781 0.335813 12.4735 1.12748C10.9689 1.91915 9.69432 3.0861 8.77335 4.51521C7.85237 5.94433 7.31622 7.58714 7.21687 9.2844C7.11751 10.9817 7.45832 12.6758 8.20627 14.2026C8.95421 15.7294 10.0839 17.0371 11.4859 17.9989C8.13325 19.1637 5.22624 21.343 3.1681 24.2344C1.10996 27.1259 0.00272768 30.5863 0 34.1355H2.66667C2.67118 30.3177 4.18977 26.6577 6.88932 23.9581C9.58886 21.2586 13.2489 19.74 17.0667 19.7355C19.6832 19.7332 22.1919 18.6931 24.0425 16.8433C25.893 14.9936 26.9342 12.4853 26.9376 9.86879ZM17.0667 17.0688C15.6426 17.0688 14.2506 16.6465 13.0666 15.8554C11.8825 15.0642 10.9597 13.9397 10.4147 12.6241C9.86978 11.3085 9.7272 9.86081 10.005 8.46414C10.2828 7.06748 10.9686 5.78456 11.9755 4.77762C12.9824 3.77069 14.2654 3.08495 15.662 2.80714C17.0587 2.52932 18.5064 2.67191 19.822 3.21686C21.1376 3.76181 22.2621 4.68465 23.0532 5.86869C23.8444 7.05272 24.2667 8.44477 24.2667 9.86879C24.2644 11.7777 23.5051 13.6077 22.1553 14.9575C20.8056 16.3072 18.9755 17.0665 17.0667 17.0688Z" fill="white"/>
<path d="M28.6026 25.8709V20.2709H25.9359V25.8709H20.3359V28.5376H25.9359V34.1376H28.6026V28.5376H34.2026V25.8709H28.6026Z" fill="white"/>
</svg>
