<svg width="36" height="37" viewBox="0 0 36 37" fill="none" xmlns="http://www.w3.org/2000/svg">
<rect x="1" y="1.82227" width="34" height="34" rx="17" stroke="white" stroke-width="2"/>
<path d="M18.0055 15.2286C16.018 15.2286 14.4148 16.8317 14.4148 18.8192C14.4148 20.8067 16.018 22.4099 18.0055 22.4099C19.993 22.4099 21.5961 20.8067 21.5961 18.8192C21.5961 16.8317 19.993 15.2286 18.0055 15.2286ZM18.0055 21.1536C16.7211 21.1536 15.6711 20.1067 15.6711 18.8192C15.6711 17.5317 16.718 16.4849 18.0055 16.4849C19.293 16.4849 20.3398 17.5317 20.3398 18.8192C20.3398 20.1067 19.2898 21.1536 18.0055 21.1536ZM22.5805 15.0817C22.5805 15.5474 22.2055 15.9192 21.743 15.9192C21.2773 15.9192 20.9055 15.5442 20.9055 15.0817C20.9055 14.6192 21.2805 14.2442 21.743 14.2442C22.2055 14.2442 22.5805 14.6192 22.5805 15.0817ZM24.9586 15.9317C24.9055 14.8099 24.6492 13.8161 23.8273 12.9974C23.0086 12.1786 22.0148 11.9224 20.893 11.8661C19.7367 11.8005 16.2711 11.8005 15.1148 11.8661C13.9961 11.9192 13.0023 12.1755 12.1805 12.9942C11.3586 13.813 11.1055 14.8067 11.0492 15.9286C10.9836 17.0849 10.9836 20.5505 11.0492 21.7067C11.1023 22.8286 11.3586 23.8224 12.1805 24.6411C13.0023 25.4599 13.993 25.7161 15.1148 25.7724C16.2711 25.838 19.7367 25.838 20.893 25.7724C22.0148 25.7192 23.0086 25.463 23.8273 24.6411C24.6461 23.8224 24.9023 22.8286 24.9586 21.7067C25.0242 20.5505 25.0242 17.088 24.9586 15.9317ZM23.4648 22.9474C23.2211 23.5599 22.7492 24.0317 22.1336 24.2786C21.2117 24.6442 19.0242 24.5599 18.0055 24.5599C16.9867 24.5599 14.7961 24.6411 13.8773 24.2786C13.2648 24.0349 12.793 23.563 12.5461 22.9474C12.1805 22.0255 12.2648 19.838 12.2648 18.8192C12.2648 17.8005 12.1836 15.6099 12.5461 14.6911C12.7898 14.0786 13.2617 13.6067 13.8773 13.3599C14.7992 12.9942 16.9867 13.0786 18.0055 13.0786C19.0242 13.0786 21.2148 12.9974 22.1336 13.3599C22.7461 13.6036 23.218 14.0755 23.4648 14.6911C23.8305 15.613 23.7461 17.8005 23.7461 18.8192C23.7461 19.838 23.8305 22.0286 23.4648 22.9474Z" fill="white"/>
</svg>
