<svg width="30" height="30" viewBox="0 0 30 30" fill="none" xmlns="http://www.w3.org/2000/svg">
<path d="M29.9997 11.5563C29.994 11.4444 29.958 11.3355 29.8989 11.2381C29.8917 11.2263 29.7874 11.0907 29.7267 11.0454L27.2725 9.20468L27.2727 2.7273C27.2728 1.22105 26.0517 0 24.5455 0H5.45476C3.94857 0 2.72752 1.22098 2.72752 2.72724V9.20474L0.273283 11.0454C0.212623 11.0908 0.108307 11.2263 0.101085 11.2382C0.0420233 11.3355 0.00603681 11.4445 0.000284085 11.5563C-0.000355106 11.5687 0.000284085 27.2723 0.000284085 27.2723C0.000284085 28.7763 1.22338 29.9995 2.72752 29.9995H27.2725C28.7766 29.9995 29.9997 28.7764 29.9997 27.2723C29.9997 27.2723 30.0004 11.5686 29.9997 11.5563ZM12.2731 4.09089C13.2965 4.09089 14.256 4.46705 15.0004 5.14358C15.7448 4.46712 16.7042 4.09089 17.7276 4.09089C19.9835 4.09089 21.8184 5.92588 21.8184 8.18172C21.8184 9.27499 21.393 10.3024 20.62 11.0741L15.4805 16.1656C15.3473 16.2975 15.1742 16.3634 15.0004 16.3634C14.8267 16.3634 14.6536 16.2975 14.5204 16.1656L9.38291 11.076C8.60789 10.3024 8.18245 9.27499 8.18245 8.18172C8.18232 5.92588 10.0173 4.09089 12.2731 4.09089ZM15.9289 21.4269C15.7644 21.5727 15.4215 21.8178 14.9787 21.8178C14.6551 21.8178 14.3428 21.6866 14.0499 21.4269C11.4131 19.0926 4.09034 13.3761 1.80568 11.6L2.94887 10.7426C2.96505 10.758 2.97265 10.7798 2.99049 10.7938C5.5406 12.7793 11.7714 17.6565 14.5439 20.0488C14.6717 20.1593 14.8309 20.2146 14.9893 20.2146C15.1478 20.2146 15.3062 20.1593 15.4348 20.0495C18.2093 17.6578 24.4534 12.78 27.0088 10.7938C27.0268 10.78 27.0344 10.7578 27.0507 10.7423L28.1937 11.5995C25.9019 13.378 18.5453 19.1106 15.9289 21.4269Z" fill="white"/>
</svg>
