<svg width="30" height="29" viewBox="0 0 30 29" fill="none" xmlns="http://www.w3.org/2000/svg">
<path d="M16.875 15C17.8696 15 18.8234 15.3951 19.5266 16.0984C20.2299 16.8016 20.625 17.7554 20.625 18.75V21.5625C20.625 25.4137 16.71 28.125 10.3125 28.125C3.915 28.125 0 25.4137 0 21.5625V18.75C0 17.7554 0.395088 16.8016 1.09835 16.0984C1.80161 15.3951 2.75544 15 3.75 15H16.875ZM26.25 15C27.2446 15 28.1984 15.3951 28.9016 16.0984C29.6049 16.8016 30 17.7554 30 18.75V19.6875C30 23.6044 27.06 26.25 21.5625 26.25C21.2981 26.25 21.0375 26.2444 20.7863 26.2312C21.7969 25.0556 22.395 23.6325 22.4869 22.0106L22.5 21.5625V18.75C22.5 17.4525 22.0612 16.2563 21.3225 15.3056L21.0656 15H26.25ZM10.3125 0C11.1743 -1.28418e-08 12.0277 0.169744 12.8239 0.49954C13.6201 0.829337 14.3435 1.31273 14.9529 1.92211C15.5623 2.5315 16.0457 3.25494 16.3755 4.05114C16.7053 4.84734 16.875 5.7007 16.875 6.5625C16.875 7.4243 16.7053 8.27766 16.3755 9.07386C16.0457 9.87006 15.5623 10.5935 14.9529 11.2029C14.3435 11.8123 13.6201 12.2957 12.8239 12.6255C12.0277 12.9553 11.1743 13.125 10.3125 13.125C8.57202 13.125 6.90282 12.4336 5.67211 11.2029C4.4414 9.97218 3.75 8.30298 3.75 6.5625C3.75 4.82202 4.4414 3.15282 5.67211 1.92211C6.90282 0.691404 8.57202 2.59352e-08 10.3125 0ZM23.4375 3.75C24.6807 3.75 25.873 4.24386 26.7521 5.12294C27.6311 6.00201 28.125 7.1943 28.125 8.4375C28.125 9.6807 27.6311 10.873 26.7521 11.7521C25.873 12.6311 24.6807 13.125 23.4375 13.125C22.1943 13.125 21.002 12.6311 20.1229 11.7521C19.2439 10.873 18.75 9.6807 18.75 8.4375C18.75 7.1943 19.2439 6.00201 20.1229 5.12294C21.002 4.24386 22.1943 3.75 23.4375 3.75Z" fill="white"/>
</svg>
