<svg width="36" height="37" viewBox="0 0 36 37" fill="none" xmlns="http://www.w3.org/2000/svg">
<rect x="1" y="1.82227" width="34" height="34" rx="17" stroke="white" stroke-width="2"/>
<path d="M14.1337 24.8224H11.2313V15.4756H14.1337V24.8224ZM12.6809 14.2006C11.7528 14.2006 11 13.4318 11 12.5037C11 12.0579 11.1771 11.6303 11.4923 11.3151C11.8076 10.9999 12.2351 10.8228 12.6809 10.8228C13.1267 10.8228 13.5543 10.9999 13.8695 11.3151C14.1848 11.6303 14.3619 12.0579 14.3619 12.5037C14.3619 13.4318 13.6088 14.2006 12.6809 14.2006ZM24.9969 24.8224H22.1006V20.2724C22.1006 19.1881 22.0787 17.7974 20.5916 17.7974C19.0825 17.7974 18.8513 18.9756 18.8513 20.1943V24.8224H15.9519V15.4756H18.7356V16.7506H18.7762C19.1637 16.0162 20.1103 15.2412 21.5225 15.2412C24.46 15.2412 25 17.1756 25 19.6881V24.8224H24.9969Z" fill="white"/>
</svg>
