<svg width="30" height="29" viewBox="0 0 30 29" fill="none" xmlns="http://www.w3.org/2000/svg">
<path d="M1.875 14.9639V26.2139C1.875 27.2489 2.71688 28.0889 3.75 28.0889H13.125V14.9639H1.875Z" fill="white"/>
<path d="M28.125 7.46391H22.1925C22.6181 7.17328 22.9837 6.88453 23.2388 6.62578C24.7519 5.10516 24.7519 2.63016 23.2388 1.10953C21.7687 -0.371718 19.2075 -0.367968 17.7394 1.10953C16.9256 1.92516 14.7694 5.24578 15.0675 7.46391H14.9325C15.2288 5.24578 13.0725 1.92516 12.2606 1.10953C10.7906 -0.367968 8.22937 -0.367968 6.76125 1.10953C5.25 2.63016 5.25 5.10516 6.75938 6.62578C7.01625 6.88453 7.38188 7.17328 7.8075 7.46391H1.875C0.841875 7.46391 0 8.30578 0 9.33891V12.1514C0 12.6689 0.42 13.0889 0.9375 13.0889H13.125V9.33891H16.875V13.0889H29.0625C29.58 13.0889 30 12.6689 30 12.1514V9.33891C30 8.30578 29.16 7.46391 28.125 7.46391ZM13.0144 7.40203C13.0144 7.40203 12.9356 7.46391 12.6675 7.46391C11.3719 7.46391 8.89875 6.11766 8.09062 5.30391C7.305 4.51266 7.305 3.22266 8.09062 2.43141C8.47125 2.04891 8.97563 1.83891 9.51188 1.83891C10.0463 1.83891 10.5506 2.04891 10.9312 2.43141C12.195 3.70266 13.4513 6.95016 13.0144 7.40203ZM17.3306 7.46391C17.0644 7.46391 16.9856 7.40391 16.9856 7.40203C16.5487 6.95016 17.805 3.70266 19.0688 2.43141C19.8244 1.66828 21.1463 1.66453 21.9094 2.43141C22.6969 3.22266 22.6969 4.51266 21.9094 5.30391C21.1013 6.11766 18.6281 7.46391 17.3306 7.46391Z" fill="white"/>
<path d="M16.875 14.9639V28.0889H26.25C27.285 28.0889 28.125 27.2489 28.125 26.2139V14.9639H16.875Z" fill="white"/>
</svg>
