<svg width="30" height="34" viewBox="0 0 30 34" fill="none" xmlns="http://www.w3.org/2000/svg">
<path d="M24.267 16.4036C23.9955 11.21 19.6744 7.19083 14.6775 7.48164C9.48019 7.7855 5.50359 12.0023 5.73574 16.9628C5.97913 22.1583 10.2609 26.183 15.2841 25.9332C20.4982 25.6722 24.5254 21.3977 24.267 16.4036Z" fill="white"/>
<path d="M1.43523 12.7821C2.17367 13.299 2.95612 13.7506 3.77363 14.1318C3.98145 14.2306 4.52252 14.0553 4.64234 13.8484C5.59156 12.3216 6.48836 10.7595 7.3683 9.18797C7.47502 9.00155 7.47689 8.52619 7.3683 8.45907C6.12515 7.71341 4.98496 6.73471 3.68189 6.64523C1.99689 6.62846 0.654508 7.59596 0.180836 8.99409C-0.0538966 9.67528 -0.0583591 10.4142 0.168129 11.0982C0.394618 11.7821 0.839619 12.3735 1.43523 12.7821Z" fill="white"/>
<path d="M28.3842 20.4842C27.7345 20.061 27.0268 19.7236 26.3697 19.3116C25.8847 19.0077 25.5796 19.1252 25.3081 19.5894C24.4282 21.123 23.5389 22.6516 22.6402 24.1752C22.3837 24.6114 22.4361 24.9209 22.8948 25.167C23.6325 25.5696 24.3327 26.045 25.0909 26.4029C27.405 27.4972 30.0149 25.8679 29.9999 23.1648C29.9662 22.1228 29.4158 21.1571 28.3842 20.4842Z" fill="white"/>
<path d="M4.65376 19.5669C4.52457 19.3581 3.99286 19.1792 3.78504 19.2761C2.96739 19.6578 2.18384 20.108 1.44289 20.622C0.846692 21.0299 0.400248 21.6202 0.171194 22.3034C-0.0578595 22.9866 -0.0570414 23.7255 0.173525 24.4082C0.635964 25.8026 1.96712 26.7645 3.71764 26.7589C4.99076 26.703 6.11971 25.6963 7.36474 24.9618C7.47894 24.8947 7.48081 24.4249 7.36474 24.2311C6.49602 22.6596 5.6011 21.0955 4.65376 19.5669Z" fill="white"/>
<path d="M25.2949 13.8091C25.5214 14.2006 25.7779 14.4504 26.2666 14.154C27.0155 13.7029 27.7981 13.3189 28.5133 12.8286C29.5018 12.1556 29.9961 11.1825 29.9961 10.3455C29.9698 7.48959 27.3075 5.90504 25.0159 7.03287C24.2914 7.38893 23.6155 7.84192 22.9078 8.2334C22.4622 8.4776 22.3667 8.77401 22.6307 9.22141C23.5275 10.7444 24.4093 12.2787 25.2949 13.8091Z" fill="white"/>
<path d="M12.4327 6.38003C13.2733 6.36512 14.1177 6.38003 14.9583 6.38003C15.8308 6.38003 16.7033 6.36699 17.5795 6.38003C18.1599 6.39122 18.4444 6.17125 18.4201 5.5598C18.3883 4.75261 18.4369 3.94356 18.3864 3.13637C18.326 2.28478 17.9436 1.48764 17.3163 0.90563C16.689 0.323618 15.8635 0 15.0061 0C14.1487 0 13.3232 0.323618 12.6959 0.90563C12.0686 1.48764 11.6862 2.28478 11.6258 3.13637C11.5752 3.9417 11.6258 4.75075 11.5902 5.5598C11.5621 6.1787 11.8561 6.39122 12.4327 6.38003Z" fill="white"/>
<path d="M17.5723 27.0331C16.7317 27.0498 15.8873 27.0331 15.0467 27.0331V27.0219C14.1742 27.0219 13.3018 27.0349 12.4256 27.0219C11.8433 27.0107 11.5606 27.2344 11.5849 27.8458C11.6168 28.6512 11.57 29.4621 11.6205 30.2693C11.6809 31.1209 12.0633 31.918 12.6906 32.5C13.3179 33.082 14.1434 33.4056 15.0008 33.4056C15.8582 33.4056 16.6838 33.082 17.311 32.5C17.9383 31.918 18.3207 31.1209 18.3811 30.2693C18.4317 29.4639 18.3811 28.6549 18.4148 27.8458C18.4429 27.2307 18.149 27.02 17.5723 27.0331Z" fill="white"/>
</svg>
