<svg width="32" height="32" viewBox="0 0 32 32" fill="none" xmlns="http://www.w3.org/2000/svg">
<path d="M10.5249 20.4019L11.094 22.5197C11.1966 22.9015 10.9089 23.2769 10.5134 23.2769H7.70647C7.31103 23.2769 7.02328 22.9016 7.12591 22.5197L7.69503 20.4019H10.5249Z" fill="white"/>
<path d="M9.10986 20.4021C13.7959 20.4021 17.5947 15.9748 17.5947 10.5135C17.5947 5.05225 13.7959 0.625 9.10986 0.625C4.4238 0.625 0.625 5.05225 0.625 10.5135C0.625 15.9748 4.4238 20.4021 9.10986 20.4021Z" fill="white"/>
<path d="M24.3051 23.1011L24.8743 25.2189C24.9769 25.6008 24.6891 25.9761 24.2937 25.9761H21.4867C21.0913 25.9761 20.8036 25.6008 20.9062 25.2189L21.4753 23.1011H24.3051Z" fill="white"/>
<path d="M30.5463 7.51042C30.3776 7.20923 29.9967 7.1018 29.6956 7.27048C29.3944 7.43911 29.2869 7.81998 29.4556 8.12117C30.3024 9.63342 30.7499 11.3941 30.7499 13.2128C30.7499 18.3208 27.224 22.4764 22.89 22.4764C18.5561 22.4764 15.0302 18.3208 15.0302 13.2128C15.0302 8.10486 18.5561 3.9493 22.89 3.9493C23.8613 3.9493 24.8093 4.15587 25.7076 4.56324C26.022 4.70568 26.3923 4.56643 26.5349 4.25212C26.6775 3.93774 26.5383 3.5673 26.2239 3.42481C25.1623 2.94337 24.0406 2.69931 22.89 2.69931C20.6373 2.69931 18.5733 3.64837 16.9813 5.21761C16.2715 3.81287 15.2883 2.61337 14.1005 1.71475C12.6176 0.592936 10.8919 0 9.10992 0C6.65824 0 4.35905 1.106 2.63587 3.11431C0.936061 5.09524 0 7.72298 0 10.5135C0 13.3041 0.936061 15.9318 2.63587 17.9128C3.84274 19.3193 5.3323 20.2825 6.95867 20.7339L6.5223 22.3578C6.42249 22.729 6.49949 23.117 6.73342 23.4221C6.96736 23.7271 7.32205 23.9021 7.70642 23.9021H8.69386C8.88454 24.4886 8.83836 25.1351 8.55354 25.6917C8.0298 26.7151 8.0298 27.937 8.55354 28.9604C8.89473 29.6272 8.89473 30.4234 8.55354 31.0902C8.3963 31.3976 8.51798 31.7741 8.82529 31.9314C8.91642 31.978 9.01367 32.0001 9.10948 32.0001C9.33667 32.0001 9.55579 31.8758 9.66635 31.6597C10.19 30.6363 10.19 29.4144 9.66635 28.391C9.32511 27.7242 9.32511 26.928 9.66635 26.2611C10.0415 25.5279 10.1464 24.6931 9.98398 23.9021H10.5134C10.8978 23.9021 11.2525 23.7272 11.4864 23.4221C11.7204 23.117 11.7974 22.7291 11.6975 22.3578L11.2614 20.7349C12.6463 20.3513 13.9297 19.5969 15.0253 18.5128C16.2581 20.94 18.3099 22.7485 20.7398 23.4298L20.3025 25.0571C20.2026 25.4283 20.2796 25.8163 20.5136 26.1214C20.7475 26.4264 21.1022 26.6014 21.4866 26.6014H22.474C22.6646 27.1879 22.6185 27.8344 22.3336 28.391C21.81 29.4144 21.81 30.6363 22.3336 31.6597C22.4443 31.8758 22.6633 32.0001 22.8905 32.0001C22.9863 32.0001 23.0836 31.978 23.1747 31.9314C23.482 31.7741 23.6036 31.3976 23.4465 31.0902C23.1053 30.4234 23.1053 29.6272 23.4465 28.9604C23.8216 28.2272 23.9266 27.3923 23.7641 26.6014H24.2936C24.6779 26.6014 25.0326 26.4264 25.2666 26.1213C25.5005 25.8163 25.5775 25.4283 25.4777 25.057L25.0413 23.4332C26.6677 22.9818 28.1573 22.0186 29.3641 20.6121C31.0639 18.6311 32 16.0034 32 13.2128C31.9999 11.1807 31.4972 9.20886 30.5463 7.51042ZM10.4823 22.6521H7.73748L8.18836 20.9744C8.49255 21.0093 8.79998 21.0271 9.10992 21.0271C9.41998 21.0271 9.72742 21.0095 10.0315 20.9746L10.4823 22.6521ZM9.10992 19.7771C4.77593 19.7771 1.25 15.6215 1.25 10.5136C1.25 5.40561 4.77593 1.25 9.10992 1.25C12.0307 1.25 14.7337 3.19543 16.0817 6.23574C14.6509 8.0933 13.7802 10.5378 13.7802 13.2128C13.7802 14.6495 14.0315 16.0197 14.4855 17.2682C13.0227 18.8888 11.1267 19.7771 9.10992 19.7771ZM24.2624 25.3514H21.5176L21.9687 23.6729C22.2717 23.7083 22.579 23.7264 22.89 23.7264C23.2 23.7264 23.5074 23.7086 23.8116 23.6736L24.2624 25.3514Z" fill="white"/>
<path d="M28.2891 6.20947C28.4534 6.20947 28.6147 6.1426 28.7309 6.02635C28.8471 5.9101 28.9141 5.74885 28.9141 5.58447C28.9141 5.4201 28.8472 5.25885 28.7309 5.1426C28.6147 5.02635 28.4534 4.95947 28.2891 4.95947C28.1247 4.95947 27.9634 5.02635 27.8472 5.1426C27.731 5.25885 27.6641 5.41947 27.6641 5.58447C27.6641 5.74885 27.7309 5.9101 27.8472 6.02635C27.9634 6.1426 28.1247 6.20947 28.2891 6.20947Z" fill="white"/>
</svg>
