<svg width="62" height="60" viewBox="0 0 62 60" fill="none" xmlns="http://www.w3.org/2000/svg">
<g clip-path="url(#clip0_3964_15500)">
<path d="M30.5455 59.1945C27.5975 59.1945 24.6496 59.1945 21.7016 59.1945C20.3203 59.1945 19.7097 58.531 19.8296 57.1642C20.2131 52.7265 23.6154 48.8199 27.9828 47.7993C33.986 46.398 39.7292 49.9819 41.0923 55.9913C41.2068 56.4953 41.2813 57.0174 41.2977 57.534C41.3304 58.5546 40.6943 59.1891 39.6637 59.1927C36.6249 59.2 33.5861 59.1945 30.5473 59.1963L30.5455 59.1945Z" fill="url(#paint0_linear_3964_15500)"/>
<path d="M10.795 25.471C7.89248 25.471 4.98815 25.4239 2.08746 25.491C0.731618 25.5218 -0.100786 24.8529 0.0955011 23.2304C0.628022 18.8163 3.94673 15.0692 8.23961 14.074C14.2809 12.6745 20.0278 16.2874 21.36 22.3349C21.4618 22.7972 21.5345 23.2721 21.5581 23.7434C21.609 24.7876 20.9583 25.4638 19.9133 25.4674C16.8744 25.4747 13.8356 25.4692 10.7968 25.471H10.795Z" fill="url(#paint1_linear_3964_15500)"/>
<path d="M50.2778 34.1743C47.3062 34.1743 44.3365 34.1743 41.3649 34.1743C40.0909 34.1743 39.4438 33.4583 39.5692 32.1966C40.0872 26.9413 44.3383 22.8135 49.5526 22.5017C55.0014 22.1754 59.6942 25.6922 60.8501 30.9802C60.9609 31.4859 61.0209 32.0098 61.0336 32.5265C61.0591 33.5525 60.4357 34.1707 59.3943 34.1725C56.3555 34.1798 53.3166 34.1743 50.2778 34.1743Z" fill="url(#paint2_linear_3964_15500)"/>
<path d="M10.9313 12.4171C7.9197 12.4117 5.517 9.99158 5.52063 6.96421C5.52245 3.9169 7.94696 1.52944 11.0276 1.54032C14.0301 1.5512 16.4146 3.98397 16.4055 7.02585C16.3964 10.0315 13.9683 12.4225 10.9313 12.4171Z" fill="url(#paint3_linear_3964_15500)"/>
<path d="M44.7146 15.6439C44.72 12.6346 47.1427 10.2399 50.1779 10.2435C53.2258 10.2472 55.6121 12.6709 55.5994 15.7526C55.5867 18.7437 53.144 21.1294 50.1016 21.1203C47.1009 21.1113 44.7073 18.6785 44.7146 15.6439Z" fill="url(#paint4_linear_3964_15500)"/>
<path d="M25.1185 40.6533C25.1258 37.6476 27.5539 35.2584 30.5909 35.2638C33.6352 35.2692 36.0179 37.6984 36.0034 40.782C35.9888 43.7676 33.5389 46.1515 30.4964 46.1388C27.5012 46.1279 25.1112 43.6879 25.1185 40.6514V40.6533Z" fill="url(#paint5_linear_3964_15500)"/>
<path d="M40.4435 4.85051C40.129 3.86072 39.8619 3.02865 39.6002 2.19476C39.3294 1.33368 39.5475 0.731834 40.2072 0.505234C40.8597 0.280447 41.434 0.653884 41.7048 1.49321C42.25 3.18999 42.7953 4.88677 43.3278 6.58898C43.7676 7.99753 42.9825 9.00725 41.4885 8.97281C39.7892 8.93474 38.0917 8.89667 36.3923 8.85679C36.2106 8.85317 36.0288 8.85679 35.8507 8.82597C35.211 8.72446 34.782 8.25676 34.7984 7.69298C34.8166 7.10382 35.3036 6.61617 35.9725 6.61074C36.7413 6.60349 37.5119 6.66149 38.2825 6.68687C38.4588 6.69231 38.6351 6.68687 38.8677 6.5346C37.9281 6.13941 37.0066 5.68984 36.0452 5.35628C31.1653 3.66675 26.2544 3.57974 21.3273 5.15325C20.304 5.47955 19.6588 5.29283 19.4407 4.60397C19.2135 3.88791 19.6079 3.36945 20.6312 3.05221C27.2468 1.00194 33.6588 1.51496 39.8691 4.57678C40.0091 4.64566 40.1527 4.71092 40.4471 4.8487L40.4435 4.85051Z" fill="url(#paint6_linear_3964_15500)"/>
<path d="M5.41885 33.7718C4.93358 34.5658 4.47013 35.3344 3.99577 36.0958C3.51595 36.8662 2.91437 37.0675 2.30915 36.6777C1.74937 36.3188 1.67121 35.6716 2.11286 34.9447C3.04159 33.4165 3.9685 31.8901 4.90814 30.3674C5.6842 29.1111 6.90373 29.0223 7.85972 30.1571C9.012 31.5257 10.1552 32.9035 11.2966 34.283C11.8709 34.9773 11.8654 35.6245 11.302 36.0632C10.755 36.491 10.1643 36.3677 9.60086 35.697C9.00473 34.99 8.41769 34.2758 7.71796 33.4328C8.21049 37.1962 9.46274 40.4864 11.4838 43.4866C12.9268 45.6293 14.6825 47.4766 16.7563 49.0192C16.8653 49.1008 16.9725 49.1842 17.078 49.2694C17.6868 49.7589 17.8122 50.3988 17.4033 50.9191C17.0107 51.4158 16.3382 51.5082 15.7766 51.0314C14.4844 49.9329 13.1322 48.8797 11.9836 47.6415C8.5231 43.9126 6.40756 39.5021 5.63695 34.4607C5.60969 34.2812 5.56788 34.1054 5.52608 33.9295C5.51881 33.8951 5.48428 33.8661 5.41885 33.7682V33.7718Z" fill="url(#paint7_linear_3964_15500)"/>
<path d="M46.9246 48.8616C47.9387 47.754 49.0165 46.6989 49.9525 45.5297C51.9735 43.0081 53.3366 40.1511 54.1454 37.0168C54.2508 36.6053 54.5725 36.1593 54.9251 35.9327C55.1559 35.7841 55.6775 35.911 55.972 36.0796C56.3955 36.3243 56.4736 36.7865 56.3518 37.2796C55.434 41.0067 53.7856 44.3695 51.341 47.3298C50.6958 48.1111 49.9888 48.8398 49.2128 49.7045C50.027 49.574 50.7231 49.4634 51.4174 49.3474C52.1171 49.2314 52.6696 49.565 52.8187 50.1976C52.955 50.7759 52.5951 51.3632 51.9117 51.4865C49.8653 51.8563 47.817 52.2225 45.7578 52.5017C44.6418 52.654 44.0493 52.0721 44.1947 50.9409C44.4619 48.858 44.829 46.7877 45.1925 44.7193C45.3016 44.1012 45.9141 43.7422 46.4629 43.8601C47.0482 43.9852 47.4189 44.4746 47.3299 45.1254C47.1645 46.3309 46.9555 47.5292 46.7628 48.7293C46.8173 48.7728 46.8719 48.8145 46.9264 48.858L46.9246 48.8616Z" fill="url(#paint8_linear_3964_15500)"/>
</g>
<defs>
<linearGradient id="paint0_linear_3964_15500" x1="30.6237" y1="47.4327" x2="30.6054" y2="59.1967" gradientUnits="userSpaceOnUse">
<stop stop-color="#7EB3D6"/>
<stop offset="1" stop-color="#40789D"/>
</linearGradient>
<linearGradient id="paint1_linear_3964_15500" x1="10.8807" y1="13.7098" x2="10.8624" y2="25.4921" gradientUnits="userSpaceOnUse">
<stop stop-color="#7EB3D6"/>
<stop offset="1" stop-color="#40789D"/>
</linearGradient>
<linearGradient id="paint2_linear_3964_15500" x1="50.3609" y1="22.4172" x2="50.3426" y2="34.1764" gradientUnits="userSpaceOnUse">
<stop stop-color="#7EB3D6"/>
<stop offset="1" stop-color="#40789D"/>
</linearGradient>
<linearGradient id="paint3_linear_3964_15500" x1="10.9969" y1="1.48117" x2="10.9657" y2="12.4171" gradientUnits="userSpaceOnUse">
<stop stop-color="#7EB3D6"/>
<stop offset="1" stop-color="#40789D"/>
</linearGradient>
<linearGradient id="paint4_linear_3964_15500" x1="50.1908" y1="10.1844" x2="50.1596" y2="21.1204" gradientUnits="userSpaceOnUse">
<stop stop-color="#7EB3D6"/>
<stop offset="1" stop-color="#40789D"/>
</linearGradient>
<linearGradient id="paint5_linear_3964_15500" x1="30.5948" y1="35.2047" x2="30.5636" y2="46.1388" gradientUnits="userSpaceOnUse">
<stop stop-color="#7EB3D6"/>
<stop offset="1" stop-color="#40789D"/>
</linearGradient>
<linearGradient id="paint6_linear_3964_15500" x1="31.4888" y1="0.394606" x2="31.4801" y2="8.97373" gradientUnits="userSpaceOnUse">
<stop stop-color="#7EB3D6"/>
<stop offset="1" stop-color="#40789D"/>
</linearGradient>
<linearGradient id="paint7_linear_3964_15500" x1="9.78385" y1="29.2426" x2="9.69603" y2="51.3442" gradientUnits="userSpaceOnUse">
<stop stop-color="#7EB3D6"/>
<stop offset="1" stop-color="#40789D"/>
</linearGradient>
<linearGradient id="paint8_linear_3964_15500" x1="50.3265" y1="35.7764" x2="50.2613" y2="52.5255" gradientUnits="userSpaceOnUse">
<stop stop-color="#7EB3D6"/>
<stop offset="1" stop-color="#40789D"/>
</linearGradient>
<clipPath id="clip0_3964_15500">
<rect width="60.9672" height="58.7564" fill="white" transform="translate(0.0664062 0.439941)"/>
</clipPath>
</defs>
</svg>
