<svg width="36" height="37" viewBox="0 0 36 37" fill="none" xmlns="http://www.w3.org/2000/svg">
<rect x="1" y="1.82227" width="34" height="34" rx="17" stroke="white" stroke-width="2"/>
<path d="M25.75 18.8223C25.75 23.1035 22.2812 26.5723 18 26.5723C17.2 26.5723 16.4313 26.4504 15.7063 26.2254C16.0219 25.7098 16.4937 24.866 16.6687 24.1941C16.7625 23.8316 17.15 22.3504 17.15 22.3504C17.4031 22.8316 18.1406 23.241 18.925 23.241C21.2625 23.241 22.9469 21.091 22.9469 18.4191C22.9469 15.8598 20.8562 13.9441 18.1687 13.9441C14.825 13.9441 13.0469 16.1879 13.0469 18.6348C13.0469 19.7723 13.6531 21.1879 14.6188 21.6379C14.7656 21.7066 14.8438 21.6754 14.8781 21.5348C14.9031 21.4285 15.0344 20.9004 15.0938 20.6566C15.1125 20.5785 15.1031 20.5098 15.0406 20.4348C14.725 20.0441 14.4688 19.3316 14.4688 18.666C14.4688 16.9566 15.7625 15.3035 17.9688 15.3035C19.8719 15.3035 21.2063 16.6004 21.2063 18.4566C21.2063 20.5535 20.1469 22.0066 18.7688 22.0066C18.0094 22.0066 17.4375 21.3785 17.6219 20.6066C17.8406 19.6848 18.2625 18.691 18.2625 18.0254C18.2625 17.4316 17.9438 16.9348 17.2812 16.9348C16.5031 16.9348 15.8781 17.7379 15.8781 18.816C15.8781 19.5035 16.1094 19.966 16.1094 19.966C16.1094 19.966 15.3438 23.2098 15.2031 23.816C15.0469 24.4848 15.1094 25.4285 15.175 26.041C12.2938 24.9129 10.25 22.1066 10.25 18.8223C10.25 14.541 13.7188 11.0723 18 11.0723C22.2812 11.0723 25.75 14.541 25.75 18.8223Z" fill="white"/>
</svg>
