<svg width="30" height="30" viewBox="0 0 30 30" fill="none" xmlns="http://www.w3.org/2000/svg">
<g clip-path="url(#clip0_208_1003)">
<path d="M2.63672 0C1.18283 0 0 1.18283 0 2.63672V13.3594H13.3594V0H2.63672ZM8.73047 7.55859H7.55859V8.73047C7.55859 9.21586 7.16508 9.60938 6.67969 9.60938C6.1943 9.60938 5.80078 9.21586 5.80078 8.73047V7.55859H4.62891C4.14352 7.55859 3.75 7.16508 3.75 6.67969C3.75 6.1943 4.14352 5.80078 4.62891 5.80078H5.80078V4.62891C5.80078 4.14352 6.1943 3.75 6.67969 3.75C7.16508 3.75 7.55859 4.14352 7.55859 4.62891V5.80078H8.73047C9.21586 5.80078 9.60938 6.1943 9.60938 6.67969C9.60938 7.16508 9.21586 7.55859 8.73047 7.55859Z" fill="white"/>
<path d="M27.9981 13.3594H28.4766V2.63672C28.4766 1.18283 27.2937 0 25.8398 0H15.1172V13.0424C16.8566 11.7337 19.0179 10.957 21.3574 10.957C23.88 10.957 26.1954 11.86 27.9981 13.3594ZM18.8672 6.67969C18.8672 6.1943 19.2607 5.80078 19.7461 5.80078H23.8477C24.333 5.80078 24.7266 6.1943 24.7266 6.67969C24.7266 7.16508 24.333 7.55859 23.8477 7.55859H19.7461C19.2607 7.55859 18.8672 7.16508 18.8672 6.67969Z" fill="white"/>
<path d="M13.0424 15.1172H0V25.8398C0 27.2937 1.18283 28.4766 2.63672 28.4766H13.3594V27.9981C11.86 26.1954 10.957 23.8799 10.957 21.3574C10.957 19.0179 11.7337 16.8566 13.0424 15.1172ZM8.76598 22.6403C9.10922 22.9835 9.10922 23.54 8.76598 23.8832C8.59441 24.0548 8.36947 24.1406 8.14453 24.1406C7.91959 24.1406 7.69465 24.0548 7.52309 23.8832L6.67969 23.0398L5.83629 23.8832C5.66473 24.0548 5.43979 24.1406 5.21484 24.1406C4.9899 24.1406 4.76496 24.0548 4.5934 23.8832C4.25016 23.5399 4.25016 22.9835 4.5934 22.6402L5.43674 21.7969L4.59334 20.9535C4.2501 20.6102 4.2501 20.0538 4.59334 19.7105C4.93652 19.3673 5.49305 19.3673 5.83629 19.7105L6.67969 20.5539L7.52309 19.7105C7.86627 19.3673 8.42279 19.3673 8.76604 19.7105C9.10928 20.0538 9.10928 20.6102 8.76604 20.9535L7.92264 21.7969L8.76598 22.6403Z" fill="white"/>
<path d="M21.3574 12.7148C16.5919 12.7148 12.7148 16.5919 12.7148 21.3574C12.7148 26.123 16.5919 30 21.3574 30C26.123 30 30 26.123 30 21.3574C30 16.5919 26.123 12.7148 21.3574 12.7148ZM23.4082 23.7012H19.3066C18.8212 23.7012 18.4277 23.3077 18.4277 22.8223C18.4277 22.3369 18.8212 21.9434 19.3066 21.9434H23.4082C23.8936 21.9434 24.2871 22.3369 24.2871 22.8223C24.2871 23.3077 23.8936 23.7012 23.4082 23.7012ZM23.4082 20.7715H19.3066C18.8212 20.7715 18.4277 20.378 18.4277 19.8926C18.4277 19.4072 18.8212 19.0137 19.3066 19.0137H23.4082C23.8936 19.0137 24.2871 19.4072 24.2871 19.8926C24.2871 20.378 23.8936 20.7715 23.4082 20.7715Z" fill="white"/>
</g>
<defs>
<clipPath id="clip0_208_1003">
<rect width="30" height="30" fill="white"/>
</clipPath>
</defs>
</svg>
