<svg width="31" height="31" viewBox="0 0 31 31" fill="none" xmlns="http://www.w3.org/2000/svg">
<path d="M15.9766 0.0983276C12.7109 0.0983276 9.92969 1.66278 8.90625 3.84833H5.97656C3.21875 3.84833 0.976562 5.52997 0.976562 7.59833V26.3483C0.976562 28.4167 3.21875 30.0983 5.97656 30.0983H25.9766C28.7344 30.0983 30.9766 28.4167 30.9766 26.3483V7.59833C30.9766 5.52997 28.7344 3.84833 25.9766 3.84833H23.0469C22.0234 1.66278 19.2422 0.0983276 15.9766 0.0983276ZM15.9766 3.84833C16.6396 3.84833 17.2755 4.04587 17.7443 4.3975C18.2132 4.74913 18.4766 5.22605 18.4766 5.72333C18.4766 6.22061 18.2132 6.69752 17.7443 7.04915C17.2755 7.40078 16.6396 7.59833 15.9766 7.59833C15.3135 7.59833 14.6776 7.40078 14.2088 7.04915C13.74 6.69752 13.4766 6.22061 13.4766 5.72333C13.4766 5.22605 13.74 4.74913 14.2088 4.3975C14.6776 4.04587 15.3135 3.84833 15.9766 3.84833ZM6.60156 16.0358C6.60156 15.6629 6.79911 15.3052 7.15074 15.0415C7.50237 14.7777 7.97928 14.6296 8.47656 14.6296C8.97384 14.6296 9.45076 14.7777 9.80239 15.0415C10.154 15.3052 10.3516 15.6629 10.3516 16.0358C10.3516 16.4088 10.154 16.7665 9.80239 17.0302C9.45076 17.2939 8.97384 17.4421 8.47656 17.4421C7.97928 17.4421 7.50237 17.2939 7.15074 17.0302C6.79911 16.7665 6.60156 16.4088 6.60156 16.0358ZM14.7266 15.0983H24.7266C25.4141 15.0983 25.9766 15.5202 25.9766 16.0358C25.9766 16.5515 25.4141 16.9733 24.7266 16.9733H14.7266C14.0391 16.9733 13.4766 16.5515 13.4766 16.0358C13.4766 15.5202 14.0391 15.0983 14.7266 15.0983ZM6.60156 21.6608C6.60156 21.2879 6.79911 20.9302 7.15074 20.6665C7.50237 20.4027 7.97928 20.2546 8.47656 20.2546C8.97384 20.2546 9.45076 20.4027 9.80239 20.6665C10.154 20.9302 10.3516 21.2879 10.3516 21.6608C10.3516 22.0338 10.154 22.3915 9.80239 22.6552C9.45076 22.9189 8.97384 23.0671 8.47656 23.0671C7.97928 23.0671 7.50237 22.9189 7.15074 22.6552C6.79911 22.3915 6.60156 22.0338 6.60156 21.6608ZM13.4766 21.6608C13.4766 21.1452 14.0391 20.7233 14.7266 20.7233H24.7266C25.4141 20.7233 25.9766 21.1452 25.9766 21.6608C25.9766 22.1765 25.4141 22.5983 24.7266 22.5983H14.7266C14.0391 22.5983 13.4766 22.1765 13.4766 21.6608Z" fill="white"/>
</svg>
