<svg width="60" height="60" viewBox="0 0 60 60" fill="none" xmlns="http://www.w3.org/2000/svg">
<g clip-path="url(#clip0_3964_15514)">
<path d="M8.22704 29.3981C6.7207 28.3936 5.27832 27.4291 3.83425 26.4697C2.2993 25.4501 1.29283 24.0745 0.939385 22.256C0.424368 19.6068 1.53687 17.0311 3.85613 15.5802C6.94455 13.6497 10.0464 11.7393 13.1433 9.82211C17.5209 7.11102 21.9002 4.4016 26.2762 1.68717C28.9607 0.0240811 31.6418 0.0190668 34.3263 1.68049C41.7284 6.26192 49.1339 10.8383 56.5292 15.4315C60.8749 18.1292 60.9624 23.6784 56.7144 26.5182C49.3005 31.4724 41.8816 36.4198 34.466 41.369C31.8572 43.1107 28.8648 43.1458 26.256 41.4325C23.9637 39.9265 21.6848 38.4039 19.4144 36.8661C18.3389 36.1374 17.9568 34.8938 18.3843 33.7288C18.7899 32.6257 19.8974 31.8568 21.0873 31.9922C21.6242 32.054 22.1847 32.2864 22.6425 32.5822C24.8069 33.9779 26.9376 35.422 29.0819 36.8461C30.0665 37.4996 30.5579 37.4979 31.5526 36.8344C38.9362 31.9103 46.3198 26.9845 53.7034 22.0588C54.725 21.3768 54.7199 20.6364 53.6815 19.9929C46.2794 15.4064 38.8722 10.8266 31.4769 6.23184C30.6707 5.7304 29.952 5.72873 29.1408 6.23184C21.7471 10.8283 14.3433 15.4064 6.94118 19.9895C5.89264 20.638 5.87412 21.3518 6.89742 22.0354C8.86324 23.3525 10.8392 24.6529 12.7949 25.9817C13.145 26.219 13.3806 26.2106 13.7408 25.9867C17.8239 23.436 21.9389 20.9372 26.0069 18.3615C28.8765 16.543 31.6805 16.4962 34.5468 18.3281C36.6624 19.6803 38.815 20.974 40.9424 22.3112C41.964 22.953 42.437 24.0378 42.2064 25.0858C41.9388 26.2992 41.0922 27.0965 39.8434 27.272C39.1196 27.374 38.4902 27.1116 37.8876 26.7355C35.7552 25.4084 33.6076 24.103 31.487 22.7591C30.6841 22.2493 29.9604 22.2426 29.1509 22.7474C21.7589 27.3456 14.3551 31.927 6.95633 36.5168C5.90947 37.167 5.88927 37.8957 6.90079 38.571C14.3012 43.5068 21.7016 48.4426 29.1021 53.3767C30.0564 54.0135 30.5596 54.0152 31.5189 53.3767C38.9227 48.4426 46.3248 43.5068 53.7269 38.571C54.6779 37.9375 54.7014 37.279 53.8077 36.597C52.5421 35.6309 52.2745 34.0698 53.1648 32.8413C54.0484 31.6211 55.654 31.3687 56.9618 32.2429C60.8008 34.8069 60.747 40.3143 56.8271 42.9636C52.84 45.6596 48.8225 48.3122 44.8185 50.9832C41.3884 53.2714 37.9583 55.5596 34.5283 57.8478C31.8606 59.6279 28.8092 59.6513 26.15 57.8796C18.6755 52.902 11.201 47.9211 3.73832 42.9251C-0.270737 40.2408 -0.178168 34.6749 3.90157 32.0891C5.31366 31.1932 6.7409 30.3224 8.22873 29.3981H8.22704Z" fill="url(#paint0_linear_3964_15514)"/>
</g>
<defs>
<linearGradient id="paint0_linear_3964_15514" x1="30.4992" y1="0.117794" x2="30.3312" y2="59.1957" gradientUnits="userSpaceOnUse">
<stop stop-color="#7EB3D6"/>
<stop offset="1" stop-color="#40789D"/>
</linearGradient>
<clipPath id="clip0_3964_15514">
<rect width="59.062" height="58.7564" fill="white" transform="translate(0.783203 0.439941)"/>
</clipPath>
</defs>
</svg>
