<svg width="36" height="37" viewBox="0 0 36 37" fill="none" xmlns="http://www.w3.org/2000/svg">
<rect x="1" y="1.82227" width="34" height="34" rx="17" stroke="white" stroke-width="2"/>
<path d="M25.1717 14.5575C24.1788 14.5575 23.2266 14.1919 22.5245 13.5411C21.8225 12.8903 21.4281 12.0076 21.4281 11.0873C21.4281 11.0739 21.4281 11.0605 21.4281 11.0472V10.8223H18.4815V21.735C18.4812 22.2275 18.3143 22.7075 18.0041 23.1075C17.6941 23.5075 17.2564 23.8072 16.7529 23.9645C16.2494 24.1217 15.7054 24.1286 15.1974 23.9842C14.6894 23.8398 14.2431 23.5512 13.9213 23.1593C13.5995 22.7674 13.4184 22.2918 13.4036 21.7994C13.3887 21.3071 13.5408 20.8228 13.8385 20.4148C14.1362 20.0069 14.5644 19.6957 15.0629 19.5251C15.5614 19.3546 16.105 19.3334 16.6172 19.4643V16.6864C16.3927 16.6608 16.1668 16.6479 15.9406 16.6479C12.9107 16.6479 10.4531 18.9254 10.4531 21.735C10.4531 24.5445 12.91 26.8223 15.9406 26.8223C16.1668 26.8223 16.3927 26.8094 16.6172 26.7838C17.9453 26.631 19.1674 26.0335 20.0534 25.1037C20.9395 24.174 21.4284 22.9761 21.4281 21.7355V15.8656C21.9081 16.4292 22.547 16.8587 23.274 17.1065C24.001 17.3544 24.7879 17.4109 25.5475 17.2699V14.5403C25.4241 14.5517 25.2985 14.5575 25.1717 14.5575Z" fill="white"/>
</svg>
