<svg width="36" height="37" viewBox="0 0 36 37" fill="none" xmlns="http://www.w3.org/2000/svg">
<rect x="1" y="1.82227" width="34" height="34" rx="17" stroke="white" stroke-width="2"/>
<path d="M24.3553 15.5633C24.3655 15.7054 24.3655 15.8476 24.3655 15.9897C24.3655 20.3247 21.066 25.3196 15.0355 25.3196C13.1777 25.3196 11.4518 24.7815 10 23.8476C10.264 23.878 10.5177 23.8881 10.7919 23.8881C12.3248 23.8881 13.736 23.3704 14.8629 22.4871C13.4213 22.4567 12.2132 21.5125 11.7969 20.213C12 20.2435 12.203 20.2638 12.4162 20.2638C12.7107 20.2638 13.0051 20.2231 13.2792 20.1521C11.7767 19.8475 10.6497 18.5277 10.6497 16.9338V16.8932C11.0863 17.1369 11.5939 17.2892 12.1319 17.3095C11.2487 16.7206 10.67 15.7156 10.67 14.5785C10.67 13.9694 10.8324 13.411 11.1167 12.9237C12.7309 14.9135 15.1573 16.213 17.8781 16.3551C17.8274 16.1115 17.7969 15.8577 17.7969 15.6039C17.7969 13.7968 19.2588 12.3247 21.0761 12.3247C22.0202 12.3247 22.873 12.7206 23.472 13.3602C24.2131 13.2181 24.9238 12.944 25.5533 12.5684C25.3096 13.3298 24.7918 13.9694 24.1116 14.3755C24.7715 14.3044 25.4111 14.1216 25.9999 13.8679C25.5533 14.5176 24.9949 15.0962 24.3553 15.5633Z" fill="white"/>
</svg>
