<svg width="14" height="14" viewBox="0 0 14 14" fill="none" xmlns="http://www.w3.org/2000/svg">
<path d="M6.8125 0.217499C7 0.0508318 7.17708 0.0508318 7.34375 0.217499L13.875 6.78C14.0625 6.94667 14.0625 7.11333 13.875 7.28L7.34375 13.8425C7.17708 14.0092 7 14.0092 6.8125 13.8425L6.1875 13.2175C6.125 13.155 6.09375 13.0717 6.09375 12.9675C6.09375 12.8633 6.125 12.7696 6.1875 12.6862L11.0312 7.8425H0.375C0.125 7.8425 0 7.7175 0 7.4675V6.5925C0 6.3425 0.125 6.2175 0.375 6.2175H11.0312L6.1875 1.37375C6.02083 1.18625 6.02083 1.00917 6.1875 0.842499L6.8125 0.217499Z" fill="white"/>
</svg>
