<svg width="36" height="37" viewBox="0 0 36 37" fill="none" xmlns="http://www.w3.org/2000/svg">
<rect x="1" y="1.82227" width="34" height="34" rx="17" stroke="white" stroke-width="2"/>
<path d="M25.2675 15.1577C25.093 14.5008 24.5789 13.9834 23.9262 13.8078C22.7432 13.4888 17.9993 13.4888 17.9993 13.4888C17.9993 13.4888 13.2554 13.4888 12.0723 13.8078C11.4196 13.9834 10.9055 14.5008 10.7311 15.1577C10.4141 16.3485 10.4141 18.8329 10.4141 18.8329C10.4141 18.8329 10.4141 21.3173 10.7311 22.508C10.9055 23.165 11.4196 23.6608 12.0723 23.8364C13.2554 24.1554 17.9993 24.1554 17.9993 24.1554C17.9993 24.1554 22.7431 24.1554 23.9262 23.8364C24.5789 23.6608 25.093 23.165 25.2675 22.508C25.5845 21.3173 25.5845 18.8329 25.5845 18.8329C25.5845 18.8329 25.5845 16.3485 25.2675 15.1577ZM16.4477 21.0885V16.5772L20.4127 18.8329L16.4477 21.0885Z" fill="white"/>
</svg>
