<svg width="28" height="25" viewBox="0 0 28 25" fill="none" xmlns="http://www.w3.org/2000/svg">
<path d="M13.8763 15.2305C13.6101 15.12 13.3109 15.1051 13.0356 15.1887C12.7185 15.2992 12.4522 15.5173 12.2817 15.81C12.165 16.0221 12.1201 16.2671 12.156 16.509C12.0184 16.4403 11.8987 16.3627 11.7671 16.3089C11.4919 16.2073 11.1867 16.2193 10.9174 16.3388C10.6452 16.4314 10.4148 16.6166 10.2682 16.8645C10.1396 17.1244 10.0917 17.4171 10.1306 17.7039C10.1695 17.9907 10.2921 18.2625 10.4836 18.4776C10.8037 18.8181 11.2016 19.075 11.6414 19.2244C12.2937 19.4514 12.9788 19.5769 13.6669 19.5948C13.7058 19.6008 13.7477 19.5948 13.7836 19.5769C13.8195 19.5589 13.8494 19.5291 13.8674 19.4902C14.2802 18.836 14.5704 18.1102 14.717 17.3514C14.8397 16.8257 14.7619 16.2731 14.5016 15.8011C14.361 15.5442 14.1396 15.347 13.8733 15.2365L13.8763 15.2305Z" fill="#F4C02F"/>
<path d="M7.82382 16.1687C8.16489 17.8714 9.02953 19.2634 10.3818 20.3358C12.5958 22.0923 15.1478 22.6837 17.9242 22.3969C20.1801 22.1639 22.1487 21.3036 23.7403 19.6607C25.1884 18.1701 25.9064 16.333 26.1847 14.3137C26.6095 11.2309 25.8974 8.44087 23.9169 6.01529C21.9961 3.6614 19.486 2.24847 16.5211 1.71078C12.7214 1.02373 9.17912 1.72272 6.05266 4.06168C3.55748 5.92866 2.00173 8.40802 1.69058 11.5386C1.37943 14.6871 2.40862 17.4203 4.56572 19.7234C5.83127 21.0736 7.36308 22.0385 9.0774 22.7136C9.14621 22.7405 9.21502 22.7644 9.28383 22.7942C9.78347 23.0004 9.97794 23.3499 9.82236 23.7531C9.68175 24.1176 9.18809 24.3535 8.77821 24.1654C7.7221 23.6755 6.6241 23.2334 5.65774 22.6001C2.79157 20.7182 0.882788 18.1253 0.227578 14.7169C-0.466525 11.1054 0.439998 7.87929 2.77063 5.07134C5.13118 2.2395 8.20977 0.659291 11.8418 0.160433C15.8449 -0.389207 19.5278 0.465125 22.8009 2.85188C25.4517 4.78458 27.2168 7.34458 27.7494 10.6155C28.4734 15.0605 26.9895 20.049 22.4957 22.5134C18.3221 24.8016 12.7334 24.3207 9.15219 21.3007C6.72881 19.2544 5.73852 16.5749 6.10053 13.4623C6.5882 9.25339 9.64884 5.95256 13.8164 5.01758C15.1478 4.71886 16.4642 4.79055 17.7058 5.43279C19.0462 6.12582 19.462 7.29081 18.8397 8.6679C18.2264 10.0301 17.1673 11.0278 16.0244 11.9299C13.61 13.8387 10.9443 15.2725 7.96145 16.0851C7.91956 16.097 7.88665 16.1269 7.82382 16.1657V16.1687ZM7.64132 14.6034C7.71313 14.6094 7.74304 14.6213 7.76997 14.6124C11.0999 13.5758 14.0648 11.9209 16.4822 9.37885C16.8681 8.97259 17.1583 8.44685 17.3947 7.93306C17.655 7.36251 17.4874 7.03392 16.9369 6.73221C16.0753 6.26024 15.1538 6.20946 14.2263 6.43648C11.6773 7.0608 9.76851 8.55439 8.46707 10.8097C7.7939 11.9777 7.6862 13.2861 7.64431 14.6034H7.64132Z" fill="#6096B9"/>
</svg>
