<svg width="170" height="46" viewBox="0 0 170 46" fill="none" xmlns="http://www.w3.org/2000/svg">
<g clip-path="url(#clip0_1826_7524)">
<path d="M5.13395 45.9999C3.94853 45.9999 2.94733 45.5876 2.13836 44.7672C1.32538 43.9468 0.920898 42.9081 0.920898 41.6553C0.920898 40.4024 1.32538 39.3678 2.13836 38.5555C2.95134 37.7432 3.94853 37.335 5.13395 37.335C6.31938 37.335 7.31657 37.7432 8.12555 38.5555C8.93452 39.3678 9.339 40.4024 9.339 41.6593C9.339 42.9162 8.93452 43.9549 8.12555 44.7713C7.31657 45.5876 6.31938 45.9958 5.13395 45.9958V45.9999ZM7.35262 44.0883C7.93331 43.474 8.22567 42.6657 8.22567 41.6634C8.22567 40.6611 7.93331 39.8528 7.35262 39.2466C6.77192 38.6363 6.03103 38.3332 5.12594 38.3332C4.22086 38.3332 3.47997 38.6363 2.89527 39.2466C2.31057 39.8528 2.01822 40.6611 2.01822 41.6634C2.01822 42.6657 2.31057 43.478 2.90328 44.0883C3.49198 44.6985 4.23688 45.0057 5.13395 45.0057C6.03103 45.0057 6.77192 44.6985 7.35262 44.0883Z" fill="#284C77"/>
<path d="M20.1278 42.4109V45.9148H19.0425V37.4277H21.7297C22.6628 37.4277 23.3717 37.6621 23.8603 38.1269C24.3488 38.5917 24.5931 39.1615 24.5931 39.8364C24.5931 40.5114 24.4129 41.0731 24.0565 41.5217C23.7001 41.9703 23.1594 42.2532 22.4466 42.3664L24.7253 45.9189H23.3637L21.1931 42.4149H20.1318L20.1278 42.4109ZM20.1278 38.3209V41.5298H21.7257C22.3224 41.5298 22.7669 41.3884 23.0553 41.1055C23.3476 40.8226 23.4918 40.4305 23.4918 39.9254C23.4918 38.8544 22.9031 38.3209 21.7257 38.3209H20.1278Z" fill="#284C77"/>
<path d="M38.482 45.9876C37.3406 45.9876 36.3634 45.5794 35.5505 44.763C34.7375 43.9467 34.333 42.9121 34.333 41.6592C34.333 40.4063 34.7375 39.3717 35.5505 38.5594C36.3634 37.7471 37.3606 37.3389 38.5461 37.3389C39.4071 37.3389 40.172 37.545 40.8448 37.9653C41.5176 38.3816 42.0142 38.9797 42.3306 39.7678H41.017C40.5244 38.814 39.6994 38.3331 38.5461 38.3331C37.645 38.3331 36.9041 38.6362 36.3194 39.2464C35.7347 39.8527 35.4423 40.661 35.4423 41.6632C35.4423 42.6655 35.7347 43.4779 36.3194 44.0881C36.9041 44.6984 37.633 45.0055 38.506 45.0055C39.3791 45.0055 40.0759 44.7509 40.6085 44.2457C41.1372 43.7406 41.4455 43.0535 41.5336 42.1886H38.1175V41.3076H42.679V42.1886C42.5669 43.2839 42.1264 44.1892 41.3534 44.9085C40.5805 45.6279 39.6234 45.9876 38.482 45.9876Z" fill="#284C77"/>
<path d="M58.1017 45.9148L57.4569 44.0517H53.7805L53.1357 45.9148H52.0264L55.034 37.4277H56.2274L59.223 45.9148H58.1017ZM54.0888 43.1707H57.1445L55.6147 38.7857L54.0848 43.1707H54.0888Z" fill="#284C77"/>
<path d="M74.457 37.4277H75.5423V45.9148H74.457L70.0877 39.1777V45.9148H69.0024V37.4277H70.0877L74.457 44.1649V37.4277Z" fill="#284C77"/>
<path d="M85.6904 45.9148V37.4277H86.7757V45.9148H85.6904Z" fill="#284C77"/>
<path d="M101.902 37.4277V38.3209L97.877 45.0338H101.902V45.9148H96.6235V45.0338L100.656 38.3209H96.6235V37.4277H101.902Z" fill="#284C77"/>
<path d="M117.457 45.9148L116.812 44.0517H113.135L112.491 45.9148H111.381L114.389 37.4277H115.582L118.578 45.9148H117.457ZM113.444 43.1707H116.499L114.97 38.7857L113.44 43.1707H113.444Z" fill="#284C77"/>
<path d="M130.973 37.4277C132.311 37.4277 133.364 37.8117 134.137 38.5796C134.91 39.3474 135.294 40.3942 135.294 41.7157C135.294 43.0373 134.91 44.0679 134.137 44.8075C133.364 45.547 132.311 45.9148 130.973 45.9148H128.358V37.4277H130.973ZM129.443 45.058H130.973C132.014 45.058 132.811 44.763 133.36 44.177C133.909 43.591 134.185 42.7665 134.185 41.7157C134.185 40.665 133.909 39.8405 133.36 39.2545C132.811 38.6685 132.014 38.3734 130.973 38.3734H129.443V45.0621V45.058Z" fill="#284C77"/>
<path d="M148.806 45.9999C147.621 45.9999 146.62 45.5876 145.811 44.7672C144.998 43.9468 144.593 42.9081 144.593 41.6553C144.593 40.4024 144.998 39.3678 145.811 38.5555C146.624 37.7432 147.621 37.335 148.806 37.335C149.992 37.335 150.989 37.7432 151.798 38.5555C152.607 39.3678 153.007 40.4024 153.007 41.6593C153.007 42.9162 152.603 43.9549 151.798 44.7713C150.989 45.5876 149.992 45.9958 148.806 45.9958V45.9999ZM151.025 44.0883C151.606 43.474 151.898 42.6657 151.898 41.6634C151.898 40.6611 151.61 39.8528 151.025 39.2466C150.444 38.6363 149.703 38.3332 148.798 38.3332C147.893 38.3332 147.152 38.6363 146.568 39.2466C145.983 39.8528 145.691 40.6611 145.691 41.6634C145.691 42.6657 145.987 43.478 146.576 44.0883C147.164 44.6985 147.909 45.0057 148.806 45.0057C149.703 45.0057 150.444 44.6985 151.025 44.0883Z" fill="#284C77"/>
<path d="M163.8 42.4109V45.9148H162.715V37.4277H165.402C166.335 37.4277 167.044 37.6621 167.533 38.1269C168.021 38.5917 168.266 39.1615 168.266 39.8364C168.266 40.5114 168.085 41.0731 167.729 41.5217C167.368 41.9703 166.832 42.2532 166.119 42.3664L168.398 45.9189H167.036L164.861 42.4149H163.8V42.4109ZM163.8 38.3209V41.5298H165.398C165.995 41.5298 166.439 41.3884 166.728 41.1055C167.02 40.8226 167.164 40.4305 167.164 39.9254C167.164 38.8544 166.575 38.3209 165.398 38.3209H163.8Z" fill="#284C77"/>
<path d="M39.5073 8.17578H45.2582L50.7408 24.9236L56.1833 8.17578H61.9342L54.1169 29.6036H47.3327L39.5153 8.17578H39.5073Z" fill="#6096B9"/>
<path d="M74.0406 29.911C70.9489 29.911 68.4299 28.9006 66.4916 26.8758C64.5492 24.851 63.5801 22.1756 63.5801 18.8495C63.5801 15.5233 64.5573 12.86 66.5116 10.8635C68.4659 8.86703 70.997 7.86475 74.1007 7.86475C77.2044 7.86475 79.7555 8.83874 81.7459 10.7867C83.7403 12.7347 84.7375 15.3293 84.7375 18.5787C84.7375 19.3264 84.6854 20.0215 84.5853 20.6681H69.0987C69.2269 22.0624 69.7355 23.1819 70.6325 24.0347C71.5256 24.8874 72.663 25.3118 74.0446 25.3118C75.9109 25.3118 77.2885 24.5398 78.1856 22.992H84.0126C83.3999 25.0289 82.2104 26.694 80.4483 27.9832C78.6862 29.2724 76.5516 29.919 74.0486 29.919L74.0406 29.911ZM77.5849 13.741C76.6277 12.8883 75.4704 12.4639 74.1167 12.4639C72.7631 12.4639 71.6297 12.8883 70.7247 13.741C69.8156 14.5938 69.2749 15.7254 69.0947 17.144H79.1347C79.0587 15.7254 78.542 14.5898 77.5809 13.741H77.5849Z" fill="#6096B9"/>
<path d="M94.3933 8.17594V11.3849C95.7469 9.03677 97.9456 7.86475 100.985 7.86475C103.412 7.86475 105.39 8.669 106.924 10.2815C108.458 11.8941 109.223 14.129 109.223 16.9904V29.5998H103.857V17.7623C103.857 16.0851 103.436 14.8039 102.591 13.9148C101.75 13.0257 100.597 12.5811 99.143 12.5811C97.6893 12.5811 96.5279 13.0257 95.6748 13.9148C94.8178 14.8039 94.3893 16.0891 94.3893 17.7623V29.5998H88.9868V8.17594H94.3893H94.3933Z" fill="#6096B9"/>
<path d="M123.028 25.0409H125.595V29.6037H122.183C120.012 29.6037 118.338 29.1025 117.161 28.0962C115.983 27.0899 115.398 25.4288 115.398 23.105V12.6214H113.136V8.17177H115.398V2.87744H120.805V8.17581H125.559V12.6255H120.805V23.109C120.805 23.8042 120.969 24.3013 121.302 24.5963C121.634 24.8913 122.207 25.0409 123.028 25.0409Z" fill="#6096B9"/>
<path d="M131.458 26.8556C129.387 24.8187 128.354 22.1513 128.354 18.8495C128.354 15.5476 129.403 12.8923 131.498 10.8797C133.592 8.86703 136.191 7.86475 139.299 7.86475C142.407 7.86475 145.002 8.87107 147.101 10.8797C149.195 12.8923 150.244 15.5476 150.244 18.8495C150.244 22.1513 149.191 24.8187 147.084 26.8556C144.978 28.8925 142.363 29.911 139.247 29.911C136.131 29.911 133.536 28.8925 131.466 26.8556H131.458ZM139.239 25.3077C140.745 25.3077 142.042 24.746 143.132 23.6265C144.217 22.5029 144.762 20.9187 144.762 18.8697C144.762 16.8206 144.225 15.2404 143.152 14.1331C142.078 13.0257 140.781 12.468 139.263 12.468C137.745 12.468 136.46 13.0217 135.41 14.1331C134.361 15.2404 133.841 16.8287 133.841 18.8899C133.841 20.951 134.365 22.5393 135.41 23.6467C136.46 24.754 137.737 25.3118 139.243 25.3118L139.239 25.3077Z" fill="#6096B9"/>
<path d="M18.5624 20.6074C18.2059 20.4579 17.8055 20.4377 17.437 20.5508C17.0125 20.7004 16.6561 20.9954 16.4278 21.3915C16.2716 21.6784 16.2116 22.0098 16.2596 22.3372C16.0754 22.2442 15.9152 22.1391 15.739 22.0664C15.3705 21.929 14.9621 21.9451 14.6016 22.1068C14.2372 22.2321 13.9288 22.4827 13.7326 22.8181C13.5604 23.1697 13.4963 23.5658 13.5484 23.9538C13.6004 24.3417 13.7646 24.7095 14.0209 25.0005C14.4494 25.4612 14.9821 25.8088 15.5708 26.0109C16.4438 26.318 17.3609 26.4878 18.282 26.512C18.3341 26.5201 18.3902 26.512 18.4382 26.4878C18.4863 26.4635 18.5263 26.4231 18.5504 26.3706C19.103 25.4855 19.4915 24.5034 19.6877 23.4769C19.8519 22.7656 19.7478 22.0179 19.3994 21.3793C19.2112 21.0318 18.9148 20.765 18.5584 20.6155L18.5624 20.6074Z" fill="#F4C02F"/>
<path d="M10.4606 21.8763C10.9172 24.1799 12.0746 26.0632 13.8847 27.5141C16.8483 29.8905 20.2644 30.6907 23.9809 30.3027C27.0005 29.9875 29.6356 28.8235 31.7662 26.6007C33.7045 24.584 34.6657 22.0985 35.0381 19.3665C35.6068 15.1957 34.6537 11.421 32.0025 8.13931C29.4314 4.95463 26.0714 3.04302 22.1026 2.31556C17.0165 1.38602 12.2748 2.33172 8.08978 5.49619C4.74977 8.02211 2.66727 11.3765 2.25078 15.612C1.83428 19.8717 3.21193 23.5696 6.09939 26.6856C7.79343 28.5124 9.84389 29.8177 12.1386 30.7311C12.2308 30.7675 12.3229 30.7998 12.415 30.8402C13.0838 31.1191 13.3441 31.592 13.1358 32.1376C12.9476 32.6306 12.2868 32.9499 11.7382 32.6953C10.3245 32.0325 8.8547 31.4343 7.56115 30.5775C3.72454 28.0314 1.16948 24.5234 0.292425 19.9121C-0.63669 15.026 0.576766 10.6612 3.69651 6.86221C6.8563 3.03089 10.9772 0.892958 15.8391 0.218033C21.1975 -0.525597 26.1274 0.630263 30.5087 3.8594C34.0569 6.47423 36.4198 9.93777 37.1326 14.3632C38.1018 20.3769 36.1154 27.1261 30.1002 30.4603C24.5135 33.5561 17.0325 32.9054 12.2388 28.8195C8.99487 26.0511 7.66928 22.4259 8.15386 18.2147C8.80664 12.5203 12.9036 8.05444 18.4823 6.78946C20.2644 6.38531 22.0265 6.48231 23.6885 7.35123C25.4827 8.28885 26.0393 9.86502 25.2063 11.7281C24.3853 13.571 22.9676 14.9209 21.4378 16.1414C18.2059 18.7239 14.6376 20.6638 10.6448 21.7631C10.5888 21.7793 10.5447 21.8197 10.4606 21.8722V21.8763ZM10.2163 19.7585C10.3124 19.7666 10.3525 19.7828 10.3885 19.7707C14.8459 18.3683 18.8147 16.1293 22.0505 12.69C22.5672 12.1404 22.9556 11.4291 23.272 10.7339C23.6204 9.96201 23.3962 9.51745 22.6593 9.10926C21.5059 8.47071 20.2724 8.40201 19.0309 8.70916C15.6188 9.55383 13.0638 11.5746 11.3217 14.6259C10.4206 16.2061 10.2764 17.9762 10.2203 19.7585H10.2163Z" fill="#6096B9"/>
<path d="M152.535 14.3757C152.535 12.5166 153.316 10.9526 154.878 9.68758C156.44 8.4226 158.51 7.78809 161.097 7.78809C163.684 7.78809 165.755 8.41451 167.317 9.66737C168.879 10.9202 169.708 12.6176 169.812 14.7596H164.285C164.133 12.9531 163.032 12.0478 160.985 12.0478C159.96 12.0478 159.167 12.2539 158.606 12.6661C158.042 13.0784 157.761 13.6482 157.761 14.3716C157.761 15.0951 158.182 15.6649 159.027 16.0771C159.872 16.4894 160.893 16.8127 162.099 17.0471C163.3 17.2815 164.497 17.5684 165.687 17.92C166.876 18.2676 167.893 18.89 168.739 19.7791C169.584 20.6682 170.004 21.8524 170.004 23.3235C170.004 25.2594 169.191 26.8355 167.565 28.048C165.939 29.2604 163.869 29.8666 161.346 29.8666C158.823 29.8666 156.76 29.2645 155.146 28.0641C153.532 26.8638 152.651 25.1381 152.499 22.8951H158.026C158.23 24.7016 159.367 25.6069 161.442 25.6069C162.439 25.6069 163.244 25.3806 163.861 24.928C164.473 24.4753 164.782 23.8812 164.782 23.1457C164.782 22.4101 164.361 21.8281 163.516 21.4038C162.671 20.9794 161.646 20.648 160.445 20.4177C159.243 20.1833 158.046 19.9004 156.856 19.5649C155.667 19.2295 154.65 18.6273 153.805 17.7624C152.96 16.8976 152.539 15.7659 152.539 14.3716L152.535 14.3757Z" fill="#6096B9"/>
</g>
<defs>
<clipPath id="clip0_1826_7524">
<rect width="170" height="46" fill="white"/>
</clipPath>
</defs>
</svg>
