<svg width="36" height="37" viewBox="0 0 36 37" fill="none" xmlns="http://www.w3.org/2000/svg">
<path d="M35 18.8223C35 9.43342 27.3888 1.82227 18 1.82227C8.61116 1.82227 1 9.43342 1 18.8223C1 28.2111 8.61116 35.8223 18 35.8223C27.3888 35.8223 35 28.2111 35 18.8223Z" stroke="white" stroke-width="2"/>
<path d="M25.2675 15.1582C25.093 14.5013 24.5789 13.9839 23.9262 13.8083C22.7432 13.4893 17.9993 13.4893 17.9993 13.4893C17.9993 13.4893 13.2554 13.4893 12.0723 13.8083C11.4196 13.9839 10.9055 14.5013 10.7311 15.1582C10.4141 16.349 10.4141 18.8334 10.4141 18.8334C10.4141 18.8334 10.4141 21.3178 10.7311 22.5085C10.9055 23.1655 11.4196 23.6613 12.0723 23.8369C13.2554 24.1559 17.9993 24.1559 17.9993 24.1559C17.9993 24.1559 22.7431 24.1559 23.9262 23.8369C24.5789 23.6613 25.093 23.1655 25.2675 22.5085C25.5845 21.3178 25.5845 18.8334 25.5845 18.8334C25.5845 18.8334 25.5845 16.349 25.2675 15.1582ZM16.4477 21.089V16.5777L20.4127 18.8334L16.4477 21.089Z" fill="white"/>
</svg>
